SplineFontDB: 3.0
FontName: Sawasdee-BoldOblique
FullName: Sawasdee Bold Oblique
FamilyName: Sawasdee
Weight: Bold
Copyright: Copyright (c) 2007 Pol Udomwittayanukul. All rights reserved.
Version: 001.005: 2011-04-23
ItalicAngle: -12
UnderlinePosition: -153
UnderlineWidth: 102
Ascent: 1536
Descent: 512
LayerCount: 2
Layer: 0 0 "Back"  1
Layer: 1 0 "Fore"  0
XUID: [1021 180 1442959360 14302000]
UniqueID: 4076113
FSType: 8
OS2Version: 0
OS2_WeightWidthSlopeOnly: 0
OS2_UseTypoMetrics: 1
CreationTime: 1178430034
ModificationTime: 1303569147
PfmFamily: 17
TTFWeight: 700
TTFWidth: 5
LineGap: 184
VLineGap: 0
OS2TypoAscent: 0
OS2TypoAOffset: 1
OS2TypoDescent: 0
OS2TypoDOffset: 1
OS2TypoLinegap: 184
OS2WinAscent: 0
OS2WinAOffset: 1
OS2WinDescent: 0
OS2WinDOffset: 1
HheadAscent: 4
HheadAOffset: 1
HheadDescent: 82
HheadDOffset: 1
OS2Vendor: 'PfEd'
Lookup: 4 0 1 "'liga' Standard Ligatures in Latin lookup 0"  {"'liga' Standard Ligatures in Latin lookup 0"  } ['liga' ('latn' <'dflt' > ) ]
Lookup: 4 0 0 "'frac' Diagonal Fractions in Latin lookup 42"  {"'frac' Diagonal Fractions in Latin lookup 42"  } ['frac' ('latn' <'dflt' > ) ]
Lookup: 6 0 0 "'ccmp' Thai Conditional Descender Removal"  {"'ccmp' Thai Conditional Descender Removal"  } ['ccmp' ('DFLT' <'dflt' > 'thai' <'KUY ' 'PAL ' 'THA ' 'dflt' > ) ]
Lookup: 6 0 0 "'ccmp' Thai General Composition"  {"'ccmp' Thai Below Vowel Tone Reordering"  "'ccmp' Thai General Composition"  } ['ccmp' ('DFLT' <'dflt' > 'thai' <'KUY ' 'PAL ' 'THA ' 'dflt' > ) ]
Lookup: 5 0 0 "Required Thai Descender Removal"  {"Required Thai Descender Removal"  } [' RQD' ('thai' <'PAL ' > ) ]
Lookup: 1 0 0 "Thai Descender Removal Single Substitution"  {"Thai Descender Removal Single Substitution" ("descless" ) } []
Lookup: 2 0 0 "Thai Sara Am Decomposition"  {"Thai Sara Am Decomposition"  } []
Lookup: 2 0 0 "Thai Tone Nikhahit Attachment"  {"Thai Tone Nikhahit Attachment"  } []
Lookup: 1 0 0 "Thai Sara Am Lakkhang"  {"Thai Sara Am Lakkhang"  } []

StartChar: exclam
Encoding: 1 33 1
Width: 570
VWidth: 2982
Flags: W
HStem: -11 237<232.897 384.665>
VStem: 188 244<35.7286 179.716>
LayerCount: 2
Fore
SplineSet
188 83 m 0
 188 154 258 226 336 226 c 0
 391 226 432 186 432 132 c 0
 432 51 349 -11 284 -11 c 0
 228 -11 188 30 188 83 c 0
425 352 m 1
 295 352 l 1
 506 1489 l 1
 698 1489 l 1
 425 352 l 1
EndSplineSet
EndChar

StartChar: quotedbl
Encoding: 2 34 2
Width: 762
VWidth: 2982
Flags: W
LayerCount: 2
Fore
SplineSet
566 1128 m 1
 438 1128 l 1
 502 1587 l 1
 698 1587 l 1
 566 1128 l 1
803 1128 m 1
 679 1128 l 1
 741 1587 l 1
 938 1587 l 1
 803 1128 l 1
EndSplineSet
EndChar

StartChar: numbersign
Encoding: 3 35 3
Width: 1066
VWidth: 2982
Flags: W
HStem: -2 21G<58 233.371 477 649.417> 427 162<90 260 495 679 914 1090> 904 162<293 474 714 891 1130 1296> 1475 20G<740.629 916 1156.63 1335>
VStem: 58 166<-2 164> 477 163<-2 161> 750 166<1329 1495> 1166 169<1326 1495>
DStem2: 58 -2 224 -2 0.419596 0.907711<69.653 474.166 719.821 996.938 1244.69 1649.2> 477 -2 640 -2 0.421093 0.907017<68.6382 474.171 720.065 996.09 1243.67 1647.94>
LayerCount: 2
Fore
SplineSet
640 -2 m 1
 477 -2 l 1
 679 427 l 1
 425 427 l 1
 224 -2 l 1
 58 -2 l 1
 260 427 l 1
 56 427 l 1
 90 589 l 1
 333 589 l 1
 474 904 l 1
 258 904 l 1
 293 1066 l 1
 549 1066 l 1
 750 1495 l 1
 916 1495 l 1
 714 1066 l 1
 965 1066 l 1
 1166 1495 l 1
 1335 1495 l 1
 1130 1066 l 1
 1330 1066 l 1
 1296 904 l 1
 1057 904 l 1
 914 589 l 1
 1124 589 l 1
 1090 427 l 1
 842 427 l 1
 640 -2 l 1
495 589 m 1
 748 589 l 1
 891 904 l 1
 638 904 l 1
 495 589 l 1
EndSplineSet
EndChar

StartChar: dollar
Encoding: 4 36 4
Width: 1066
VWidth: 2982
Flags: W
HStem: -15 158<396.92 461>
VStem: 139 160<238.813 466> 393 162<1006.79 1228.77> 974 165<349.812 613.181> 1047 160<1186.34 1269.5>
DStem2: 434 -137 596 -137 0.207912 0.978148<33.6817 124.948 319.622 905.258 1116.58 1507.07 1705.96 1810.89>
LayerCount: 2
Fore
SplineSet
141 466 m 1xf0
 302 485 l 1
 299 463 299 440 299 419 c 0
 299 297 333 177 495 143 c 1
 632 786 l 1
 524 839 393 914 393 1070 c 0
 393 1243 542 1461 784 1502 c 1
 812 1634 l 1
 969 1634 l 1
 940 1502 l 1
 1184 1450 1200 1229 1207 1191 c 1
 1047 1139 l 1xe8
 1043 1164 1036 1298 912 1343 c 1
 814 891 l 1
 965 824 1139 739 1139 534 c 0
 1139 312 938 45 624 -4 c 1
 596 -137 l 1
 434 -137 l 1
 461 -15 l 1
 286 9 139 119 139 399 c 0
 139 421 139 444 141 466 c 1xf0
654 143 m 1
 855 190 974 354 974 495 c 0xf0
 974 604 889 662 775 716 c 1
 654 143 l 1
748 1337 m 1
 604 1296 555 1164 555 1102 c 0
 555 1038 598 996 667 955 c 1
 748 1337 l 1
EndSplineSet
EndChar

StartChar: percent
Encoding: 5 37 5
Width: 1452
VWidth: 2982
Flags: W
HStem: -17 156<1022.51 1245.78> 0 21G<92 304.835> 453 156<1073.18 1296.27> 882 156<489.023 711.7> 1352 156<537.972 762.745> 1473 20G<1478.18 1692>
VStem: 92 194<0 194> 297 162<1066.33 1275.43> 792 161<1113.19 1324> 831 163<167.773 377.368> 1325 164<215.081 424.065> 1497 195<1298 1493>
DStem2: 92 0 286 0 0.685578 0.728<133.002 2050.14>
LayerCount: 2
Fore
SplineSet
1489 359 m 0xb370
 1489 179 1309 -17 1092 -17 c 0
 938 -17 831 90 831 233 c 0
 831 416 1014 609 1226 609 c 0
 1382 609 1489 502 1489 359 c 0xb370
1194 453 m 0
 1077 453 994 352 994 265 c 0
 994 192 1045 139 1126 139 c 0
 1220 139 1325 222 1325 327 c 0
 1325 399 1273 453 1194 453 c 0
953 1260 m 0x3bb0
 953 1072 771 882 560 882 c 0
 406 882 297 989 297 1130 c 0
 297 1318 479 1508 692 1508 c 0
 848 1508 953 1403 953 1260 c 0x3bb0
658 1352 m 0
 549 1352 459 1254 459 1164 c 0
 459 1092 510 1038 593 1038 c 0
 687 1038 792 1121 792 1226 c 0
 792 1298 741 1352 658 1352 c 0
1497 1493 m 1x7730
 1692 1493 l 1
 286 0 l 1
 92 0 l 1
 1497 1493 l 1x7730
EndSplineSet
EndChar

StartChar: ampersand
Encoding: 6 38 6
Width: 1501
VWidth: 2982
Flags: W
HStem: -17 151<548.948 936.916> 0 21G<1185.23 1390> 1356 152<887.273 1145.64>
VStem: 218 160<294.945 641.586> 656 162<1036.41 1287.77> 1166 157<1132 1221.29> 1249 157<429.53 575>
DStem2: 846 1045 716 914 0.461754 -0.887008<53.8536 736.176 940.904 1088.54>
LayerCount: 2
Fore
SplineSet
1030 1356 m 0xbc
 912 1356 818 1285 818 1160 c 0
 818 1126 824 1088 846 1045 c 2
 1184 391 l 1
 1211 436 1231 485 1243 542 c 2
 1249 575 l 1
 1412 575 l 1
 1406 542 l 2
 1384 434 1330 336 1258 250 c 1
 1390 0 l 1
 1196 0 l 1x7a
 1126 130 l 1
 1003 38 850 -17 698 -17 c 0
 416 -17 218 175 218 430 c 0
 218 649 367 920 665 1047 c 1
 658 1074 656 1102 656 1128 c 0
 656 1345 842 1508 1061 1508 c 0
 1215 1508 1341 1424 1341 1251 c 0
 1341 1226 1339 1198 1332 1168 c 2
 1323 1132 l 1
 1166 1132 l 1
 1173 1168 l 2
 1177 1188 1179 1207 1179 1222 c 0
 1179 1327 1097 1356 1030 1356 c 0xbc
716 914 m 1
 517 833 378 643 378 461 c 0
 378 275 521 134 732 134 c 0xb8
 850 134 969 181 1061 252 c 1
 716 914 l 1
EndSplineSet
EndChar

StartChar: quoteright
Encoding: 300 8217 7
Width: 476
VWidth: 2982
Flags: W
VStem: 403 262<1306.63 1478.13>
LayerCount: 2
Fore
SplineSet
403 1386 m 0
 403 1453 474 1525 551 1525 c 0
 607 1525 665 1489 665 1408 c 0
 665 1220 436 1066 436 1066 c 1
 414 1059 l 1
 267 1059 l 1
 363 1124 l 2
 419 1160 477 1231 506 1288 c 1
 502 1288 l 2
 453 1288 403 1325 403 1386 c 0
EndSplineSet
EndChar

StartChar: parenleft
Encoding: 8 40 8
Width: 521
VWidth: 2982
Flags: W
VStem: 141 166<-147.859 647.914> 224 145<-305 -160>
LayerCount: 2
Fore
SplineSet
141 273 m 0x80
 141 808 349 1241 624 1610 c 1
 771 1610 l 1
 544 1265 307 810 307 226 c 0x80
 307 32 333 -141 369 -305 c 1
 224 -305 l 1x40
 177 -134 141 56 141 273 c 0x80
EndSplineSet
EndChar

StartChar: parenright
Encoding: 9 41 9
Width: 521
VWidth: 2982
Flags: W
VStem: 25 146<-305 -159> 500 169<691.606 1451.03>
LayerCount: 2
Fore
SplineSet
669 1066 m 0
 669 487 380 0 171 -305 c 1
 25 -305 l 1
 242 34 500 517 500 1102 c 0
 500 1285 472 1448 436 1610 c 1
 581 1610 l 1
 634 1448 669 1267 669 1066 c 0
EndSplineSet
EndChar

StartChar: asterisk
Encoding: 10 42 10
Width: 982
VWidth: 2982
Flags: W
HStem: 1497 157<982 1139>
VStem: 792 169<1633 1802>
DStem2: 504 1265 618 1173 0.659077 0.752075<5.94382 246.564>
LayerCount: 2
Fore
SplineSet
792 1802 m 1
 961 1802 l 1
 918 1602 l 1
 1139 1654 l 1
 1144 1497 l 1
 933 1450 l 1
 1021 1265 l 1
 867 1173 l 1
 781 1359 l 1
 618 1173 l 1
 504 1265 l 1
 667 1450 l 1
 479 1497 l 1
 549 1654 l 1
 750 1602 l 1
 792 1802 l 1
EndSplineSet
EndChar

StartChar: plus
Encoding: 11 43 11
Width: 935
VWidth: 2982
Flags: W
HStem: 665 161<213 530 726 1043>
VStem: 455 160<314 474> 638 161<1018 1179>
DStem2: 455 314 615 314 0.207912 0.978148<33.2659 358.923 557.156 884.146>
LayerCount: 2
Fore
SplineSet
615 314 m 1
 455 314 l 1
 530 665 l 1
 177 665 l 1
 213 826 l 1
 564 826 l 1
 638 1179 l 1
 799 1179 l 1
 726 826 l 1
 1077 826 l 1
 1043 665 l 1
 692 665 l 1
 615 314 l 1
EndSplineSet
EndChar

StartChar: comma
Encoding: 12 44 12
Width: 570
VWidth: 2982
Flags: W
VStem: 188 260<2.80596 177.078>
LayerCount: 2
Fore
SplineSet
188 79 m 0
 188 154 260 224 333 224 c 0
 393 224 448 184 448 105 c 0
 448 -107 197 -242 197 -242 c 1
 79 -242 l 1
 166 -184 269 -79 282 -15 c 1
 226 -13 188 25 188 79 c 0
EndSplineSet
EndChar

StartChar: hyphen
Encoding: 13 45 13
Width: 899
VWidth: 2982
Flags: W
HStem: 517 162<250 904>
LayerCount: 2
Fore
SplineSet
938 679 m 1
 904 517 l 1
 218 517 l 1
 250 679 l 1
 938 679 l 1
EndSplineSet
EndChar

StartChar: period
Encoding: 14 46 14
Width: 570
VWidth: 2982
Flags: W
HStem: -11 237<232.897 384.665>
VStem: 188 244<35.7286 179.716>
LayerCount: 2
Fore
SplineSet
188 83 m 0
 188 154 258 226 336 226 c 0
 391 226 432 186 432 132 c 0
 432 51 349 -11 284 -11 c 0
 228 -11 188 30 188 83 c 0
EndSplineSet
EndChar

StartChar: slash
Encoding: 15 47 15
Width: 1168
VWidth: 2982
Flags: W
VStem: -77 198<-36 162> 1365 200<1329 1529>
DStem2: -77 -36 121 -36 0.678124 0.734947<134.269 2128.05>
LayerCount: 2
Fore
SplineSet
1365 1529 m 1
 1565 1529 l 1
 121 -36 l 1
 -77 -36 l 1
 1365 1529 l 1
EndSplineSet
EndChar

StartChar: zero
Encoding: 16 48 16
Width: 1179
VWidth: 2877
Flags: W
HStem: -13 152<504.948 758.244> 1352 154<752.32 1005.43>
VStem: 211 158<307.85 818.029> 1141 160<672.894 1183.73>
LayerCount: 2
Fore
SplineSet
1301 976 m 0
 1301 521 978 -13 593 -13 c 0
 344 -13 211 220 211 515 c 0
 211 969 532 1506 918 1506 c 0
 1166 1506 1301 1273 1301 976 c 0
884 1352 m 0
 667 1352 369 974 369 549 c 0
 369 295 487 139 626 139 c 0
 844 139 1141 517 1141 942 c 0
 1141 1196 1023 1352 884 1352 c 0
EndSplineSet
EndChar

StartChar: one
Encoding: 17 49 17
Width: 1177
VWidth: 2880
Flags: W
HStem: 0 21G<513 677.263> 1486 20G<955.376 989.737>
VStem: 513 160<0 160>
DStem2: 513 0 673 0 0.207912 0.978148<33.2659 1260.53>
LayerCount: 2
Fore
SplineSet
775 1233 m 1
 622 1155 l 1
 573 1288 l 1
 994 1506 l 1
 673 0 l 1
 513 0 l 1
 775 1233 l 1
EndSplineSet
EndChar

StartChar: two
Encoding: 18 50 18
Width: 1177
VWidth: 2877
Flags: W
HStem: 0 154<275 1100> 1354 152<728.761 1026.34>
VStem: 346 160<985 1117.64> 1126 159<942.944 1250.35>
LayerCount: 2
Fore
SplineSet
1285 1126 m 0
 1285 587 455 513 275 154 c 1
 1132 154 l 1
 1100 0 l 1
 77 0 l 1
 92 74 l 2
 199 585 1041 662 1117 1021 c 0
 1124 1047 1126 1074 1126 1100 c 0
 1126 1249 1025 1354 886 1354 c 0
 726 1354 553 1211 513 1021 c 2
 506 985 l 1
 346 985 l 1
 354 1021 l 2
 410 1285 658 1506 918 1506 c 0
 1139 1506 1285 1341 1285 1126 c 0
EndSplineSet
EndChar

StartChar: three
Encoding: 19 51 19
Width: 1179
VWidth: 2877
Flags: W
HStem: -13 152<477.822 797> 777 154<763 918.475> 1352 154<743.129 1013.07>
VStem: 199 164<250.03 492.469> 1032 159<358.443 667.121> 1074 161<1045.33 1292.82>
LayerCount: 2
Fore
SplineSet
1191 553 m 0xf8
 1191 273 914 -13 593 -13 c 0
 361 -13 199 148 199 365 c 0
 199 396 201 427 208 459 c 2
 218 493 l 1
 376 493 l 1
 369 459 l 2
 365 436 363 416 363 396 c 0
 363 250 472 139 628 139 c 0
 822 139 1032 316 1032 521 c 0xf8
 1032 667 922 777 765 777 c 2
 730 777 l 1
 763 931 l 1
 797 931 l 2
 931 931 1074 1030 1074 1175 c 0
 1074 1276 998 1352 886 1352 c 0
 761 1352 638 1254 613 1132 c 2
 604 1100 l 1
 448 1100 l 1
 455 1132 l 2
 500 1341 707 1506 920 1506 c 0
 1106 1506 1235 1382 1235 1209 c 0xf4
 1235 1070 1155 940 1034 859 c 1
 1132 792 1191 683 1191 553 c 0xf8
EndSplineSet
EndChar

StartChar: four
Encoding: 20 52 20
Width: 1177
VWidth: 2880
Flags: W
HStem: 2 21G<803 967.226> 267 154<346 859 1050 1139>
VStem: 803 160<2 162>
DStem2: -2 267 346 421 0.703575 0.710621<354.28 1339.28> 803 2 963 2 0.207912 0.978148<33.2659 270.852 461.198 1142.07>
LayerCount: 2
Fore
SplineSet
893 421 m 1
 1041 1119 l 1
 346 421 l 1
 893 421 l 1
963 2 m 1
 803 2 l 1
 859 267 l 1
 -2 267 l 1
 1296 1578 l 1
 1050 421 l 1
 1224 421 l 1
 1139 267 l 1
 1019 267 l 1
 963 2 l 1
EndSplineSet
EndChar

StartChar: five
Encoding: 21 53 21
Width: 1177
VWidth: 2877
Flags: W
HStem: -17 154<466.592 795.29> 933 148<617.99 947.686> 1339 154<604 1220>
VStem: 168 161<282.917 491> 1085 162<434.121 792.451>
DStem2: 258 712 497 980 0.285884 0.958264<44.0262 147.219 325.141 699.748>
LayerCount: 2
Fore
SplineSet
622 137 m 0
 859 137 1085 374 1085 624 c 0
 1085 803 963 933 792 933 c 0
 660 933 521 857 412 712 c 1
 258 712 l 1
 491 1493 l 1
 1305 1493 l 1
 1220 1339 l 1
 604 1339 l 1
 497 980 l 1
 596 1043 707 1081 824 1081 c 0
 1079 1081 1247 893 1247 651 c 0
 1247 320 940 -17 591 -17 c 0
 336 -17 168 171 168 412 c 2
 173 491 l 1
 329 491 l 1
 329 446 l 2
 329 267 450 137 622 137 c 0
EndSplineSet
EndChar

StartChar: six
Encoding: 22 54 22
Width: 1177
VWidth: 2877
Flags: W
HStem: -15 152<467.001 793.346> 940 150<739.824 949.964> 1475 20G<687.5 1110>
VStem: 168 163<279.646 637.832> 1088 161<445.654 800.845>
LayerCount: 2
Fore
SplineSet
622 137 m 0
 850 137 1088 374 1088 634 c 0
 1088 810 965 940 795 940 c 0
 566 940 331 712 331 453 c 0
 331 271 453 137 622 137 c 0
168 421 m 0
 168 777 455 978 920 1495 c 1
 1110 1495 l 1
 737 1083 l 1
 765 1088 797 1090 826 1090 c 0
 1081 1090 1249 902 1249 660 c 0
 1249 329 938 -15 591 -15 c 0
 333 -15 168 177 168 421 c 0
EndSplineSet
EndChar

StartChar: seven
Encoding: 23 55 23
Width: 1179
VWidth: 2877
Flags: W
HStem: 0 21G<346 534.449> 1339 154<466 1249>
VStem: 346 175<0 175>
DStem2: 346 0 521 0 0.558031 0.82982<97.6554 1615.03>
LayerCount: 2
Fore
SplineSet
466 1493 m 1
 1525 1493 l 1
 521 0 l 1
 346 0 l 1
 1249 1339 l 1
 380 1339 l 1
 466 1493 l 1
EndSplineSet
EndChar

StartChar: eight
Encoding: 24 56 24
Width: 1179
VWidth: 2877
Flags: W
HStem: -13 152<472.043 794.614> 777 154<670.349 915.986> 1352 154<738.844 1009.71>
VStem: 199 162<249.663 558.02> 448 161<989.51 1230.93> 1030 158<363.516 665.403> 1070 159<1051.8 1294.93>
LayerCount: 2
Fore
SplineSet
1229 1213 m 0xfa
 1229 1047 1117 925 1030 865 c 1
 1130 797 1188 685 1188 553 c 0xfc
 1188 267 908 -13 593 -13 c 0
 361 -13 199 148 199 365 c 0
 199 564 333 761 532 865 c 1
 479 916 448 987 448 1068 c 0
 448 1288 665 1506 918 1506 c 0
 1102 1506 1229 1382 1229 1213 c 0xfa
761 777 m 0
 568 777 361 604 361 393 c 0
 361 250 470 139 626 139 c 0
 820 139 1030 316 1030 521 c 0
 1030 667 920 777 761 777 c 0
884 1352 m 0
 754 1352 609 1241 609 1104 c 0
 609 1008 683 931 795 931 c 0
 925 931 1070 1043 1070 1182 c 0xfa
 1070 1278 994 1352 884 1352 c 0
EndSplineSet
EndChar

StartChar: nine
Encoding: 25 57 25
Width: 1177
VWidth: 2877
Flags: W
HStem: 0 21G<396 815> 406 149<556.506 765.369> 1354 150<710.915 1038.04>
VStem: 258 161<694.104 1049.05> 1175 162<857.395 1214.57>
LayerCount: 2
Fore
SplineSet
882 1354 m 0
 654 1354 419 1121 419 867 c 0
 419 685 542 555 712 555 c 0
 938 555 1175 786 1175 1043 c 0
 1175 1224 1053 1354 882 1354 c 0
1337 1074 m 0
 1337 718 1043 506 587 0 c 1
 396 0 l 1
 767 412 l 1
 739 408 709 406 681 406 c 0
 423 406 258 591 258 833 c 0
 258 1164 564 1504 914 1504 c 0
 1171 1504 1337 1318 1337 1074 c 0
EndSplineSet
EndChar

StartChar: colon
Encoding: 26 58 26
Width: 570
VWidth: 2982
Flags: W
HStem: -11 237<232.897 384.665> 790 240<401.938 555.172>
VStem: 188 244<35.7286 179.716> 359 243<835.703 985.391>
LayerCount: 2
Fore
SplineSet
188 83 m 0xe0
 188 154 258 226 336 226 c 0
 391 226 432 186 432 132 c 0
 432 51 349 -11 284 -11 c 0
 228 -11 188 30 188 83 c 0xe0
359 886 m 0xd0
 359 972 438 1030 506 1030 c 0
 562 1030 602 989 602 936 c 0
 602 850 519 790 455 790 c 0
 399 790 359 831 359 886 c 0xd0
EndSplineSet
EndChar

StartChar: semicolon
Encoding: 27 59 27
Width: 570
VWidth: 2982
Flags: W
HStem: 790 240<401.938 555.172>
VStem: 188 260<2.80596 177.078> 359 243<835.703 985.391>
LayerCount: 2
Fore
SplineSet
188 79 m 0xc0
 188 154 260 224 333 224 c 0
 393 224 448 184 448 105 c 0
 448 -107 197 -242 197 -242 c 1
 79 -242 l 1
 166 -184 269 -79 282 -15 c 1
 226 -13 188 25 188 79 c 0xc0
359 886 m 0xa0
 359 972 438 1030 506 1030 c 0
 562 1030 602 989 602 936 c 0
 602 850 519 790 455 790 c 0
 399 790 359 831 359 886 c 0xa0
EndSplineSet
EndChar

StartChar: less
Encoding: 28 60 28
Width: 1179
VWidth: 2982
Flags: W
HStem: -2 21G<826.513 1166>
VStem: 855 311<-2 309> 1085 312<771 1083>
DStem2: 83 540 391 540 0.879993 0.474986<271.038 1139.67> 391 540 83 540 0.81948 -0.573107<0 690.863>
LayerCount: 2
Fore
SplineSet
1166 -2 m 1xc0
 855 -2 l 1xc0
 83 540 l 1
 1085 1083 l 1
 1397 1083 l 1xa0
 391 540 l 1
 1166 -2 l 1xc0
EndSplineSet
EndChar

StartChar: equal
Encoding: 29 61 29
Width: 1078
VWidth: 2982
Flags: W
HStem: 396 161<226 1057> 696 161<289 1121>
LayerCount: 2
Fore
SplineSet
1155 857 m 1
 1121 696 l 1
 255 696 l 1
 289 857 l 1
 1155 857 l 1
1092 557 m 1
 1057 396 l 1
 192 396 l 1
 226 557 l 1
 1092 557 l 1
EndSplineSet
EndChar

StartChar: greater
Encoding: 30 62 30
Width: 1179
VWidth: 2982
Flags: W
HStem: -2 21G<15 364.011>
VStem: 15 312<-2 310> 246 311<772 1083>
DStem2: 15 -2 327 -2 0.879964 0.47504<274.549 1140.96> 557 1083 246 1083 0.818286 -0.574811<0 690.171>
LayerCount: 2
Fore
SplineSet
327 -2 m 1xc0
 15 -2 l 1xc0
 1019 540 l 1
 246 1083 l 1
 557 1083 l 1xa0
 1330 540 l 1
 327 -2 l 1xc0
EndSplineSet
EndChar

StartChar: question
Encoding: 31 63 31
Width: 1183
VWidth: 2982
Flags: W
HStem: -13 226<513.693 669.854> 1352 154<739.014 1045.06>
VStem: 406 158<1079 1190.18> 472 240<27.7777 170.789> 1108 161<1042.05 1289.25>
DStem2: 492.794 -13 648.794 -13 0.207912 0.978148<374.918 689.099>
LayerCount: 2
Fore
SplineSet
472 77 m 0xd8
 472 152 549 213 615 213 c 0
 671 213 712 173 712 121 c 0
 712 45 634 -13 568 -13 c 0
 513 -13 472 25 472 77 c 0xd8
720 322 m 1
 564 322 l 1
 596 470 l 2
 669 818 1066 942 1104 1113 c 0
 1108 1130 1108 1149 1108 1166 c 0
 1108 1280 1027 1352 908 1352 c 0
 737 1352 593 1222 571 1113 c 2
 564 1079 l 1
 406 1079 l 1xe8
 412 1113 l 2
 457 1323 696 1506 940 1506 c 0
 1139 1506 1269 1382 1269 1202 c 0
 1269 846 818 777 752 470 c 2
 720 322 l 1
EndSplineSet
EndChar

StartChar: at
Encoding: 32 64 32
Width: 2052
VWidth: 2982
Flags: W
HStem: -470 152<744.903 1218.13> -13 156<752.619 1057.19 1553.12 1735.13> 897 156<1113.75 1423.26> 1352 156<1083.96 1551.52>
VStem: 213 163<74.1273 586.136> 532 169<196.638 487.541> 1476 42<307 724> 1925 162<460.846 966.956>
LayerCount: 2
Fore
SplineSet
532 286 m 0
 532 636 961 1053 1320 1053 c 0
 1450 1053 1544 998 1594 912 c 1
 1654 1041 l 1
 1820 1041 l 1
 1580 521 l 2
 1567 493 1518 406 1518 307 c 0
 1518 195 1583 141 1636 141 c 0
 1764 141 1925 406 1925 720 c 0
 1925 1085 1672 1352 1325 1352 c 0
 855 1352 376 861 376 325 c 0
 376 -49 622 -318 972 -318 c 0
 1128 -318 1254 -269 1388 -197 c 1
 1446 -327 l 1
 1280 -414 1128 -470 938 -470 c 0
 502 -470 213 -139 213 295 c 0
 213 902 759 1508 1359 1508 c 0
 1793 1508 2087 1179 2087 750 c 0
 2087 683 2080 611 2064 540 c 0
 1972 109 1739 -15 1602 -15 c 0
 1466 -15 1379 85 1359 224 c 1
 1215 87 1025 -13 846 -13 c 0
 649 -13 532 107 532 286 c 0
882 143 m 0
 1137 143 1476 461 1476 724 c 0
 1476 828 1410 897 1294 897 c 0
 1025 897 701 566 701 318 c 0
 701 213 765 143 882 143 c 0
EndSplineSet
EndChar

StartChar: A
Encoding: 33 65 33
Width: 1380
VWidth: 2880
Flags: W
HStem: 2 21G<25 207.624 1183.75 1359> 444 154<577 1063> 1488 20G<998.892 1016.61>
VStem: 25 170<2 172> 1188 171<2 173>
DStem2: 25 2 195 2 0.548147 0.836382<93.185 615.799 801.061 1422.24> 1012 1508 929 1110 0.224529 -0.974467<369.202 369.202 1055.24 1507.07>
LayerCount: 2
Fore
SplineSet
577 598 m 1
 1063 598 l 1
 929 1110 l 1
 577 598 l 1
474 444 m 1
 195 2 l 1
 25 2 l 1
 1012 1508 l 1
 1359 2 l 1
 1188 2 l 1
 1094 444 l 1
 474 444 l 1
EndSplineSet
EndChar

StartChar: B
Encoding: 34 66 34
Width: 1293
VWidth: 2877
Flags: W
HStem: 0 154<333 913.733> 750 152<493 1022.86> 1339 154<587 1100.8>
VStem: 1144 161<363.658 636.705> 1173 164<1033.82 1268.68>
DStem2: 143 0 300.266 0 0.207912 0.978148<190.138 799.727 955.058 1402.05>
LayerCount: 2
Fore
SplineSet
726 154 m 2xf0
 933 154 1144 316 1144 506 c 0
 1144 640 1030 750 853 750 c 2
 461 750 l 1
 333 154 l 1
 726 154 l 2xf0
1173 1155 m 0xe8
 1173 1254 1090 1339 961 1339 c 2
 587 1339 l 1
 493 902 l 1
 869 902 l 2
 1030 908 1173 1025 1173 1155 c 0xe8
1305 538 m 0xf0
 1305 269 1021 0 694 0 c 2
 143 0 l 1
 461 1493 l 1
 998 1493 l 2
 1196 1493 1337 1363 1337 1188 c 0xe8
 1337 1050 1251 922 1130 839 c 1
 1238 777 1305 667 1305 538 c 0xf0
EndSplineSet
EndChar

StartChar: C
Encoding: 35 67 35
Width: 1617
VWidth: 2877
Flags: W
HStem: -13 150<690.446 1143.51> 1350 156<927.081 1379.7>
VStem: 239 162<418.682 835.161>
LayerCount: 2
Fore
SplineSet
1164 1350 m 0
 775 1350 401 1000 401 618 c 0
 401 344 607 137 906 137 c 0
 1215 137 1419 344 1482 408 c 1
 1591 325 l 1
 1377 101 1132 -13 873 -13 c 0
 500 -13 239 244 239 591 c 0
 239 1053 694 1506 1198 1506 c 0
 1585 1506 1728 1249 1771 1168 c 1
 1625 1077 l 1
 1589 1139 1476 1350 1164 1350 c 0
EndSplineSet
EndChar

StartChar: D
Encoding: 36 68 36
Width: 1346
VWidth: 2877
Flags: W
HStem: 0 154<333 749.752> 1339 154<587 988.316>
VStem: 1267 159<651.996 1067.4>
DStem2: 143 0 300.266 0 0.207912 0.978148<190.138 1402.05>
LayerCount: 2
Fore
SplineSet
506 154 m 2
 893 154 1267 483 1267 867 c 0
 1267 1141 1061 1339 759 1339 c 2
 587 1339 l 1
 333 154 l 1
 506 154 l 2
1426 900 m 0
 1426 438 980 0 474 0 c 2
 143 0 l 1
 461 1493 l 1
 790 1493 l 2
 1166 1493 1426 1243 1426 900 c 0
EndSplineSet
EndChar

StartChar: E
Encoding: 37 69 37
Width: 1158
VWidth: 2877
Flags: W
HStem: 0 154<333 1061> 784 154<502 1171> 1339 154<587 1350>
DStem2: 143 0 300.266 0 0.207912 0.978148<190.138 834.439 992.143 1402.05>
LayerCount: 2
Fore
SplineSet
1202 938 m 1
 1171 784 l 1
 468 784 l 1
 333 154 l 1
 1094 154 l 1
 1061 0 l 1
 143 0 l 1
 461 1493 l 1
 1382 1493 l 1
 1350 1339 l 1
 587 1339 l 1
 502 938 l 1
 1202 938 l 1
EndSplineSet
EndChar

StartChar: F
Encoding: 38 70 38
Width: 1158
VWidth: 2877
Flags: W
HStem: 0 21G<143 306.235> 784 154<502 1171> 1339 154<587 1350>
VStem: 143 159<0 159>
DStem2: 143 0 302 0 0.207912 0.978148<33.058 834.439 992.143 1402.05>
LayerCount: 2
Fore
SplineSet
1202 938 m 1
 1171 784 l 1
 468 784 l 1
 302 0 l 1
 143 0 l 1
 461 1493 l 1
 1382 1493 l 1
 1350 1339 l 1
 587 1339 l 1
 502 938 l 1
 1202 938 l 1
EndSplineSet
EndChar

StartChar: G
Encoding: 39 71 39
Width: 1749
VWidth: 2877
Flags: W
HStem: -13 152<689.801 1135.02> 669 155<1016 1632> 1352 154<928.242 1384.57>
VStem: 239 162<420.078 829.807>
LayerCount: 2
Fore
SplineSet
239 591 m 0
 239 1053 694 1506 1198 1506 c 0
 1605 1506 1748 1213 1771 1173 c 1
 1625 1079 l 1
 1591 1141 1478 1352 1164 1352 c 0
 781 1352 401 1010 401 622 c 0
 401 346 604 139 906 139 c 0
 1222 139 1533 372 1632 669 c 1
 983 669 l 1
 1016 824 l 1
 1829 824 l 1
 1813 745 l 2
 1724 325 1303 -13 873 -13 c 0
 500 -13 239 244 239 591 c 0
EndSplineSet
EndChar

StartChar: H
Encoding: 40 72 40
Width: 1393
VWidth: 2877
Flags: W
HStem: 0 21G<143 306.235 1097 1258.26> 784 154<502 1262> 1473 20G<456.74 618 1409.75 1572>
VStem: 143 159<0 159> 461 157<1336 1493> 1097 157<0 157> 1414 158<1335 1493>
DStem2: 143 0 302 0 0.207912 0.978148<33.058 834.439 992.143 1526.49> 1097 0 1254 0 0.207912 0.978148<32.6421 801.173 958.877 1526.28>
LayerCount: 2
Fore
SplineSet
1414 1493 m 1
 1572 1493 l 1
 1254 0 l 1
 1097 0 l 1
 1262 784 l 1
 468 784 l 1
 302 0 l 1
 143 0 l 1
 461 1493 l 1
 618 1493 l 1
 502 938 l 1
 1296 938 l 1
 1414 1493 l 1
EndSplineSet
EndChar

StartChar: I
Encoding: 41 73 41
Width: 440
VWidth: 2877
Flags: W
HStem: 0 21G<143 306.233> 1473 20G<456.74 618>
VStem: 143 159<0 159> 461 157<1336 1493>
DStem2: 143 0 302 0 0.207912 0.978148<33.058 1526.49>
LayerCount: 2
Fore
SplineSet
302 0 m 1
 143 0 l 1
 461 1493 l 1
 618 1493 l 1
 302 0 l 1
EndSplineSet
EndChar

StartChar: J
Encoding: 42 74 42
Width: 1027
VWidth: 2877
Flags: W
HStem: -15 154<404.283 665.566> 1473 20G<1050.72 1204>
VStem: 175 161<210.128 436.471> 1055 149<1344 1493>
DStem2: 733.151 -15 885.151 -15 0.207912 0.978148<268.037 1541.96>
LayerCount: 2
Fore
SplineSet
1055 1493 m 1
 1204 1493 l 1
 974 403 l 2
 927 177 714 -15 491 -15 c 0
 297 -15 175 128 175 312 c 0
 175 356 181 401 192 438 c 1
 349 438 l 1
 344 410 336 376 336 342 c 0
 336 224 416 139 526 139 c 0
 654 139 790 252 822 403 c 2
 1055 1493 l 1
EndSplineSet
EndChar

StartChar: K
Encoding: 43 75 43
Width: 1219
VWidth: 2877
Flags: W
HStem: 0 21G<143 306.227 988.194 1200> 1473 20G<456.74 618 1224.27 1486>
VStem: 143 159<0 159> 461 157<1336 1493> 998 202<0 202> 1251 235<1258 1493>
DStem2: 143 0 302 0 0.207912 0.978148<33.058 773.047 984.88 1526.49> 500 931 593 826 0.801583 0.597883<0 11.7695 183.168 937.999> 730 929 593 826 0.451435 -0.892304<30.0608 949.935>
LayerCount: 2
Fore
SplineSet
461 1493 m 1
 618 1493 l 1
 500 931 l 1
 1251 1493 l 1
 1486 1493 l 1
 730 929 l 1
 1200 0 l 1
 998 0 l 1
 593 826 l 1
 455 724 l 1
 302 0 l 1
 143 0 l 1
 461 1493 l 1
EndSplineSet
EndChar

StartChar: L
Encoding: 44 76 44
Width: 1158
VWidth: 2877
Flags: W
HStem: 0 154<333 1066> 1473 20G<456.74 618>
VStem: 461 157<1336 1493>
DStem2: 143 0 300.266 0 0.207912 0.978148<190.138 1526.49>
LayerCount: 2
Fore
SplineSet
1066 0 m 1
 143 0 l 1
 461 1493 l 1
 618 1493 l 1
 333 154 l 1
 1097 154 l 1
 1066 0 l 1
EndSplineSet
EndChar

StartChar: M
Encoding: 45 77 45
Width: 1758
VWidth: 2880
Flags: W
HStem: 0 21G<25 189.504 867.41 887.329 1576 1737.28> 1486 20G<645.647 659.453 1743.84 1757.72>
VStem: 25 156<0 156> 1576 161<0 976> 1583 175<477.904 976>
DStem2: 25 0 181 0 0.385398 0.92275<60.1221 1120.67> 654 1506 596 976 0.263045 -0.964784<496.079 1167.1> 961 380 873 -15 0.577736 0.816224<0 845.821>
LayerCount: 2
Fore
SplineSet
181 0 m 1xe8
 25 0 l 1
 654 1506 l 1
 961 380 l 1
 1758 1506 l 1xe8
 1737 0 l 1
 1576 0 l 1xf0
 1583 976 l 1
 873 -15 l 1
 596 976 l 1
 181 0 l 1xe8
EndSplineSet
EndChar

StartChar: N
Encoding: 46 78 46
Width: 1671
VWidth: 2877
Flags: W
HStem: 0 21G<143 306.255 1511.76 1533.24> 1488 5G<458.756 480.293 1687.77 1849>
VStem: 143 159<0 159> 1692 157<1336 1493>
DStem2: 139.387 -17 298.387 -17 0.207912 0.978148<50.4377 1203.69> 463 1508 542 1128 0.65405 -0.756451<339.121 1513.65> 1372.23 -17 1529 -17 0.207912 0.978148<388.489 1543.49>
LayerCount: 2
Fore
SplineSet
143 0 m 1
 463 1508 l 1
 1453 363 l 1
 1692 1493 l 1
 1849 1493 l 1
 1529 -17 l 1
 542 1128 l 1
 302 0 l 1
 143 0 l 1
EndSplineSet
EndChar

StartChar: O
Encoding: 47 79 47
Width: 1749
VWidth: 2877
Flags: W
HStem: -13 152<689.801 1141.96> 1352 154<928.242 1379.67>
VStem: 239 162<420.078 829.807> 1668 163<661.808 1071.83>
LayerCount: 2
Fore
SplineSet
1831 900 m 0
 1831 438 1377 -13 873 -13 c 0
 500 -13 239 244 239 591 c 0
 239 1053 694 1506 1198 1506 c 0
 1572 1506 1831 1247 1831 900 c 0
1164 1352 m 0
 781 1352 401 1010 401 622 c 0
 401 346 604 139 906 139 c 0
 1288 139 1668 481 1668 871 c 0
 1668 1147 1461 1352 1164 1352 c 0
EndSplineSet
EndChar

StartChar: P
Encoding: 48 80 48
Width: 1205
VWidth: 2877
Flags: W
HStem: 0 21G<143 306.258> 667 157<477 1024.15> 1339 154<587 1113.64>
VStem: 143 159<0 159> 1186 164<988.385 1265.41>
DStem2: 143 0 302 0 0.207912 0.978148<33.058 715.006 875.436 1402.05>
LayerCount: 2
Fore
SplineSet
1350 1164 m 0
 1350 916 1115 667 844 667 c 2
 444 667 l 1
 302 0 l 1
 143 0 l 1
 461 1493 l 1
 1016 1493 l 2
 1218 1493 1350 1350 1350 1164 c 0
878 824 m 2
 1032 824 1186 972 1186 1135 c 0
 1186 1254 1104 1339 983 1339 c 2
 587 1339 l 1
 477 824 l 1
 878 824 l 2
EndSplineSet
EndChar

StartChar: Q
Encoding: 49 81 49
Width: 1749
VWidth: 2877
Flags: W
HStem: -13 152<689.801 1146.17> 1352 154<928.242 1379.67>
VStem: 239 162<420.078 829.807> 1668 163<651.598 1071.83>
DStem2: 1361 553 1155 553 0.54344 -0.839448<0 190.286 356.037 544.1>
LayerCount: 2
Fore
SplineSet
1164 1352 m 0
 781 1352 401 1010 401 622 c 0
 401 346 604 139 906 139 c 0
 1057 139 1207 192 1332 280 c 1
 1155 553 l 1
 1361 553 l 1
 1464 393 l 1
 1666 604 1668 824 1668 871 c 0
 1668 1147 1461 1352 1164 1352 c 0
1831 900 m 0
 1831 649 1699 423 1542 271 c 1
 1719 0 l 1
 1508 0 l 1
 1406 158 l 1
 1249 51 1063 -13 873 -13 c 0
 500 -13 239 244 239 591 c 0
 239 1053 694 1506 1198 1506 c 0
 1572 1506 1831 1247 1831 900 c 0
EndSplineSet
EndChar

StartChar: R
Encoding: 50 82 50
Width: 1232
VWidth: 2877
Flags: W
HStem: 0 21G<143 306.245 1026.97 1215> 669 155<477 799> 1339 154<587 1113.64>
VStem: 143 159<0 159> 1034 181<0 181> 1186 164<987.609 1265.41>
DStem2: 143 0 302 0 0.207912 0.978148<33.058 716.962 875.436 1402.05> 974 687 799 669 0.331023 -0.943623<0 668.13>
LayerCount: 2
Fore
SplineSet
1350 1164 m 0xf4
 1350 972 1202 756 974 687 c 1
 1215 0 l 1
 1034 0 l 1xf8
 799 669 l 1
 444 669 l 1
 302 0 l 1
 143 0 l 1
 461 1493 l 1
 1016 1493 l 2
 1218 1493 1350 1350 1350 1164 c 0xf4
878 824 m 2
 1032 824 1186 972 1186 1135 c 0xf4
 1186 1254 1104 1339 983 1339 c 2
 587 1339 l 1
 477 824 l 1
 878 824 l 2
EndSplineSet
EndChar

StartChar: S
Encoding: 51 83 51
Width: 1183
VWidth: 2877
Flags: W
HStem: -17 156<464.057 804.479> 1352 156<737.285 1020.66>
VStem: 192 164<254.445 468> 453 160<1013.37 1229.29> 1032 162<351.909 612.843>
LayerCount: 2
Fore
SplineSet
453 1070 m 0
 453 1278 649 1508 916 1508 c 0
 1079 1508 1229 1410 1256 1218 c 2
 1260 1186 l 1
 1102 1135 l 1
 1097 1168 l 2
 1079 1294 985 1352 882 1352 c 0
 712 1352 613 1204 613 1108 c 0
 613 873 1194 906 1194 534 c 0
 1194 248 904 -17 589 -17 c 0
 378 -17 192 105 192 385 c 2
 197 468 l 1
 361 487 l 1
 356 419 l 2
 356 220 477 139 620 139 c 0
 844 139 1032 320 1032 500 c 0
 1032 784 453 737 453 1070 c 0
EndSplineSet
EndChar

StartChar: T
Encoding: 52 84 52
Width: 961
VWidth: 2877
Flags: W
HStem: 0 21G<406 566.242> 1339 154<340 690 846 1226>
VStem: 406 156<0 156>
DStem2: 406 0 562 0 0.207912 0.978148<32.4342 1368.79>
LayerCount: 2
Fore
SplineSet
1260 1493 m 1
 1226 1339 l 1
 846 1339 l 1
 562 0 l 1
 406 0 l 1
 690 1339 l 1
 309 1339 l 1
 340 1493 l 1
 1260 1493 l 1
EndSplineSet
EndChar

StartChar: U
Encoding: 53 85 53
Width: 1393
VWidth: 2877
Flags: W
HStem: -15 154<567.985 909.56> 1473 20G<456.773 618 1409.77 1572>
VStem: 252 160<301.403 704.094> 461 157<1336 1493> 1414 158<1335 1493>
DStem2: 141.592 -15 297.592 -15 0.207912 0.978148<540.76 1541.46> 1094.59 -15 1251.59 -15 0.207912 0.978148<393.397 1541.46>
LayerCount: 2
Fore
SplineSet
461 1493 m 1
 618 1493 l 1
 423 575 l 2
 416 542 412 508 412 479 c 0
 412 280 549 139 732 139 c 0
 942 139 1166 327 1220 575 c 2
 1414 1493 l 1
 1572 1493 l 1
 1377 575 l 2
 1309 252 1008 -15 696 -15 c 0
 427 -15 252 184 252 444 c 0
 252 485 258 530 267 575 c 2
 461 1493 l 1
EndSplineSet
EndChar

StartChar: V
Encoding: 54 86 54
Width: 1340
VWidth: 2877
Flags: W
HStem: -15 21G<674.531 691.719> 1473 20G<342 514.613 1453.18 1638>
VStem: 342 168<1325 1493> 1466 172<1321 1493>
DStem2: 510 1493 342 1493 0.218095 -0.975927<0 1125.77> 763 396 679 -15 0.536622 0.843823<0 1302.92>
LayerCount: 2
Fore
SplineSet
1466 1493 m 1
 1638 1493 l 1
 679 -15 l 1
 342 1493 l 1
 510 1493 l 1
 763 396 l 1
 1466 1493 l 1
EndSplineSet
EndChar

StartChar: W
Encoding: 55 87 55
Width: 2025
VWidth: 2877
Flags: W
HStem: -15 21G<592.605 608.191 1427.21 1442.82> 1473 20G<340 507.526 1322.69 1338.72 2141.02 2322>
VStem: 340 164<1329 1493> 2153 169<1324 1493>
DStem2: 504 1493 340 1493 0.167367 -0.985895<0 1053.99> 687 455 596 -15 0.524097 0.851658<0 775.861> 1335 1508 1233 1030 0.182992 -0.983114<451.264 1071.09> 1531 455 1431 -15 0.508691 0.860949<0 1210.07>
LayerCount: 2
Fore
SplineSet
340 1493 m 1
 504 1493 l 1
 687 455 l 1
 1335 1508 l 1
 1531 455 l 1
 2153 1493 l 1
 2322 1493 l 1
 1431 -15 l 1
 1233 1030 l 1
 596 -15 l 1
 340 1493 l 1
EndSplineSet
EndChar

StartChar: X
Encoding: 56 88 56
Width: 1060
VWidth: 2877
Flags: W
HStem: 0 21G<25 215.684 854.797 1038> 1473 20G<399 583.243 1104.36 1298>
VStem: 25 176<0 176> 399 178<1315 1493> 861 177<0 177> 1119 179<1314 1493>
DStem2: 25 0 201 0 0.592112 0.805856<104.212 888.252 1207.67 1850.91> 577 1493 399 1493 0.295614 -0.955307<0 543.694 848.534 1510.23>
LayerCount: 2
Fore
SplineSet
399 1493 m 1
 577 1493 l 1
 739 974 l 1
 1119 1493 l 1
 1298 1493 l 1
 790 803 l 1
 1038 0 l 1
 861 0 l 1
 665 632 l 1
 201 0 l 1
 25 0 l 1
 613 803 l 1
 399 1493 l 1
EndSplineSet
EndChar

StartChar: Y
Encoding: 57 89 57
Width: 1303
VWidth: 2877
Flags: W
HStem: 0 21G<575 738.281> 1473 20G<340 534.696 1399.87 1602>
VStem: 340 186<1307 1493> 575 159<0 159> 1417 185<1308 1493>
DStem2: 526 1493 340 1493 0.399747 -0.916625<0 752.396> 575 0 734 0 0.207912 0.978148<33.058 654.498> 826 803 871 640 0.650718 0.759319<0 908.505>
LayerCount: 2
Fore
SplineSet
340 1493 m 1
 526 1493 l 1
 826 803 l 1
 1417 1493 l 1
 1602 1493 l 1
 871 640 l 1
 734 0 l 1
 575 0 l 1
 712 640 l 1
 340 1493 l 1
EndSplineSet
EndChar

StartChar: Z
Encoding: 58 90 58
Width: 1250
VWidth: 2877
Flags: W
HStem: 0 154<352 1179> 1339 154<477 1218>
DStem2: 25 0 352 154 0.665229 0.74664<332.512 1793.37>
LayerCount: 2
Fore
SplineSet
477 1493 m 1
 1544 1493 l 1
 352 154 l 1
 1265 154 l 1
 1179 0 l 1
 25 0 l 1
 1218 1339 l 1
 391 1339 l 1
 477 1493 l 1
EndSplineSet
EndChar

StartChar: bracketleft
Encoding: 59 91 59
Width: 480
VWidth: 2982
Flags: W
HStem: -349 161<228 374> 1457 162<577 756>
DStem2: 34 -349 193.778 -349 0.207912 0.978148<197.817 1879.43>
LayerCount: 2
Fore
SplineSet
228 -188 m 1
 408 -188 l 1
 374 -349 l 1
 34 -349 l 1
 453 1619 l 1
 792 1619 l 1
 756 1457 l 1
 577 1457 l 1
 228 -188 l 1
EndSplineSet
EndChar

StartChar: backslash
Encoding: 60 92 60
Width: 1303
VWidth: 2982
Flags: W
HStem: -2 21G<1097.42 1307> 1475 20G<316 525.581>
VStem: 316 199<1296 1495> 1108 199<-2 197>
DStem2: 515 1495 316 1495 0.467644 -0.883917<0 1600.54>
LayerCount: 2
Fore
SplineSet
316 1495 m 1
 515 1495 l 1
 1307 -2 l 1
 1108 -2 l 1
 316 1495 l 1
EndSplineSet
EndChar

StartChar: bracketright
Encoding: 61 93 61
Width: 478
VWidth: 2982
Flags: W
HStem: -349 161<-43 137> 1457 162<340 485>
DStem2: 102.778 -349 265 -349 0.207912 0.978148<164.597 1846>
LayerCount: 2
Fore
SplineSet
485 1457 m 1
 307 1457 l 1
 340 1619 l 1
 681 1619 l 1
 265 -349 l 1
 -77 -349 l 1
 -43 -188 l 1
 137 -188 l 1
 485 1457 l 1
EndSplineSet
EndChar

StartChar: asciicircum
Encoding: 62 94 62
Width: 1239
VWidth: 2982
Flags: W
HStem: 1475 20G<855.191 1021.08>
VStem: 226 186<679 865> 1117 186<679 865>
DStem2: 226 679 412 679 0.620112 0.784513<115.341 898.571> 1014 1495 897 1294 0.333847 -0.942627<150.408 803.57>
LayerCount: 2
Fore
SplineSet
871 1495 m 1
 1014 1495 l 1
 1303 679 l 1
 1117 679 l 1
 897 1294 l 1
 412 679 l 1
 226 679 l 1
 871 1495 l 1
EndSplineSet
EndChar

StartChar: underscore
Encoding: 63 95 63
Width: 1042
VWidth: 2982
Flags: W
HStem: -158 160<0 1012>
LayerCount: 2
Fore
SplineSet
1045 2 m 1
 1012 -158 l 1
 -34 -158 l 1
 0 2 l 1
 1045 2 l 1
EndSplineSet
EndChar

StartChar: quoteleft
Encoding: 299 8216 64
Width: 476
VWidth: 2982
Flags: W
VStem: 363 259<1104.46 1277.99>
LayerCount: 2
Fore
SplineSet
622 1202 m 0
 622 1132 555 1059 477 1059 c 0
 419 1059 363 1094 363 1173 c 0
 363 1226 385 1359 575 1508 c 1
 577 1529 l 1
 754 1529 l 1
 662 1464 l 2
 609 1429 551 1354 521 1298 c 1
 526 1298 l 2
 573 1298 622 1260 622 1202 c 0
EndSplineSet
EndChar

StartChar: a
Encoding: 65 97 65
Width: 1094
VWidth: 2822
Flags: W
HStem: -17 151<351.354 644.761> 0 21G<822 998> 481 130<527.503 897> 882 150<563.294 839.901>
VStem: 158 162<167.675 353.06> 814 173<0 138.27> 925 160<611.825 798.328>
LayerCount: 2
Fore
SplineSet
998 0 m 1x7c
 824 0 l 1
 820 20 814 45 814 69 c 0x7c
 814 94 820 121 824 139 c 1
 718 51 585 -17 450 -17 c 0
 237 -17 158 105 158 224 c 0
 158 242 158 260 164 278 c 0
 233 609 696 611 922 611 c 1
 925 624 925 638 925 649 c 0
 925 799 826 882 714 882 c 0
 568 882 468 763 438 732 c 1
 329 812 l 1
 372 861 521 1032 745 1032 c 0
 931 1032 1085 906 1085 685 c 0xba
 1085 651 1081 615 1074 577 c 2
 1006 242 l 2
 994 192 987 137 987 90 c 0
 987 54 991 22 998 0 c 1x7c
897 481 m 1
 714 479 320 459 320 252 c 0
 320 199 361 134 481 134 c 0xb8
 620 134 781 239 869 346 c 1
 897 481 l 1
EndSplineSet
EndChar

StartChar: b
Encoding: 66 98 66
Width: 1219
VWidth: 2835
Flags: W
HStem: -13 150<518.707 823.651> 880 150<671.756 968.074>
VStem: 461 157<1334 1491> 1085 160<406.697 756.269>
DStem2: 142.107 -13 298.375 -13 0.207912 0.978148<930.105 1537.44>
LayerCount: 2
Fore
SplineSet
1245 624 m 0
 1245 312 961 -13 632 -13 c 0
 513 -13 396 58 336 154 c 1
 318 81 299 45 275 0 c 1
 98 0 l 1
 154 74 192 228 208 297 c 2
 461 1491 l 1
 618 1491 l 1
 485 865 l 1
 589 961 737 1030 855 1030 c 0
 1092 1030 1245 850 1245 624 c 0
822 880 m 0
 624 880 401 671 401 423 c 0
 401 255 513 137 665 137 c 0
 861 137 1085 344 1085 593 c 0
 1085 761 974 880 822 880 c 0
EndSplineSet
EndChar

StartChar: c
Encoding: 67 99 67
Width: 1113
VWidth: 2822
Flags: W
HStem: -13 152<470.677 782.697> 875 155<608.324 921.225>
VStem: 195 159<261.028 609.379>
LayerCount: 2
Fore
SplineSet
773 875 m 0
 562 875 354 662 354 425 c 0
 354 258 466 139 615 139 c 0
 803 139 922 295 955 338 c 1
 1077 265 l 1
 1012 184 844 -13 585 -13 c 0
 344 -13 195 164 195 393 c 0
 195 724 497 1030 806 1030 c 0
 1081 1030 1160 808 1179 752 c 1
 1027 675 l 1
 1006 737 951 875 773 875 c 0
EndSplineSet
EndChar

StartChar: d
Encoding: 68 100 68
Width: 1219
VWidth: 2835
Flags: W
HStem: -13 150<470.382 768.311> 880 150<610.48 919.336>
VStem: 195 157<259.808 605.577> 942 175<0 271.253> 1238 157<1334 1491>
DStem2: 917.375 -13 1075.11 -13 0.207912 0.978148<897.615 1537.8>
LayerCount: 2
Fore
SplineSet
195 393 m 0
 195 724 497 1030 806 1030 c 0
 925 1030 1041 961 1104 865 c 1
 1238 1491 l 1
 1395 1491 l 1
 1141 297 l 2
 1128 235 1117 139 1117 72 c 0
 1117 40 1119 15 1124 0 c 1
 947 0 l 1
 944 20 942 40 942 62 c 0
 942 87 944 116 953 154 c 1
 850 58 705 -13 585 -13 c 0
 344 -13 195 164 195 393 c 0
615 137 m 0
 820 137 1036 352 1036 593 c 0
 1036 761 925 880 775 880 c 0
 571 880 352 667 352 423 c 0
 352 255 466 137 615 137 c 0
EndSplineSet
EndChar

StartChar: e
Encoding: 69 101 69
Width: 1183
VWidth: 2822
Flags: W
HStem: -13 152<470.382 795.929> 474 148<408 1041> 878 152<617.426 924.065>
VStem: 195 157<259.881 471.594>
LayerCount: 2
Fore
SplineSet
408 622 m 1
 1041 622 l 1
 1027 775 920 878 777 878 c 0
 636 878 483 775 408 622 c 1
195 393 m 0
 195 724 500 1030 808 1030 c 0
 1047 1030 1202 848 1202 620 c 0
 1202 568 1194 521 1186 474 c 1
 356 474 l 1
 354 457 352 438 352 421 c 0
 352 255 466 139 615 139 c 0
 745 139 878 205 985 338 c 1
 1106 265 l 1
 916 22 687 -13 585 -13 c 0
 344 -13 195 164 195 393 c 0
EndSplineSet
EndChar

StartChar: f
Encoding: 70 102 70
Width: 585
VWidth: 2835
Flags: W
HStem: 0 21G<143 306.251> 861 153<275 327 517 720> 1354 124<701.859 865>
VStem: 143 159<0 159>
DStem2: 143 0 302 0 0.207912 0.978148<33.058 880.441 1069.6 1287.69>
LayerCount: 2
Fore
SplineSet
327 861 m 1
 242 861 l 1
 275 1014 l 1
 361 1014 l 1
 372 1066 l 2
 419 1290 632 1478 855 1478 c 2
 891 1478 l 1
 865 1354 l 1
 831 1354 l 2
 707 1354 562 1220 528 1066 c 2
 517 1014 l 1
 806 1014 l 1
 720 861 l 1
 485 861 l 1
 302 0 l 1
 143 0 l 1
 327 861 l 1
EndSplineSet
EndChar

StartChar: g
Encoding: 71 103 71
Width: 1215
VWidth: 2804
Flags: W
HStem: -491 151<368.22 674.449> -15 149<467.043 768.777> 878 149<609.123 911.325>
VStem: 192 154<257.311 604.21>
DStem2: 815.833 -491 973.833 -491 0.207912 0.978148<342.367 655.095>
LayerCount: 2
Fore
SplineSet
192 389 m 0
 192 696 474 1027 806 1027 c 0
 927 1027 1041 953 1104 857 c 1
 1119 933 1137 969 1162 1014 c 1
 1339 1014 l 1
 1283 938 1245 784 1231 714 c 2
 1085 32 l 2
 1025 -248 756 -491 479 -491 c 0
 312 -491 226 -410 161 -333 c 1
 299 -228 l 1
 340 -278 396 -340 515 -340 c 0
 690 -340 882 -179 927 32 c 2
 951 150 l 1
 848 51 703 -15 585 -15 c 0
 344 -15 192 164 192 389 c 0
609 134 m 0
 812 134 1032 346 1032 591 c 0
 1032 759 918 878 767 878 c 0
 564 878 346 662 346 421 c 0
 346 252 459 134 609 134 c 0
EndSplineSet
EndChar

StartChar: h
Encoding: 72 104 72
Width: 1078
VWidth: 2835
Flags: W
HStem: 0 21G<143 306.252 781 942.258> 880 150<670.064 887.292> 1473 20G<456.74 618>
VStem: 143 159<0 159> 461 157<1336 1493> 781 157<0 157> 922 161<558.701 843.633>
DStem2: 143 0 302 0 0.207912 0.978148<33.058 714.855 888.568 1526.49> 781 0 938 0 0.207912 0.978148<32.6421 724.334>
LayerCount: 2
Fore
SplineSet
143 0 m 1xfa
 461 1493 l 1
 618 1493 l 1
 479 837 l 1
 579 942 709 1030 822 1030 c 0
 1008 1030 1083 904 1083 745 c 0xfa
 1083 705 1079 662 1070 620 c 2
 938 0 l 1
 781 0 l 1xfc
 914 620 l 2
 920 649 922 681 922 712 c 0
 922 799 893 880 786 880 c 0
 647 880 436 634 410 508 c 2
 302 0 l 1
 143 0 l 1xfa
EndSplineSet
EndChar

StartChar: i
Encoding: 73 105 73
Width: 436
VWidth: 2830
Flags: W
HStem: 0 21G<141 303.26> 1128 217<404.523 560.875>
VStem: 141 158<0 158> 359 156<858 1014> 367 233<1166.6 1307.06>
DStem2: 141 0 299 0 0.207912 0.978148<32.85 1037.17>
LayerCount: 2
Fore
SplineSet
367 1213 m 0xe8
 367 1288 440 1345 506 1345 c 0
 562 1345 600 1307 600 1258 c 0
 600 1200 542 1128 461 1128 c 0
 408 1128 367 1164 367 1213 c 0xe8
299 0 m 1
 141 0 l 1
 359 1014 l 1
 515 1014 l 1xf0
 299 0 l 1
EndSplineSet
EndChar

StartChar: j
Encoding: 74 106 74
Width: 436
VWidth: 2822
Flags: W
HStem: -291 137<-83 61.6859> 996 20G<354.735 517> 1126 217<402.807 557.769>
VStem: 359 158<858 1016> 365 233<1166.5 1304.72>
DStem2: 80.494 -291 239.494 -291 0.207912 0.978148<194.946 1336.34>
LayerCount: 2
Fore
SplineSet
359 1016 m 1xf0
 517 1016 l 1
 309 36 l 2
 271 -139 103 -291 -77 -291 c 2
 -111 -291 l 1
 -83 -154 l 1
 -47 -154 l 2
 32 -154 128 -74 150 36 c 2
 359 1016 l 1xf0
365 1215 m 0xe8
 365 1273 425 1343 506 1343 c 0
 560 1343 598 1307 598 1258 c 0
 598 1184 524 1126 459 1126 c 0
 403 1126 365 1164 365 1215 c 0xe8
EndSplineSet
EndChar

StartChar: k
Encoding: 75 107 75
Width: 1021
VWidth: 2835
Flags: W
HStem: 0 21G<143 306.195 804.267 1023> 996 20G<884.669 1147> 1473 20G<456.74 618>
VStem: 143 159<0 159> 461 157<1336 1493> 818 205<0 205> 912 235<781 1016>
DStem2: 143 0 302 0 0.207912 0.978148<33.058 515.327 723.247 1526.49> 446 675 602 615 0.807986 0.589202<90.6937 577.439> 602 615 463 517 0.564876 -0.825176<2.3494 629.496>
LayerCount: 2
Fore
SplineSet
302 0 m 1xfc
 143 0 l 1
 461 1493 l 1
 618 1493 l 1
 446 675 l 1
 912 1016 l 1
 1147 1016 l 1xfa
 602 615 l 1
 1023 0 l 1
 818 0 l 1
 463 517 l 1
 401 472 l 1
 302 0 l 1xfc
EndSplineSet
EndChar

StartChar: l
Encoding: 76 108 76
Width: 440
VWidth: 2835
Flags: W
HStem: 0 21G<143 306.233> 1473 20G<456.74 618>
VStem: 143 159<0 159> 461 157<1336 1493>
DStem2: 143 0 302 0 0.207912 0.978148<33.058 1526.49>
LayerCount: 2
Fore
SplineSet
302 0 m 1
 143 0 l 1
 461 1493 l 1
 618 1493 l 1
 302 0 l 1
EndSplineSet
EndChar

StartChar: m
Encoding: 77 109 77
Width: 1591
VWidth: 2822
Flags: W
HStem: 880 147<658.887 833.996 1228.18 1406.4>
VStem: 143 159<0 159> 322 173<723.739 1016> 718 157<0 157> 1294 156<0 156> 1437 161<480.469 851.64>
DStem2: 143 0 302 0 0.207912 0.978148<33.058 722.259> 718 0 875 0 0.207912 0.978148<32.6421 713.971> 1294 0 1450 0 0.207912 0.978148<32.4342 736.212>
LayerCount: 2
Fore
SplineSet
474 818 m 1xf4
 491 882 495 916 495 949 c 0
 495 969 495 989 491 1016 c 1
 316 1016 l 1
 320 1000 322 978 322 949 c 0
 322 880 312 781 297 716 c 2
 143 0 l 1
 302 0 l 1
 410 508 l 2
 440 651 645 880 750 880 c 0
 835 880 861 808 861 728 c 0
 861 692 855 654 848 620 c 2
 718 0 l 1
 875 0 l 1
 983 506 l 2
 1012 638 1211 875 1325 875 c 0
 1410 875 1437 803 1437 724 c 0xf4
 1437 687 1431 649 1424 615 c 2
 1294 0 l 1
 1450 0 l 1xf8
 1583 615 l 2
 1591 660 1598 707 1598 750 c 0
 1598 902 1533 1027 1359 1027 c 0
 1254 1027 1126 933 1032 818 c 1
 1016 938 947 1027 799 1027 c 0
 692 1027 560 931 474 818 c 1xf4
EndSplineSet
EndChar

StartChar: n
Encoding: 78 110 78
Width: 1078
VWidth: 2822
Flags: W
HStem: 0 21G<141 303.291 779 942.258> 880 150<676.936 887.292>
VStem: 141 158<0 158> 320 173<724.693 1016> 779 159<0 159> 922 161<558.701 842.679>
DStem2: 141 0 299 0 0.207912 0.978148<32.85 705.353> 779 0 938 0 0.207912 0.978148<33.058 728.572>
LayerCount: 2
Fore
SplineSet
487 1016 m 1xf4
 493 989 493 969 493 947 c 0
 493 916 487 882 474 820 c 1
 566 925 709 1030 820 1030 c 0
 1008 1030 1083 904 1083 743 c 0xf4
 1083 705 1079 662 1070 620 c 2
 938 0 l 1
 779 0 l 1xf8
 912 620 l 2
 918 651 922 683 922 716 c 0
 922 801 891 880 786 880 c 0
 647 880 434 632 408 508 c 2
 299 0 l 1
 141 0 l 1
 295 716 l 2
 309 781 320 882 320 951 c 0
 320 978 318 1003 314 1016 c 1
 487 1016 l 1xf4
EndSplineSet
EndChar

StartChar: o
Encoding: 79 111 79
Width: 1282
VWidth: 2822
Flags: W
HStem: -13 150<498.66 866.337> 878 152<645.912 1004.76>
VStem: 195 161<277.05 605.043> 1151 154<411.553 740.454>
LayerCount: 2
Fore
SplineSet
1305 615 m 0
 1305 297 994 -13 640 -13 c 0
 376 -13 195 166 195 406 c 0
 195 714 506 1030 861 1030 c 0
 1124 1030 1305 853 1305 615 c 0
833 878 m 0
 600 878 356 675 356 432 c 0
 356 262 485 137 673 137 c 0
 912 137 1151 342 1151 585 c 0
 1151 752 1021 878 833 878 c 0
EndSplineSet
EndChar

StartChar: p
Encoding: 80 112 80
Width: 1219
VWidth: 2806
Flags: W
HStem: -448 21G<49 209.267> -13 150<518.654 823.264> 880 150<678.786 968.074>
VStem: 49 156<-448 -292> 322 173<753.019 1016> 1085 160<406.697 756.85>
DStem2: 49 -448 205 -448 0.207912 0.978148<32.4342 645.935>
LayerCount: 2
Fore
SplineSet
1245 624 m 0
 1245 312 959 -13 632 -13 c 0
 513 -13 396 54 333 152 c 1
 205 -448 l 1
 49 -448 l 1
 295 718 l 2
 309 784 322 882 322 951 c 0
 322 978 320 1003 316 1016 c 1
 491 1016 l 1
 493 996 495 976 495 953 c 0
 495 929 493 900 485 859 c 1
 589 955 734 1030 855 1030 c 0
 1092 1030 1245 853 1245 624 c 0
822 880 m 0
 624 880 401 671 401 423 c 0
 401 255 513 137 665 137 c 0
 861 137 1085 344 1085 593 c 0
 1085 761 974 880 822 880 c 0
EndSplineSet
EndChar

StartChar: q
Encoding: 81 113 81
Width: 1219
VWidth: 2806
Flags: W
HStem: -419 21G<831 993.257> -13 150<470.677 767.562> 880 150<614.036 919.78>
VStem: 195 159<260.195 607.973> 831 158<-419 -261>
DStem2: 831 -419 989 -419 0.207912 0.978148<32.85 583.888>
LayerCount: 2
Fore
SplineSet
195 393 m 0
 195 703 479 1030 806 1030 c 0
 927 1030 1041 955 1104 859 c 1
 1119 936 1139 972 1164 1016 c 1
 1339 1016 l 1
 1285 940 1245 788 1231 718 c 2
 989 -419 l 1
 831 -419 l 1
 953 152 l 1
 848 54 703 -13 585 -13 c 0
 344 -13 195 166 195 393 c 0
615 137 m 0
 820 137 1036 352 1036 593 c 0
 1036 761 925 880 775 880 c 0
 571 880 354 665 354 423 c 0
 354 255 466 137 615 137 c 0
EndSplineSet
EndChar

StartChar: r
Encoding: 82 114 82
Width: 737
VWidth: 2822
Flags: W
HStem: 0 21G<143 303.338> 895 139<690.992 780.533> 996 20G<314 492>
VStem: 143 156<0 156> 320 175<752.207 1016>
DStem2: 143 0 299 0 0.207912 0.978148<32.4342 751.918>
LayerCount: 2
Fore
SplineSet
483 865 m 1xb8
 575 949 669 1003 763 1034 c 1
 933 895 l 1xd8
 517 895 427 593 412 521 c 2
 299 0 l 1
 143 0 l 1
 295 716 l 2
 309 779 320 875 320 944 c 0
 320 976 318 1000 314 1016 c 1
 491 1016 l 1
 493 996 495 976 495 953 c 0
 495 929 493 902 483 865 c 1xb8
EndSplineSet
EndChar

StartChar: s
Encoding: 83 115 83
Width: 906
VWidth: 2822
Flags: W
HStem: -17 151<366.928 624.377> 882 150<538.484 737.149>
VStem: 164 165<175.761 333> 333 167<685.718 842.577> 720 162<227.124 419.834>
LayerCount: 2
Fore
SplineSet
333 716 m 0
 333 878 483 1032 673 1032 c 0
 771 1032 900 985 922 826 c 2
 927 795 l 1
 767 743 l 1
 763 777 l 2
 752 850 701 882 645 882 c 0
 551 882 500 806 500 754 c 0
 500 620 882 628 882 374 c 0
 882 171 679 -17 448 -17 c 0
 299 -17 164 72 164 267 c 0
 164 289 171 333 171 333 c 1
 331 352 l 1
 331 352 329 318 329 295 c 0
 329 177 401 134 481 134 c 0
 628 134 720 252 720 336 c 0
 720 510 333 483 333 716 c 0
EndSplineSet
EndChar

StartChar: t
Encoding: 84 116 84
Width: 585
VWidth: 2826
Flags: W
HStem: 2 21G<143 306.241> 865 149<271 327 517 720>
VStem: 143 159<2 161> 408 156<1082 1238>
DStem2: 143 2 302 2 0.207912 0.978148<33.058 882.397 1067.64 1264.09>
LayerCount: 2
Fore
SplineSet
302 2 m 1
 143 2 l 1
 327 865 l 1
 239 865 l 1
 271 1014 l 1
 361 1014 l 1
 408 1238 l 1
 564 1238 l 1
 517 1014 l 1
 806 1014 l 1
 720 865 l 1
 485 865 l 1
 302 2 l 1
EndSplineSet
EndChar

StartChar: u
Encoding: 85 117 85
Width: 1071
VWidth: 2817
Flags: W
HStem: -15 152<442.196 706.382>
VStem: 218 160<201.351 560.156> 359 158<856 1014> 991 158<856 1014>
DStem2: 140.639 -15 297.639 -15 0.207912 0.978148<390.708 1051.91> 771.639 -15 928.639 -15 0.207912 0.978148<254.664 1052.12>
LayerCount: 2
Fore
SplineSet
359 1014 m 1xb0
 517 1014 l 1xb0
 385 396 l 2
 380 374 378 354 378 333 c 0
 378 218 455 137 564 137 c 0
 692 137 828 246 859 396 c 2
 991 1014 l 1
 1149 1014 l 1
 1016 396 l 2
 969 173 759 -15 534 -15 c 0
 342 -15 218 124 218 305 c 0xd0
 218 333 222 365 228 396 c 2
 359 1014 l 1xb0
EndSplineSet
EndChar

StartChar: v
Encoding: 86 118 86
Width: 1008
VWidth: 2817
Flags: W
HStem: -15 21G<500.821 519.54> 996 20G<239 415.514 1018.14 1204>
VStem: 239 171<845 1016> 1032 172<844 1016>
DStem2: 410 1016 239 1016 0.250701 -0.968064<0 665.872> 587 374 506 -15 0.560617 0.828075<0 781.099>
LayerCount: 2
Fore
SplineSet
239 1016 m 1
 410 1016 l 1
 587 374 l 1
 1032 1016 l 1
 1204 1016 l 1
 506 -15 l 1
 239 1016 l 1
EndSplineSet
EndChar

StartChar: w
Encoding: 87 119 87
Width: 1649
VWidth: 2822
Flags: W
HStem: -15 21G<486.112 505.146 1156.21 1175.25> 996 20G<239 417.293 1035.4 1056.11 1660.47 1845>
VStem: 239 173<843 1016> 1674 171<845 1016>
DStem2: 412 1016 239 1016 0.237433 -0.971404<0 652.607> 579 385 491 -15 0.577445 0.81643<0 446.934> 1050 1030 967 658 0.278301 -0.960494<334.205 674.344> 1247 385 1162 -15 0.552272 0.833664<0 761.862>
LayerCount: 2
Fore
SplineSet
239 1016 m 1
 412 1016 l 1
 579 385 l 1
 1050 1030 l 1
 1247 385 l 1
 1674 1016 l 1
 1845 1016 l 1
 1162 -15 l 1
 967 658 l 1
 491 -15 l 1
 239 1016 l 1
EndSplineSet
EndChar

StartChar: x
Encoding: 88 120 88
Width: 995
VWidth: 2822
Flags: W
HStem: 0 21G<25 229.66 778.025 976> 996 20G<280 471.143 944.375 1151>
VStem: 25 186<0 186> 280 181<835 1016> 788 188<0 188> 963 188<828 1016>
DStem2: 25 0 211 0 0.67912 0.734027<126.316 677.478 905.897 1382.79> 461 1016 280 1016 0.452123 -0.891956<0 391.318 603.736 1054.07>
LayerCount: 2
Fore
SplineSet
280 1016 m 1xf8
 461 1016 l 1
 638 667 l 1
 963 1016 l 1
 1151 1016 l 1xf4
 705 534 l 1
 976 0 l 1
 788 0 l 1
 587 403 l 1
 211 0 l 1
 25 0 l 1
 521 534 l 1
 280 1016 l 1xf8
EndSplineSet
EndChar

StartChar: y
Encoding: 89 121 89
Width: 1006
VWidth: 2804
Flags: W
HStem: -487 21G<116 296.216> 996 20G<239 409.887 1021.72 1202>
VStem: 116 168<-487 -319> 239 167<849 1016> 1034 168<848 1016>
DStem2: 116 -487 284 -487 0.521243 0.853408<87.5689 608.674 849.443 1761.17> 406 1016 239 1016 0.19439 -0.980924<0 791.531>
LayerCount: 2
Fore
SplineSet
239 1016 m 1xd8
 406 1016 l 1xd8
 557 239 l 1
 1034 1016 l 1
 1202 1016 l 1
 284 -487 l 1
 116 -487 l 1xe8
 434 32 l 1
 239 1016 l 1xd8
EndSplineSet
EndChar

StartChar: z
Encoding: 90 122 90
Width: 980
VWidth: 2822
Flags: W
HStem: 0 150<359 886> 865 151<403 846>
DStem2: 25 0 359 150 0.688419 0.725313<338.729 1192.59>
LayerCount: 2
Fore
SplineSet
403 1016 m 1
 1175 1016 l 1
 359 150 l 1
 972 150 l 1
 886 0 l 1
 25 0 l 1
 846 865 l 1
 318 865 l 1
 403 1016 l 1
EndSplineSet
EndChar

StartChar: braceleft
Encoding: 91 123 91
Width: 610
VWidth: 2982
Flags: W
HStem: -346 131<406.562 483> 1471 131<747.318 871>
VStem: 222 163<-201.025 177.859> 312 165<196.422 531.412>
DStem2: 156.229 -346 318.229 -346 0.207912 0.978148<308.518 781.609 1114.76 1848.18>
LayerCount: 2
Fore
SplineSet
244 685 m 1xd0
 354 748 396 781 427 925 c 2
 491 1224 l 2
 557 1542 750 1602 865 1602 c 2
 900 1602 l 1
 871 1471 l 1
 835 1471 l 2
 730 1471 673 1332 651 1224 c 2
 589 929 l 2
 557 779 504 696 425 628 c 1
 457 591 477 542 477 463 c 0xd0
 477 425 472 383 461 331 c 2
 399 34 l 2
 389 -2 385 -43 385 -81 c 0xe0
 385 -154 408 -215 477 -215 c 2xd0
 513 -215 l 1
 483 -346 l 1
 448 -346 l 2
 354 -346 222 -305 222 -103 c 0xe0
 222 -62 226 -17 237 34 c 2
 299 331 l 2
 307 367 312 399 312 421 c 0
 312 504 273 530 220 571 c 1
 244 685 l 1xd0
EndSplineSet
EndChar

StartChar: bar
Encoding: 92 124 92
Width: 444
VWidth: 2982
Flags: W
VStem: 103 162<-186 -24> 500 160<1517 1677>
DStem2: 103 -186 265 -186 0.207912 0.978148<33.6817 1904.83>
LayerCount: 2
Fore
SplineSet
265 -186 m 1
 103 -186 l 1
 500 1677 l 1
 660 1677 l 1
 265 -186 l 1
EndSplineSet
EndChar

StartChar: braceright
Encoding: 93 125 93
Width: 613
VWidth: 2982
Flags: W
HStem: -349 131<7 134.867> 1471 129<393 477.47>
VStem: 403 168<719.543 1061.09> 495 165<1082.08 1457.86>
DStem2: 150.441 -349 310.441 -349 0.207912 0.978148<179.425 909.217 1242.76 1719.14>
LayerCount: 2
Fore
SplineSet
638 568 m 1xd0
 528 506 485 472 455 329 c 2
 391 30 l 2
 325 -284 134 -349 15 -349 c 2
 -20 -349 l 1
 7 -218 l 1
 43 -218 l 2
 150 -218 208 -77 231 30 c 2
 293 329 l 2
 327 487 387 571 457 626 c 1
 423 669 403 720 403 795 c 0xe0
 403 831 408 873 419 925 c 2
 481 1224 l 2
 487 1260 495 1301 495 1337 c 0xd0
 495 1410 472 1471 403 1471 c 2xe0
 367 1471 l 1
 393 1600 l 1
 430 1600 l 2
 528 1600 660 1555 660 1354 c 0xd0
 660 1316 656 1271 645 1220 c 2
 581 922 l 2
 573 884 571 855 571 831 c 0xe0
 571 750 607 724 660 683 c 1
 638 568 l 1xd0
EndSplineSet
EndChar

StartChar: asciitilde
Encoding: 94 126 94
Width: 1080
VWidth: 2982
Flags: W
HStem: 342 166<736.406 963.828> 477 166<331.816 569.263>
VStem: 173 132<352 452.551> 980 133<527.531 634>
LayerCount: 2
Fore
SplineSet
987 634 m 1xb0
 1119 634 l 1
 1113 598 l 2
 1072 416 959 342 844 342 c 0xb0
 681 342 553 477 423 477 c 0
 349 477 322 436 314 387 c 2
 305 352 l 1
 173 352 l 1
 181 387 l 2
 222 577 349 643 459 643 c 0x70
 638 643 754 508 878 508 c 0
 944 508 969 544 980 598 c 2
 987 634 l 1xb0
EndSplineSet
EndChar

StartChar: exclamdown
Encoding: 96 161 95
Width: 570
VWidth: 2982
Flags: W
HStem: 790 240<401.938 555.172>
VStem: 74 193<-544 -351> 359 243<835.703 985.391> 376 130<594 724>
LayerCount: 2
Fore
SplineSet
376 724 m 1xd0
 506 724 l 1
 267 -544 l 1
 74 -544 l 1
 376 724 l 1xd0
359 886 m 0xe0
 359 972 438 1030 506 1030 c 0xd0
 562 1030 602 989 602 936 c 0
 602 850 519 790 455 790 c 0
 399 790 359 831 359 886 c 0xe0
EndSplineSet
EndChar

StartChar: cent
Encoding: 97 162 96
Width: 1143
VWidth: 2982
Flags: W
HStem: -11 154<683 802.569> 873 154<871 932.352>
VStem: 208 159<262.875 605.716> 432 161<-275 -114> 765 162<1128 1290>
DStem2: 432 -275 593 -275 0.207912 0.978148<33.4738 285.257 461.052 1155 1364.82 1600.04>
LayerCount: 2
Fore
SplineSet
593 -275 m 1
 432 -275 l 1
 491 0 l 1
 316 45 208 201 208 391 c 0
 208 656 416 947 707 1016 c 1
 765 1290 l 1
 927 1290 l 1
 871 1027 l 1
 1104 1003 1175 806 1196 752 c 1
 1043 675 l 1
 1023 730 976 848 837 873 c 1
 683 143 l 1
 842 168 940 299 972 338 c 1
 1090 265 l 1
 1032 188 880 11 649 -11 c 1
 593 -275 l 1
671 855 m 1
 526 803 367 636 367 427 c 0
 367 299 430 203 524 161 c 1
 671 855 l 1
EndSplineSet
EndChar

StartChar: sterling
Encoding: 98 163 97
Width: 1177
VWidth: 2982
Flags: W
HStem: 0 154<427 1016> 0 130<152 218.307> 665 153<344 534 707 953> 1359 152<842.955 1114.89>
VStem: 526 155<481.705 665> 553 154<824 1188.32> 1166 128<1155 1201.25>
LayerCount: 2
Fore
SplineSet
141 130 m 1x7a
 309 215 461 320 526 620 c 2x7a
 534 665 l 1
 260 665 l 1
 344 818 l 1
 553 818 l 1
 564 942 568 1063 593 1179 c 0
 636 1379 831 1511 1016 1511 c 0
 1147 1511 1296 1448 1296 1202 c 0
 1296 1186 1296 1171 1294 1155 c 1
 1166 1155 l 1
 1164 1168 1184 1359 985 1359 c 0
 882 1359 773 1294 748 1182 c 0
 728 1083 720 955 707 824 c 1x76
 1036 824 l 1
 953 669 l 1
 692 669 l 1
 681 624 l 2
 645 450 571 289 427 154 c 1
 1102 154 l 1
 1016 0 l 1xba
 152 0 l 1
 141 130 l 1x7a
EndSplineSet
EndChar

StartChar: fraction
Encoding: 312 8260 98
Width: 1177
VWidth: 2982
Flags: W
VStem: -74 200<-36 164> 1367 200<1329 1529>
DStem2: -74 -36 126 -36 0.677362 0.73565<135.472 2127.37>
LayerCount: 2
Fore
SplineSet
1367 1529 m 1
 1567 1529 l 1
 126 -36 l 1
 -74 -36 l 1
 1367 1529 l 1
EndSplineSet
EndChar

StartChar: yen
Encoding: 100 165 99
Width: 1293
VWidth: 2982
Flags: W
HStem: 0 21G<571 732.211> 380 162<336 651 842 1149> 615 160<387 649 978 1209> 1473 20G<340 532.58 1390.96 1591>
VStem: 340 184<1309 1493> 571 157<0 157> 1408 183<1310 1493>
DStem2: 524 1493 340 1493 0.395308 -0.918548<0 708.931> 571 0 728 0 0.207912 0.978148<32.6421 388.329 586.5 628.589> 820 803 978 775 0.649307 0.760526<81.2958 906.556>
LayerCount: 2
Fore
SplineSet
1184 542 m 1
 1149 380 l 1
 808 380 l 1
 728 0 l 1
 571 0 l 1
 651 380 l 1
 302 380 l 1
 336 542 l 1
 685 542 l 1
 701 615 l 1
 354 615 l 1
 387 775 l 1
 649 775 l 1
 340 1493 l 1
 524 1493 l 1
 820 803 l 1
 1408 1493 l 1
 1591 1493 l 1
 978 775 l 1
 1243 775 l 1
 1209 615 l 1
 857 615 l 1
 842 542 l 1
 1184 542 l 1
EndSplineSet
EndChar

StartChar: florin
Encoding: 200 402 100
Width: 836
VWidth: 2982
Flags: W
HStem: -161 125<-107 103.146> 745 155<391 495 724 938> 1379 125<988.874 1200>
DStem2: 262 188 412 158 0.385534 0.922693<-175.833 603.77 835.075 1287.87>
LayerCount: 2
Fore
SplineSet
1030 900 m 1
 938 745 l 1
 658 745 l 1
 412 158 l 2
 322 -69 109 -161 -98 -161 c 2
 -134 -161 l 1
 -107 -36 l 1
 -72 -36 l 2
 69 -36 205 43 262 188 c 2
 495 745 l 1
 305 745 l 1
 391 900 l 1
 560 900 l 1
 679 1186 l 2
 775 1412 980 1504 1191 1504 c 2
 1226 1504 l 1
 1200 1379 l 1
 1164 1379 l 2
 1023 1379 886 1301 831 1155 c 2
 724 900 l 1
 1030 900 l 1
EndSplineSet
EndChar

StartChar: section
Encoding: 102 167 101
Width: 937
VWidth: 2982
Flags: W
HStem: -132 154<353.839 609.291> 1350 154<623.867 875.885>
VStem: 156 162<60.6627 231> 267 160<622.165 818.89> 361 165<1057.98 1257.36> 707 166<114.135 315.092> 806 161<562.364 754.986> 914 163<1147 1312.35>
LayerCount: 2
Fore
SplineSet
873 271 m 0xc4
 873 72 675 -132 440 -132 c 0
 293 -132 156 -43 156 158 c 0
 156 181 164 231 164 231 c 1
 320 231 l 1
 320 231 318 199 318 177 c 0xe4
 318 58 393 22 470 22 c 0
 622 22 707 143 707 228 c 0
 707 414 267 383 267 665 c 0xd4
 267 756 312 873 416 959 c 1
 372 1008 361 1063 361 1108 c 0
 361 1309 560 1504 792 1504 c 0
 940 1504 1077 1417 1077 1218 c 0
 1077 1196 1070 1147 1070 1147 c 1
 912 1147 l 1
 912 1147 914 1173 914 1196 c 0xc9
 914 1335 810 1350 761 1350 c 0
 622 1350 526 1241 526 1144 c 0
 526 959 967 994 967 714 c 0xca
 967 675 959 534 818 416 c 1
 861 367 873 316 873 271 c 0xc4
696 504 m 1
 790 560 806 643 806 671 c 0
 806 777 665 810 534 873 c 1
 448 822 427 743 427 705 c 0xd2
 427 598 571 566 696 504 c 1
EndSplineSet
EndChar

StartChar: currency
Encoding: 99 164 102
Width: 1301
VWidth: 2982
Flags: W
HStem: 295 164<603.591 917.667> 1068 161<715.754 1028.25>
VStem: 340 166<556.877 861.56> 1128 168<666.33 970.034>
DStem2: 158 316 248 203 0.775409 0.631459<0 290.384 1291.52 1561.33> 504 1305 367 1191 0.617469 -0.786595<5.07857 208.091 1030.81 1252.72>
LayerCount: 2
Fore
SplineSet
340 665 m 0
 340 828 427 961 493 1032 c 1
 367 1191 l 1
 504 1305 l 1
 628 1147 l 1
 716 1198 812 1229 912 1229 c 0
 1014 1229 1102 1196 1164 1139 c 1
 1370 1303 l 1
 1459 1191 l 1
 1262 1025 l 1
 1285 976 1296 922 1296 865 c 0
 1296 701 1211 568 1144 495 c 1
 1278 320 l 1
 1141 205 l 1
 1006 380 l 1
 918 327 818 295 718 295 c 0
 618 295 530 327 466 380 c 1
 248 203 l 1
 158 316 l 1
 376 493 l 1
 352 544 340 602 340 665 c 0
880 1068 m 0
 694 1068 506 897 506 698 c 0
 506 562 604 459 752 459 c 0
 933 459 1128 626 1128 828 c 0
 1128 967 1027 1068 880 1068 c 0
EndSplineSet
EndChar

StartChar: quotesingle
Encoding: 7 39 103
Width: 523
VWidth: 2982
Flags: W
LayerCount: 2
Fore
SplineSet
566 1128 m 1
 438 1128 l 1
 502 1587 l 1
 698 1587 l 1
 566 1128 l 1
EndSplineSet
EndChar

StartChar: quotedblleft
Encoding: 302 8220 104
Width: 737
VWidth: 2982
Flags: W
HStem: 1059 239<521 576.237 784 840.7>
VStem: 363 259<1104.46 1277.99> 624 260<1101.95 1276.29>
LayerCount: 2
Fore
SplineSet
622 1202 m 0
 622 1132 555 1059 477 1059 c 0
 419 1059 363 1094 363 1173 c 0
 363 1226 385 1359 575 1508 c 1
 577 1529 l 1
 754 1529 l 1
 662 1464 l 2
 609 1429 551 1354 521 1298 c 1
 526 1298 l 2
 573 1298 622 1260 622 1202 c 0
884 1198 m 0
 884 1117 803 1057 739 1057 c 0
 683 1057 624 1092 624 1173 c 0
 624 1226 647 1354 837 1506 c 1
 842 1529 l 1
 1019 1529 l 1
 925 1464 l 2
 873 1429 812 1352 784 1296 c 1
 831 1296 884 1258 884 1198 c 0
EndSplineSet
EndChar

StartChar: guillemotleft
Encoding: 106 171 105
Width: 883
VWidth: 2982
Flags: W
VStem: 361 199<114 313> 528 198<704 902> 690 196<114 310> 855 200<702 902>
DStem2: 361 508 161 508 0.452637 -0.891695<0 351.328> 161 508 361 508 0.68159 0.731734<136.318 538.447> 690 508 491 508 0.450835 -0.892607<0 351.687> 491 508 690 508 0.679594 0.733589<135.239 536.406>
LayerCount: 2
Fore
SplineSet
855 902 m 1x10
 1055 902 l 1x10
 690 508 l 1
 886 114 l 1
 690 114 l 1x20
 491 508 l 1
 855 902 l 1x10
528 902 m 1x40
 726 902 l 1x40
 361 508 l 1
 560 114 l 1
 361 114 l 1x80
 161 508 l 1
 528 902 l 1x40
EndSplineSet
EndChar

StartChar: guilsinglleft
Encoding: 310 8249 106
Width: 472
VWidth: 2982
Flags: W
VStem: 297 200<114 314> 466 199<703 902>
DStem2: 297 508 98 508 0.452637 -0.891695<0 351.328> 98 508 297 508 0.682583 0.730808<135.834 539.129>
LayerCount: 2
Fore
SplineSet
466 902 m 1x40
 665 902 l 1x40
 297 508 l 1
 497 114 l 1
 297 114 l 1x80
 98 508 l 1
 466 902 l 1x40
EndSplineSet
EndChar

StartChar: guilsinglright
Encoding: 311 8250 107
Width: 472
VWidth: 2982
Flags: W
VStem: 27 197<114 311> 192 199<703 902>
DStem2: 27 114 224 114 0.68159 0.731734<134.273 536.402> 391 902 192 902 0.452637 -0.891695<0 351.328>
LayerCount: 2
Fore
SplineSet
192 902 m 1x40
 391 902 l 1x40
 591 508 l 1
 224 114 l 1
 27 114 l 1x80
 391 508 l 1
 192 902 l 1x40
EndSplineSet
EndChar

StartChar: endash
Encoding: 297 8211 108
Width: 780
VWidth: 2982
Flags: W
HStem: 427 162<233 765>
LayerCount: 2
Fore
SplineSet
799 589 m 1
 765 427 l 1
 199 427 l 1
 233 589 l 1
 799 589 l 1
EndSplineSet
EndChar

StartChar: dagger
Encoding: 305 8224 109
Width: 1168
VWidth: 2982
Flags: W
HStem: 902 166<333 670.84 893.371 1254>
VStem: 436 162<-322 -160>
DStem2: 436 -322 598 -322 0.207912 0.978148<33.6817 1270.7 1436.23 1892.05>
LayerCount: 2
Fore
SplineSet
598 -322 m 1
 436 -322 l 1
 714 918 l 1
 299 902 l 1
 333 1068 l 1
 741 1053 l 1
 828 1529 l 1
 991 1529 l 1
 875 1053 l 1
 1290 1068 l 1
 1254 902 l 1
 846 918 l 1
 598 -322 l 1
EndSplineSet
EndChar

StartChar: daggerdbl
Encoding: 306 8225 110
Width: 1168
VWidth: 2982
Flags: W
HStem: 226 163<190 568 748.459 1110> 239 135<208.149 568 730 1110> 820 163<316 677.674 857 1235> 835 134<316 696 857 1216.98>
VStem: 434 164<-322 -158>
DStem2: 434 -322 598 -322 0.207912 0.978148<34.0975 576.601 742.333 1186.19 1350.74 1892.47>
LayerCount: 2
Fore
SplineSet
598 -322 m 1x48
 434 -322 l 1
 568 239 l 1x48
 154 226 l 1
 190 389 l 1x88
 600 374 l 1
 696 835 l 1x58
 282 820 l 1
 316 983 l 1x28
 724 969 l 1
 828 1529 l 1
 991 1529 l 1
 857 969 l 1x18
 1271 983 l 1
 1235 820 l 1x28
 828 835 l 1
 730 374 l 1x58
 1147 389 l 1
 1110 226 l 1x88
 703 239 l 1
 598 -322 l 1x48
EndSplineSet
EndChar

StartChar: periodcentered
Encoding: 118 183 111
Width: 570
VWidth: 2982
Flags: W
HStem: 626 241<371.002 521.103>
VStem: 325 241<670.21 819.53>
LayerCount: 2
Fore
SplineSet
325 718 m 0
 325 797 399 867 470 867 c 0
 526 867 566 826 566 771 c 0
 566 694 495 626 421 626 c 0
 363 626 325 667 325 718 c 0
EndSplineSet
EndChar

StartChar: paragraph
Encoding: 117 182 112
Width: 1295
VWidth: 2982
Flags: W
HStem: 1337 154<1179 1283>
VStem: 687 157<-242 -85> 947 157<-242 -85>
DStem2: 687 -242 844 -242 0.207912 0.978148<32.6421 681.74> 947 -242 1104 -242 0.207912 0.978148<32.6421 1614.35>
LayerCount: 2
Fore
SplineSet
307 853 m 0
 307 1144 585 1491 1070 1491 c 2
 1473 1491 l 1
 1104 -242 l 1
 947 -242 l 1
 1283 1337 l 1
 1179 1337 l 1
 844 -242 l 1
 687 -242 l 1
 828 425 l 1
 474 430 307 626 307 853 c 0
EndSplineSet
EndChar

StartChar: bullet
Encoding: 307 8226 113
Width: 989
VWidth: 2982
Flags: W
HStem: 203 788<524.688 720.312>
VStem: 226 793<496.538 697.374>
LayerCount: 2
Fore
SplineSet
226 513 m 0
 226 752 455 991 705 991 c 0
 891 991 1019 857 1019 681 c 0
 1019 444 790 203 540 203 c 0
 354 203 226 336 226 513 c 0
EndSplineSet
EndChar

StartChar: quotesinglbase
Encoding: 301 8218 114
Width: 570
VWidth: 2982
Flags: W
VStem: 179 261<-29.5197 143.54>
LayerCount: 2
Fore
SplineSet
179 45 m 0
 179 130 262 188 327 188 c 0
 387 188 440 148 440 69 c 0
 440 -81 267 -242 211 -271 c 1
 188 -278 l 1
 43 -278 l 1
 134 -215 l 2
 188 -177 244 -107 275 -51 c 1
 220 -49 179 -9 179 45 c 0
EndSplineSet
EndChar

StartChar: quotedblbase
Encoding: 304 8222 115
Width: 839
VWidth: 2982
Flags: W
HStem: -51 239<224.341 275 492.453 544>
VStem: 179 261<-29.5197 143.54> 448 261<-36.4404 143.54>
LayerCount: 2
Fore
SplineSet
448 45 m 0
 448 130 530 188 596 188 c 0
 656 188 709 148 709 69 c 0
 709 -81 534 -242 479 -271 c 1
 457 -278 l 1
 312 -278 l 1
 403 -215 l 2
 457 -177 513 -107 544 -51 c 1
 487 -49 448 -9 448 45 c 0
179 45 m 0
 179 130 262 188 327 188 c 0
 387 188 440 148 440 69 c 0
 440 -81 267 -242 211 -271 c 1
 188 -278 l 1
 43 -278 l 1
 134 -215 l 2
 188 -177 244 -107 275 -51 c 1
 220 -49 179 -9 179 45 c 0
EndSplineSet
EndChar

StartChar: quotedblright
Encoding: 303 8221 116
Width: 739
VWidth: 2982
Flags: W
HStem: 1288 237<449.143 506 716.056 771>
VStem: 403 262<1306.63 1478.13> 669 262<1309.12 1478.31>
LayerCount: 2
Fore
SplineSet
669 1384 m 0
 669 1464 752 1525 818 1525 c 0
 873 1525 931 1489 931 1408 c 0
 931 1258 759 1094 701 1066 c 1
 679 1059 l 1
 530 1059 l 1
 628 1124 l 2
 683 1160 743 1231 771 1288 c 1
 765 1288 l 2
 718 1288 669 1325 669 1384 c 0
403 1386 m 0
 403 1453 474 1525 551 1525 c 0
 607 1525 665 1489 665 1408 c 0
 665 1220 436 1066 436 1066 c 1
 414 1059 l 1
 267 1059 l 1
 363 1124 l 2
 419 1160 477 1231 506 1288 c 1
 502 1288 l 2
 453 1288 403 1325 403 1386 c 0
EndSplineSet
EndChar

StartChar: guillemotright
Encoding: 122 187 117
Width: 883
VWidth: 2982
Flags: W
VStem: 47 199<114 313> 215 199<703 902> 376 199<114 313> 544 199<703 902>
DStem2: 47 114 246 114 0.68159 0.731734<135.636 538.447> 414 902 215 902 0.450835 -0.892607<0 351.687> 376 114 575 114 0.68159 0.731734<135.636 538.447> 743 902 544 902 0.450835 -0.892607<0 351.687>
LayerCount: 2
Fore
SplineSet
215 902 m 1x40
 414 902 l 1x40
 613 508 l 1
 246 114 l 1
 47 114 l 1x80
 414 508 l 1
 215 902 l 1x40
544 902 m 1x10
 743 902 l 1x10
 940 508 l 1
 575 114 l 1
 376 114 l 1x20
 743 508 l 1
 544 902 l 1x10
EndSplineSet
EndChar

StartChar: ellipsis
Encoding: 308 8230 118
Width: 1765
VWidth: 2982
Flags: W
HStem: -51 239<224.341 376.058 822.959 976.058 1419.4 1571.38>
VStem: 179 244<-5.44687 143.54> 779 244<-5.44687 143.54> 1374 243<-3.625 141.465>
LayerCount: 2
Fore
SplineSet
179 45 m 0
 179 130 262 188 327 188 c 0
 383 188 423 148 423 94 c 0
 423 9 340 -51 275 -51 c 0
 220 -51 179 -11 179 45 c 0
1374 43 m 0
 1374 119 1446 188 1520 188 c 0
 1576 188 1617 148 1617 94 c 0
 1617 27 1553 -51 1468 -51 c 0
 1412 -51 1374 -11 1374 43 c 0
779 45 m 0
 779 130 861 188 927 188 c 0
 983 188 1023 148 1023 94 c 0
 1023 9 940 -51 875 -51 c 0
 820 -51 779 -11 779 45 c 0
EndSplineSet
EndChar

StartChar: perthousand
Encoding: 309 8240 119
Width: 2213
VWidth: 2982
Flags: W
HStem: -56 163<1026.96 1246.63 1768.1 1994.21> 438 164<1075.95 1302.88 1824.26 2043.7> 880 165<481.248 709.431> 1372 166<535.524 761.067>
VStem: 69 200<-45 155> 286 164<1078.55 1288.49> 792 163<1126.81 1339.07> 828 163<143.813 353.69> 1335 162<194.195 404.394> 1513 200<1320 1520> 1574 163<139.746 351.051> 2080 163<191.282 400.806>
DStem2: 69 -45 269 -45 0.678124 0.734947<135.625 2129.4>
LayerCount: 2
Fore
SplineSet
1497 342 m 0xfd90
 1497 143 1305 -54 1092 -54 c 0
 936 -54 828 58 828 205 c 0
 828 403 1016 602 1233 602 c 0
 1390 602 1497 493 1497 342 c 0xfd90
1198 438 m 0
 1092 438 991 346 991 239 c 0
 991 166 1047 109 1128 109 c 0
 1243 109 1335 213 1335 312 c 0
 1335 383 1278 438 1198 438 c 0
2243 338 m 0
 2243 143 2055 -56 1837 -56 c 0
 1681 -56 1574 54 1574 201 c 0xfcb0
 1574 403 1766 600 1978 600 c 0
 2136 600 2243 487 2243 338 c 0
1943 436 m 0
 1837 436 1737 342 1737 235 c 0
 1737 164 1793 107 1873 107 c 0
 1976 107 2080 199 2080 307 c 0
 2080 380 2023 436 1943 436 c 0
955 1276 m 0xfe90
 955 1068 754 880 551 880 c 0
 393 880 286 991 286 1139 c 0
 286 1341 479 1538 692 1538 c 0
 848 1538 955 1426 955 1276 c 0xfe90
656 1372 m 0
 560 1372 450 1288 450 1173 c 0
 450 1102 506 1045 587 1045 c 0
 683 1045 792 1130 792 1245 c 0
 792 1316 737 1372 656 1372 c 0
1513 1520 m 1xfcd0
 1713 1520 l 1
 269 -45 l 1
 69 -45 l 1
 1513 1520 l 1xfcd0
EndSplineSet
EndChar

StartChar: questiondown
Encoding: 126 191 120
Width: 1089
VWidth: 2982
Flags: W
HStem: -564 161<304.623 608.14> 790 240<693.942 843.806>
VStem: 72 163<-337.197 -79.1864> 643 160<547 707> 647 244<835.341 983.271> 786 161<-242.695 -116>
DStem2: 373.376 -564 534.376 -564 0.207912 0.978148<938.628 1299.28>
LayerCount: 2
Fore
SplineSet
891 936 m 0xe8
 891 869 828 790 743 790 c 0
 687 790 647 831 647 886 c 0
 647 967 730 1030 795 1030 c 0
 850 1030 891 989 891 936 c 0xe8
643 707 m 1xf0
 803 707 l 1xf0
 765 521 l 2
 681 116 235 49 235 -211 c 0
 235 -329 318 -403 438 -403 c 0
 615 -403 761 -267 786 -152 c 2
 792 -116 l 1
 953 -116 l 1
 947 -152 l 2xe4
 900 -372 654 -564 406 -564 c 0
 201 -564 72 -434 72 -244 c 0
 72 126 534 199 604 521 c 2
 643 707 l 1xf0
EndSplineSet
EndChar

StartChar: grave
Encoding: 64 96 121
Width: 425
VWidth: 2982
Flags: W
HStem: 1194 21G<440.396 587>
LayerCount: 2
Fore
SplineSet
587 1194 m 1
 446 1194 l 1
 344 1558 l 1
 542 1558 l 1
 587 1194 l 1
EndSplineSet
EndChar

StartChar: acute
Encoding: 115 180 122
Width: 630
VWidth: 2982
Flags: W
LayerCount: 2
Fore
SplineSet
748 1587 m 1
 1010 1587 l 1
 573 1157 l 1
 385 1157 l 1
 748 1587 l 1
EndSplineSet
EndChar

StartChar: circumflex
Encoding: 201 710 123
Width: 690
VWidth: 2982
Flags: W
VStem: 293 220<1426 1646>
DStem2: 293 1426 513 1426 0.745448 0.666564<163.998 387.885>
LayerCount: 2
Fore
SplineSet
671 1764 m 1
 771 1764 l 1
 1006 1426 l 1
 786 1426 l 1
 681 1574 l 1
 513 1426 l 1
 293 1426 l 1
 671 1764 l 1
EndSplineSet
EndChar

StartChar: tilde
Encoding: 206 732 124
Width: 648
VWidth: 2982
Flags: W
HStem: 1269 164<681.437 796.281> 1379 159<452.594 572.873>
VStem: 810 121<1439 1525>
LayerCount: 2
Fore
SplineSet
318 1323 m 2x60
 356 1504 461 1538 526 1538 c 0x60
 638 1538 709 1437 763 1433 c 0
 771 1433 792 1444 801 1489 c 2
 810 1525 l 1
 940 1525 l 1
 931 1489 l 2
 897 1325 824 1269 730 1269 c 0xa0
 622 1269 542 1379 493 1379 c 0
 474 1379 459 1363 448 1320 c 2
 438 1288 l 1
 309 1288 l 1
 318 1323 l 2x60
EndSplineSet
EndChar

StartChar: macron
Encoding: 110 175 125
Width: 899
VWidth: 2982
Flags: W
HStem: 1173 162<391 1043>
LayerCount: 2
Fore
SplineSet
1077 1335 m 1
 1043 1173 l 1
 356 1173 l 1
 391 1335 l 1
 1077 1335 l 1
EndSplineSet
EndChar

StartChar: dotaccent
Encoding: 203 729 126
Width: 570
VWidth: 2982
Flags: W
HStem: 1202 240<490.453 644.377>
VStem: 446 244<1247.34 1397.22>
LayerCount: 2
Fore
SplineSet
446 1298 m 0
 446 1384 528 1442 593 1442 c 0
 649 1442 690 1401 690 1348 c 0
 690 1280 626 1202 542 1202 c 0
 485 1202 446 1243 446 1298 c 0
EndSplineSet
EndChar

StartChar: dieresis
Encoding: 103 168 127
Width: 666
VWidth: 2982
Flags: W
HStem: 1173 239<355 504.998 713.002 862.442>
VStem: 309 242<1219.92 1365.19> 667 241<1218.68 1365.19>
LayerCount: 2
Fore
SplineSet
309 1265 m 0
 309 1343 383 1412 455 1412 c 0
 513 1412 551 1372 551 1318 c 0
 551 1243 479 1173 406 1173 c 0
 346 1173 309 1213 309 1265 c 0
667 1265 m 0
 667 1343 741 1412 812 1412 c 0
 871 1412 908 1372 908 1318 c 0
 908 1243 837 1173 763 1173 c 0
 705 1173 667 1213 667 1265 c 0
EndSplineSet
EndChar

StartChar: ring
Encoding: 204 730 128
Width: 570
VWidth: 2982
Flags: W
HStem: 1085 162<483.96 637.266> 1426 161<503.79 656.792>
VStem: 316 163<1253.1 1401.32> 662 164<1272.85 1419.88>
LayerCount: 2
Fore
SplineSet
826 1388 m 0
 826 1243 687 1085 517 1085 c 0
 396 1085 316 1171 316 1285 c 0
 316 1431 455 1587 624 1587 c 0
 745 1587 826 1502 826 1388 c 0
589 1426 m 0
 530 1426 479 1370 479 1318 c 0
 479 1278 510 1247 551 1247 c 0
 598 1247 662 1294 662 1354 c 0
 662 1395 632 1426 589 1426 c 0
EndSplineSet
EndChar

StartChar: cedilla
Encoding: 119 184 129
Width: 624
VWidth: 2982
Flags: W
HStem: -459 160<91.0429 297.925>
VStem: 299 169<-295.647 -197.5>
LayerCount: 2
Fore
SplineSet
468 -220 m 0
 468 -344 361 -457 199 -459 c 0
 143 -459 85 -444 38 -406 c 2
 11 -387 l 1
 128 -250 l 1
 152 -271 l 2
 179 -291 211 -299 237 -299 c 0
 269 -299 299 -289 299 -267 c 0
 299 -255 280 -242 233 -233 c 2
 116 -218 l 1
 297 11 l 1
 463 11 l 1
 380 -96 l 1
 450 -124 468 -175 468 -220 c 0
EndSplineSet
EndChar

StartChar: hungarumlaut
Encoding: 207 733 130
Width: 1017
VWidth: 2982
Flags: W
LayerCount: 2
Fore
SplineSet
748 1587 m 1
 1010 1587 l 1
 573 1157 l 1
 385 1157 l 1
 748 1587 l 1
1135 1587 m 1
 1397 1587 l 1
 963 1157 l 1
 773 1157 l 1
 1135 1587 l 1
EndSplineSet
EndChar

StartChar: ogonek
Encoding: 205 731 131
Width: 603
VWidth: 2982
Flags: W
HStem: -427 147<174.015 380.095>
VStem: 54 168<-273.237 -138.845>
LayerCount: 2
Fore
SplineSet
54 -271 m 0
 54 -148 173 -36 255 36 c 1
 450 36 l 1
 378 -25 l 2
 255 -130 222 -199 222 -235 c 0
 222 -271 262 -280 284 -280 c 0
 299 -280 320 -273 340 -262 c 2
 372 -239 l 1
 440 -352 l 1
 403 -374 l 2
 342 -410 280 -427 226 -427 c 0
 126 -427 54 -367 54 -271 c 0
EndSplineSet
EndChar

StartChar: caron
Encoding: 202 711 132
Width: 690
VWidth: 2982
Flags: W
VStem: 857 220<1544 1764>
DStem2: 690 1617 698 1426 0.746322 0.665585<0 222.477>
LayerCount: 2
Fore
SplineSet
698 1426 m 1
 600 1426 l 1
 365 1764 l 1
 585 1764 l 1
 690 1617 l 1
 857 1764 l 1
 1077 1764 l 1
 698 1426 l 1
EndSplineSet
EndChar

StartChar: emdash
Encoding: 298 8212 133
Width: 1376
VWidth: 2982
Flags: W
HStem: 427 162<233 1363>
LayerCount: 2
Fore
SplineSet
1397 589 m 1
 1363 427 l 1
 199 427 l 1
 233 589 l 1
 1397 589 l 1
EndSplineSet
EndChar

StartChar: AE
Encoding: 133 198 134
Width: 1662
VWidth: 2982
Flags: W
HStem: 0 152<1130 1553> 440 156<575 974> 784 154<1149 1638> 1339 154<1157 1815>
VStem: 25 167<0 167> 965 165<152 440> 980 164<596 784> 996 153<938 1258>
DStem2: 25 0 192 0 0.537241 0.843429<89.7192 612.33 798.166 1582.69>
LayerCount: 2
Fore
SplineSet
1670 938 m 1xf9
 1638 784 l 1
 1144 784 l 1xfa
 1130 152 l 1
 1587 152 l 1
 1553 0 l 1
 965 0 l 1xfc
 974 440 l 1
 474 440 l 1
 192 0 l 1
 25 0 l 1
 976 1493 l 1
 1847 1493 l 1
 1815 1339 l 1
 1157 1339 l 1
 1149 938 l 1
 1670 938 l 1xf9
575 596 m 1
 980 596 l 1xfa
 996 1258 l 1xf9
 575 596 l 1
EndSplineSet
EndChar

StartChar: ordfeminine
Encoding: 105 170 135
Width: 836
VWidth: 2982
Flags: W
HStem: 585 149<423.861 657.479> 996 134<466.467 801.462> 1254 145<530.345 779.108>
VStem: 250 156<752.715 941.449> 754 160<611 696.834> 824 159<1108.67 1206.4>
LayerCount: 2
Fore
SplineSet
636 996 m 0xf0
 440 996 406 897 406 833 c 0
 406 767 457 734 528 734 c 0
 662 734 777 880 797 940 c 2
 803 974 l 1
 756 987 696 996 636 996 c 0xf0
250 799 m 0
 250 947 361 1130 656 1130 c 0
 716 1130 773 1124 824 1108 c 1
 818 1200 754 1254 660 1254 c 0
 553 1254 483 1179 457 1147 c 1
 340 1186 l 1
 383 1238 508 1399 698 1399 c 0
 861 1399 983 1296 983 1124 c 0xf4
 983 1094 978 1066 972 1032 c 2
 927 822 l 2
 916 765 914 698 914 656 c 2
 914 611 l 1
 756 577 l 1
 754 600 754 618 754 640 c 0xf8
 754 656 754 673 756 698 c 1
 687 636 598 585 497 585 c 0
 352 585 250 669 250 799 c 0
EndSplineSet
EndChar

StartChar: Lslash
Encoding: 191 321 136
Width: 1158
VWidth: 2877
Flags: W
HStem: 0 154<333 1066> 1473 20G<456.769 618>
VStem: 461 157<1336 1493>
DStem2: 107 504 231 414 0.800363 0.599515<0 45.2886 447.401 822.489> 143 0 300.266 0 0.207912 0.978148<190.138 423.249 821.307 1526.49>
LayerCount: 2
Fore
SplineSet
1066 0 m 1
 143 0 l 1
 231 414 l 1
 60 286 l 1
 107 504 l 1
 278 628 l 1
 461 1493 l 1
 618 1493 l 1
 466 771 l 1
 897 1094 l 1
 853 880 l 1
 419 555 l 1
 333 154 l 1
 1097 154 l 1
 1066 0 l 1
EndSplineSet
EndChar

StartChar: Oslash
Encoding: 151 216 137
Width: 1749
VWidth: 2877
Flags: W
HStem: -13 152<684.766 1142.35> 1352 154<928.823 1391.46>
VStem: 239 162<415.186 830.178> 1668 163<662.558 1077.81>
DStem2: 224 -77 340 -164 0.655974 0.754784<10.4268 306.955 488.879 1818.89 1999.97 2293.12>
LayerCount: 2
Fore
SplineSet
1831 902 m 0
 1831 436 1377 -13 873 -13 c 0
 748 -13 634 15 540 67 c 1
 340 -164 l 1
 224 -77 l 1
 423 152 l 1
 309 260 239 414 239 591 c 0
 239 1053 694 1506 1198 1506 c 0
 1323 1506 1435 1478 1529 1426 c 1
 1728 1654 l 1
 1847 1570 l 1
 1647 1341 l 1
 1762 1231 1831 1079 1831 902 c 0
906 139 m 0
 1290 139 1668 481 1668 873 c 0
 1668 1008 1619 1124 1533 1209 c 1
 654 197 l 1
 726 161 810 139 906 139 c 0
1164 1352 m 0
 784 1352 401 1012 401 622 c 0
 401 487 450 369 534 282 c 1
 1417 1296 l 1
 1343 1332 1258 1352 1164 1352 c 0
EndSplineSet
EndChar

StartChar: OE
Encoding: 193 338 138
Width: 1998
VWidth: 2982
Flags: W
HStem: -15 154<705.217 1001.28> 0 152<891.391 996.873 1157 1890> 784 154<1320 1997> 1339 154<1408 2172> 1354 152<946.819 1252.92>
VStem: 255 161<419.036 837.308>
DStem2: 964.416 -15 1121.5 -15 0.207912 0.978148<203.391 849.648 1006.1 1395.38>
LayerCount: 2
Fore
SplineSet
255 589 m 0xa4
 255 1061 716 1506 1211 1506 c 0xac
 1262 1506 1312 1502 1359 1493 c 1
 2202 1493 l 1
 2172 1339 l 1
 1408 1339 l 1
 1320 938 l 1
 2031 938 l 1
 1997 784 l 1
 1292 784 l 1
 1157 152 l 1
 1920 152 l 1
 1890 0 l 1
 1041 0 l 1x74
 991 -9 940 -15 889 -15 c 0
 513 -15 255 244 255 589 c 0xa4
1179 1354 m 0
 790 1354 416 1003 416 620 c 0
 416 346 622 139 920 139 c 0
 947 139 974 141 998 143 c 1
 1254 1350 l 1
 1231 1352 1204 1354 1179 1354 c 0
EndSplineSet
EndChar

StartChar: ordmasculine
Encoding: 121 186 139
Width: 818
VWidth: 2982
Flags: W
HStem: 581 160<452.208 701.98> 1175 160<527.207 778.083>
VStem: 231 165<795.423 1045.92> 835 165<868.53 1120.08>
LayerCount: 2
Fore
SplineSet
1000 1036 m 0
 1000 808 779 581 534 581 c 0
 354 581 231 709 231 878 c 0
 231 1102 446 1335 696 1335 c 0
 875 1335 1000 1207 1000 1036 c 0
662 1175 m 0
 532 1175 396 1055 396 914 c 0
 396 814 468 741 568 741 c 0
 698 741 835 861 835 1003 c 0
 835 1102 763 1175 662 1175 c 0
EndSplineSet
EndChar

StartChar: ae
Encoding: 165 230 140
Width: 1893
VWidth: 2822
Flags: W
HStem: -17 151<351.354 645 1171.83 1481.22> 474 148<499.673 897 1102 1737> 878 152<556.75 851.929 1308.19 1620.46>
VStem: 158 162<167.675 352.769>
LayerCount: 2
Fore
SplineSet
897 481 m 1
 714 479 320 457 320 252 c 0
 320 199 361 134 481 134 c 0
 618 134 781 239 869 346 c 1
 897 481 l 1
1102 622 m 1
 1737 622 l 1
 1724 775 1617 878 1473 878 c 0
 1332 878 1179 775 1102 622 c 1
1055 474 m 1
 1050 461 1047 444 1047 423 c 0
 1047 255 1162 139 1312 139 c 0
 1439 139 1574 205 1681 338 c 1
 1800 265 l 1
 1612 22 1384 -13 1278 -13 c 0
 1104 -13 976 83 920 224 c 1
 795 85 607 -17 450 -17 c 0
 237 -17 158 105 158 224 c 0
 158 242 158 260 164 278 c 0
 233 609 698 622 925 622 c 1
 927 636 927 647 927 658 c 0
 927 808 824 882 714 882 c 0
 568 882 468 763 438 732 c 1
 329 812 l 1
 372 861 521 1032 745 1032 c 0
 891 1032 1016 955 1063 818 c 1
 1179 944 1341 1030 1504 1030 c 0
 1743 1030 1899 848 1899 620 c 0
 1899 568 1890 521 1882 474 c 1
 1055 474 l 1
EndSplineSet
EndChar

StartChar: lslash
Encoding: 192 322 141
Width: 440
VWidth: 2877
Flags: W
HStem: 0 21G<143 306.238> 1473 20G<456.731 618>
VStem: 143 159<0 159> 461 157<1336 1493>
DStem2: 143 0 302 0 0.207912 0.978148<33.058 439.731 838.352 1526.49>
LayerCount: 2
Fore
SplineSet
302 0 m 1
 143 0 l 1
 235 430 l 1
 96 327 l 1
 141 542 l 1
 280 645 l 1
 461 1493 l 1
 618 1493 l 1
 468 788 l 1
 604 889 l 1
 557 673 l 1
 423 571 l 1
 302 0 l 1
EndSplineSet
EndChar

StartChar: oslash
Encoding: 183 248 142
Width: 1282
VWidth: 2822
Flags: W
HStem: -13 150<539.291 862.014> 878 152<645.863 879.132>
VStem: 195 161<277.44 604.306> 1151 154<410.676 737.834>
DStem2: 171 -83 299 -158 0.594661 0.803977<15.8184 248.399 415.2 1191.82 1402.43 1562.23>
LayerCount: 2
Fore
SplineSet
1305 613 m 0
 1305 295 994 -13 640 -13 c 0
 564 -13 497 0 436 27 c 1
 299 -158 l 1
 171 -83 l 1
 314 109 l 1
 239 184 195 286 195 403 c 0
 195 716 508 1030 861 1030 c 0
 904 1030 944 1025 983 1016 c 1
 1100 1173 l 1
 1229 1094 l 1
 1126 955 l 1
 1238 882 1305 759 1305 613 c 0
833 878 m 0
 598 878 356 673 356 432 c 0
 356 363 378 299 419 250 c 1
 880 875 l 1
 865 878 848 878 833 878 c 0
673 137 m 0
 916 137 1151 346 1151 581 c 0
 1151 683 1104 771 1025 822 c 1
 538 161 l 1
 577 145 624 137 673 137 c 0
EndSplineSet
EndChar

StartChar: oe
Encoding: 194 339 143
Width: 2134
VWidth: 2822
Flags: W
HStem: -13 150<498.66 867.336 1409.5 1725.83> 474 148<1343 1978> 878 152<645.912 1008.89 1548.55 1862.21>
VStem: 195 161<277.05 605.043> 1151 989<475.359 734> 1151 139<412.484 474>
LayerCount: 2
Fore
SplineSet
833 878 m 0xf8
 600 878 356 675 356 432 c 0
 356 262 485 137 673 137 c 0
 912 137 1151 342 1151 585 c 0
 1151 752 1021 878 833 878 c 0xf8
195 406 m 0
 195 714 506 1030 861 1030 c 0
 1059 1030 1209 929 1273 779 c 1
 1390 927 1565 1030 1746 1030 c 0
 1986 1030 2140 848 2140 620 c 0xf8
 2140 568 2131 521 2125 474 c 1
 1294 474 l 1
 1292 457 1290 438 1290 421 c 0xf4
 1290 255 1403 139 1553 139 c 0
 1681 139 1815 205 1923 338 c 1
 2044 265 l 1
 1854 22 1625 -13 1520 -13 c 0
 1341 -13 1211 87 1157 235 c 1
 1030 85 837 -13 640 -13 c 0
 376 -13 195 166 195 406 c 0
1343 622 m 1
 1978 622 l 1
 1965 775 1858 878 1715 878 c 0
 1574 878 1421 775 1343 622 c 1
EndSplineSet
EndChar

StartChar: germandbls
Encoding: 158 223 144
Width: 1107
VWidth: 2982
Flags: W
HStem: -15 139<527.365 813.246> 2 21G<143 306.247> 1511 150<734.57 1001.46>
VStem: 143 159<2 161> 726 163<765.531 916.393> 967 163<286.113 528.022> 1061 165<1193.56 1448.97>
DStem2: 139.387 -15 298.387 -15 0.207912 0.978148<50.4377 1453.42>
LayerCount: 2
Fore
SplineSet
1130 448 m 0x7c
 1130 265 944 -15 665 -15 c 0
 557 -15 446 30 346 130 c 1
 483 205 l 1
 540 148 604 124 669 124 c 0
 857 124 967 322 967 421 c 0xbc
 967 571 726 640 726 820 c 0
 726 1057 1061 1079 1061 1325 c 0
 1061 1446 974 1511 871 1511 c 0
 752 1511 602 1417 546 1151 c 2
 302 2 l 1
 143 2 l 1
 387 1149 l 2
 461 1493 698 1661 908 1661 c 0
 1081 1661 1226 1549 1226 1354 c 0x7a
 1226 1030 889 953 889 848 c 0
 889 745 1130 656 1130 448 c 0x7c
EndSplineSet
EndChar

StartChar: logicalnot
Encoding: 107 172 145
Width: 1329
VWidth: 2982
Flags: W
HStem: 786 161<255 1283>
VStem: 1184 161<322 483>
DStem2: 1184 322 1345 322 0.207912 0.978148<33.4738 474.444>
LayerCount: 2
Fore
SplineSet
1478 947 m 1
 1345 322 l 1
 1184 322 l 1
 1283 786 l 1
 222 786 l 1
 255 947 l 1
 1478 947 l 1
EndSplineSet
EndChar

StartChar: trademark
Encoding: 314 8482 146
Width: 1696
VWidth: 2982
Flags: W
HStem: 1647 143<504 681 826 1034>
VStem: 544 148<1010 1158> 871 150<1010 1160> 1668 147<1010 1431>
DStem2: 540.599 994 688.599 994 0.207912 0.978148<47.1284 667.921> 871 1010 1021 1010 0.399189 0.916869<59.8783 515.738> 1401 1276 1196 1431 0.325826 -0.94543<-213.336 0> 1401 1276 1337 994 0.614457 0.788951<0 290.034>
LayerCount: 2
Fore
SplineSet
1066 1790 m 1
 1034 1647 l 1
 826 1647 l 1
 692 1010 l 1
 544 1010 l 1
 681 1647 l 1
 472 1647 l 1
 504 1790 l 1
 1066 1790 l 1
1674 1431 m 1
 1337 994 l 1
 1196 1431 l 1
 1021 1010 l 1
 871 1010 l 1
 1218 1807 l 1
 1401 1276 l 1
 1813 1805 l 1
 1815 1010 l 1
 1668 1010 l 1
 1674 1431 l 1
EndSplineSet
EndChar

StartChar: Eth
Encoding: 143 208 147
Width: 1362
VWidth: 2982
Flags: W
HStem: 0 152<333 739.753> 669 155<173 286 477 878> 1339 154<587 987.712>
VStem: 1267 159<644.918 1067.79>
DStem2: 143 0 300.691 0 0.207912 0.978148<188.182 684.112 875.436 1402.05>
LayerCount: 2
Fore
SplineSet
508 152 m 2
 897 152 1267 487 1267 869 c 0
 1267 1141 1059 1339 759 1339 c 2
 587 1339 l 1
 477 824 l 1
 908 824 l 1
 878 669 l 1
 444 669 l 1
 333 152 l 1
 508 152 l 2
1426 900 m 0
 1426 438 978 0 474 0 c 2
 143 0 l 1
 286 669 l 1
 141 669 l 1
 173 824 l 1
 320 824 l 1
 461 1493 l 1
 792 1493 l 2
 1166 1493 1426 1243 1426 900 c 0
EndSplineSet
EndChar

StartChar: onehalf
Encoding: 124 189 148
Width: 1819
VWidth: 2982
Flags: W
HStem: 0 154<1249 1701> 878 154<1468.85 1677.22> 1473 20G<1600.31 1811>
VStem: 224 192<0 192> 389 157<481 638> 1619 192<1301 1493> 1713 165<616.767 843.748>
DStem2: 224 0 416 0 0.682719 0.730681<131.082 2043.3> 286.76 0 443.76 0 0.207912 0.978148<524.388 1275.1>
LayerCount: 2
Fore
SplineSet
1878 763 m 0xe2
 1878 410 1395 349 1249 154 c 1
 1732 154 l 1
 1701 0 l 1
 1032 0 l 1
 1047 74 l 2
 1121 419 1666 483 1708 687 c 0
 1713 703 1713 718 1713 734 c 0xe2
 1713 820 1654 878 1583 878 c 0
 1500 878 1401 799 1379 687 c 2
 1370 654 l 1
 1215 654 l 1
 1222 687 l 2
 1260 873 1435 1032 1619 1032 c 0xe4
 1777 1032 1878 916 1878 763 c 0xe2
1619 1493 m 1xf4
 1811 1493 l 1
 416 0 l 1
 224 0 l 1
 1619 1493 l 1xf4
553 1247 m 1
 453 1186 l 1
 391 1314 l 1
 773 1540 l 1
 546 481 l 1
 389 481 l 1xe8
 553 1247 l 1
EndSplineSet
LCarets2: 2 0 0 
Ligature2: "'frac' Diagonal Fractions in Latin lookup 42" one fraction two
Ligature2: "'frac' Diagonal Fractions in Latin lookup 42" one slash two
EndChar

StartChar: plusminus
Encoding: 112 177 149
Width: 944
VWidth: 2982
Flags: W
HStem: 0 154<87 893> 640 155<222 530 720 1030>
VStem: 459 156<305 461> 636 156<974 1130>
DStem2: 394.17 0 550.17 0 0.207912 0.978148<344.248 654.255 845.371 1155.59>
LayerCount: 2
Fore
SplineSet
927 154 m 1
 893 0 l 1
 54 0 l 1
 87 154 l 1
 927 154 l 1
615 305 m 1
 459 305 l 1
 530 640 l 1
 190 640 l 1
 222 795 l 1
 564 795 l 1
 636 1130 l 1
 792 1130 l 1
 720 795 l 1
 1061 795 l 1
 1030 640 l 1
 687 640 l 1
 615 305 l 1
EndSplineSet
EndChar

StartChar: Thorn
Encoding: 157 222 150
Width: 1152
VWidth: 2982
Flags: W
HStem: 0 21G<143 306.14> 302 157<401 808.985> 1034 150<551 918.69> 1473 20G<456.74 618>
VStem: 143 159<0 159> 461 157<1336 1493> 1050 161<653.923 925.568>
DStem2: 143 0 302 0 0.207912 0.978148<33.058 356.924 513.371 1093.54 1232.2 1526.49>
LayerCount: 2
Fore
SplineSet
553 459 m 0
 927 459 1050 665 1050 801 c 0
 1050 949 908 1034 675 1034 c 0
 628 1034 575 1030 519 1023 c 1
 401 470 l 1
 455 461 506 459 553 459 c 0
1211 831 m 0
 1211 579 980 302 521 302 c 0
 470 302 419 305 367 314 c 1
 302 0 l 1
 143 0 l 1
 461 1493 l 1
 618 1493 l 1
 551 1173 l 1
 604 1182 658 1184 707 1184 c 0
 1025 1184 1211 1045 1211 831 c 0
EndSplineSet
EndChar

StartChar: onequarter
Encoding: 123 188 151
Width: 1819
VWidth: 2982
Flags: W
HStem: 0 21G<314 524.687 1419 1580.42> 154 158<1218 1453 1638 1708> 1473 20G<1689.33 1901>
VStem: 314 192<0 192> 389 157<481 638> 1419 157<0 157> 1708 193<1300 1493>
DStem2: 286.76 0 443.76 0 0.207912 0.978148<524.388 1275.1> 314 0 506 0 0.682719 0.730681<131.082 2042.62> 869 154 1218 312 0.700012 0.714131<357.137 845.059> 1419 0 1576 0 0.207912 0.978148<32.6421 157.704 350.715 674.893>
LayerCount: 2
Fore
SplineSet
1708 1493 m 1xf6
 1901 1493 l 1
 506 0 l 1
 314 0 l 1
 1708 1493 l 1xf6
1486 312 m 1
 1560 660 l 1
 1218 312 l 1
 1486 312 l 1
553 1247 m 1
 453 1186 l 1
 391 1314 l 1
 773 1540 l 1
 546 481 l 1
 389 481 l 1xee
 553 1247 l 1
1453 154 m 1
 869 154 l 1
 1811 1115 l 1
 1638 312 l 1
 1790 312 l 1
 1708 154 l 1
 1610 154 l 1
 1576 0 l 1
 1419 0 l 1
 1453 154 l 1
EndSplineSet
LCarets2: 2 0 0 
Ligature2: "'frac' Diagonal Fractions in Latin lookup 42" one fraction four
Ligature2: "'frac' Diagonal Fractions in Latin lookup 42" one slash four
EndChar

StartChar: divide
Encoding: 182 247 152
Width: 1078
VWidth: 2982
Flags: W
HStem: 349 240<564.333 717.619> 665 161<284 1115> 904 240<682.579 834.659>
VStem: 517 244<394.006 542.109> 636 244<948.856 1097.9>
LayerCount: 2
Fore
SplineSet
517 444 m 0xf0
 517 515 587 589 665 589 c 0
 720 589 761 549 761 493 c 0
 761 408 681 349 613 349 c 0
 557 349 517 389 517 444 c 0xf0
636 998 m 0xe8
 636 1083 718 1144 784 1144 c 0
 839 1144 880 1104 880 1047 c 0
 880 963 797 904 732 904 c 0
 675 904 636 944 636 998 c 0xe8
1149 826 m 1
 1115 665 l 1
 248 665 l 1
 284 826 l 1
 1149 826 l 1
EndSplineSet
EndChar

StartChar: brokenbar
Encoding: 101 166 153
Width: 373
VWidth: 2982
Flags: W
VStem: -9 161<-544 -383> 179 161<172 333> 252 162<681 843> 438 162<1396 1558>
DStem2: -9 -544 152 -544 0.207912 0.978148<33.4738 896.923 1286.18 2149>
LayerCount: 2
Fore
SplineSet
414 681 m 1xb0
 252 681 l 1
 438 1558 l 1
 600 1558 l 1
 414 681 l 1xb0
152 -544 m 1
 -9 -544 l 1
 179 333 l 1
 340 333 l 1xd0
 152 -544 l 1
EndSplineSet
EndChar

StartChar: degree
Encoding: 111 176 154
Width: 791
VWidth: 2982
Flags: W
HStem: 1175 166<595.499 785.853> 1591 164<632.266 820.656>
VStem: 412 167<1357.51 1540.66> 835 171<1389.66 1574.45>
LayerCount: 2
Fore
SplineSet
1006 1525 m 0
 1006 1354 842 1175 647 1175 c 0
 508 1175 412 1273 412 1406 c 0
 412 1578 579 1755 771 1755 c 0
 908 1755 1006 1657 1006 1525 c 0
734 1591 m 0
 665 1591 579 1527 579 1442 c 0
 579 1382 620 1341 683 1341 c 0
 763 1341 835 1410 835 1495 c 0
 835 1549 797 1591 734 1591 c 0
EndSplineSet
EndChar

StartChar: thorn
Encoding: 189 254 155
Width: 1147
VWidth: 2982
Flags: W
HStem: -497 21G<11 175.205> -17 156<489.447 808.316> 880 150<630.118 945.563>
VStem: 11 160<-497 -337> 434 159<1332 1491> 1072 163<414.37 754.3>
DStem2: 11 -497 171 -497 0.207912 0.978148<33.2659 669.888 974.194 1266.82 1456.18 2032.5>
LayerCount: 2
Fore
SplineSet
1235 622 m 0
 1235 305 947 -17 611 -17 c 0
 479 -17 372 38 302 126 c 1
 171 -497 l 1
 11 -497 l 1
 434 1491 l 1
 593 1491 l 1
 466 895 l 1
 573 983 701 1030 835 1030 c 0
 1079 1030 1235 855 1235 622 c 0
643 139 m 0
 855 139 1072 356 1072 593 c 0
 1072 763 955 880 799 880 c 0
 626 880 448 741 389 540 c 2
 378 479 l 2
 376 459 374 438 374 421 c 0
 374 250 487 139 643 139 c 0
EndSplineSet
EndChar

StartChar: threequarters
Encoding: 125 190 156
Width: 1819
VWidth: 2982
Flags: W
HStem: 0 21G<430 640.687 1480 1638.36> 156 156<1276 1511 1699 1766> 463 152<457.769 694.027> 980 155<643 755.815> 1202 21G<414 574.636> 1354 152<621.521 808.901>
VStem: 258 158<654.043 833> 414 157<1202 1303.17> 430 192<0 192> 795 154<715.472 940.856> 824 154<1171.8 1337.97> 1480 154<0 154> 1824 193<1300 1493>
DStem2: 430 0 622 0 0.682719 0.730681<131.082 2042.62> 927 156 1276 312 0.700012 0.714131<355.709 842.902> 1480 0 1634 0 0.207912 0.978148<32.0184 159.036 350.715 672.521>
LayerCount: 2
Fore
SplineSet
949 861 m 0xfc58
 949 667 752 463 532 463 c 0
 369 463 258 577 258 730 c 0
 258 765 265 801 271 833 c 1
 427 833 l 1
 427 833 416 781 416 759 c 0
 416 675 479 615 566 615 c 0
 681 615 795 718 795 835 c 0xfe58
 795 918 734 980 645 980 c 2
 611 980 l 1
 643 1135 l 1
 679 1135 l 2
 745 1135 824 1179 824 1260 c 0
 824 1314 784 1354 724 1354 c 0
 656 1354 591 1301 577 1235 c 2
 571 1202 l 1
 414 1202 l 1
 421 1235 l 2
 453 1386 602 1506 754 1506 c 0
 886 1506 978 1414 978 1292 c 0xfd38
 978 1186 916 1106 865 1061 c 1
 918 1014 949 942 949 861 c 0xfc58
1824 1493 m 1
 2017 1493 l 1
 622 0 l 1
 430 0 l 1xfc98
 1824 1493 l 1
1544 312 m 1
 1619 658 l 1
 1276 312 l 1
 1544 312 l 1
1511 156 m 1
 927 156 l 1
 1869 1117 l 1
 1699 312 l 1
 1852 312 l 1
 1766 156 l 1
 1668 156 l 1
 1634 0 l 1
 1480 0 l 1
 1511 156 l 1
EndSplineSet
LCarets2: 2 0 0 
Ligature2: "'frac' Diagonal Fractions in Latin lookup 42" three fraction four
Ligature2: "'frac' Diagonal Fractions in Latin lookup 42" three slash four
EndChar

StartChar: registered
Encoding: 109 174 157
Width: 1765
VWidth: 2982
Flags: W
HStem: -15 154<699.265 1147.03> 660 154<940 1034> 1038 156<989 1233.85> 1354 152<937.583 1384.72>
VStem: 255 159<419.432 829.65> 673 158<297 455> 1157 182<297 479> 1245 161<852.236 1027.55> 1670 159<650.777 1071.6>
DStem2: 606.682 -15 764.682 -15 0.207912 0.978148<351.82 722.897 880.185 1109.48> 1204 690 1034 660 0.324878 -0.945756<-6.27501 356.413>
LayerCount: 2
Fore
SplineSet
1406 983 m 0xfd80
 1406 867 1320 741 1204 690 c 1
 1339 297 l 1
 1157 297 l 1xfe80
 1034 660 l 1
 908 660 l 1
 831 297 l 1
 673 297 l 1
 865 1194 l 1
 1194 1194 l 2
 1320 1194 1406 1104 1406 983 c 0xfd80
1171 1354 m 0
 790 1354 414 1006 414 622 c 0
 414 346 615 139 914 139 c 0
 1292 139 1670 483 1670 869 c 0
 1670 1147 1468 1354 1171 1354 c 0
1829 900 m 0
 1829 436 1379 -15 880 -15 c 0
 510 -15 255 244 255 589 c 0
 255 1059 709 1506 1204 1506 c 0
 1574 1506 1829 1247 1829 900 c 0
1115 814 m 2
 1179 814 1245 875 1245 951 c 0xfd80
 1245 1003 1209 1038 1160 1038 c 2
 989 1038 l 1
 940 814 l 1
 1115 814 l 2
EndSplineSet
EndChar

StartChar: eth
Encoding: 175 240 158
Width: 1168
VWidth: 2982
Flags: W
HStem: -15 152<448.665 800.295> 893 157<592.057 952.058>
VStem: 145 154<279.453 613.653> 1094 168<435.822 752.976>
DStem2: 436 1184 485 1053 0.886043 0.463602<0 329.656 562.778 904.499>
LayerCount: 2
Fore
SplineSet
1262 687 m 0
 1262 224 878 -15 589 -15 c 0
 325 -15 145 166 145 408 c 0
 145 730 461 1050 814 1050 c 0
 886 1050 953 1036 1012 1012 c 1
 969 1094 914 1171 844 1238 c 1
 485 1053 l 1
 436 1184 l 1
 728 1337 l 1
 638 1401 553 1435 472 1461 c 1
 551 1610 l 1
 673 1570 781 1518 893 1426 c 1
 1254 1612 l 1
 1303 1478 l 1
 1000 1320 l 1
 1213 1092 1262 855 1262 687 c 0
618 137 m 0
 846 137 1094 342 1094 598 c 0
 1094 779 955 893 779 893 c 0
 542 893 299 681 299 438 c 0
 299 267 430 137 618 137 c 0
EndSplineSet
EndChar

StartChar: multiply
Encoding: 150 215 159
Width: 1143
VWidth: 2982
Flags: W
VStem: 107 226<314 540> 275 229<950 1179> 961 227<314 541> 1144 226<953 1179>
DStem2: 107 314 333 314 0.767918 0.640549<173.549 663.419 848.5 1350.41> 504 1179 275 1179 0.621376 -0.783513<0 410.742 559.098 961.707>
LayerCount: 2
Fore
SplineSet
1188 314 m 1x20
 961 314 l 1
 709 628 l 1
 333 314 l 1
 107 314 l 1xa0
 620 743 l 1
 275 1179 l 1
 504 1179 l 1
 759 857 l 1
 1144 1179 l 1
 1370 1179 l 1x50
 848 743 l 1
 1188 314 l 1x20
EndSplineSet
EndChar

StartChar: copyright
Encoding: 104 169 160
Width: 1765
VWidth: 2982
Flags: W
HStem: -15 154<699.265 1147.03> 295 155<853.954 1117.58> 1036 155<962.869 1224.53> 1354 152<937.583 1384.72>
VStem: 255 159<419.432 829.65> 620 159<527.924 839.916> 1670 159<650.777 1071.6>
LayerCount: 2
Fore
SplineSet
1829 900 m 0
 1829 436 1379 -15 880 -15 c 0
 510 -15 255 244 255 589 c 0
 255 1059 709 1506 1204 1506 c 0
 1574 1506 1829 1247 1829 900 c 0
1171 1354 m 0
 790 1354 414 1006 414 622 c 0
 414 346 615 139 914 139 c 0
 1292 139 1670 483 1670 869 c 0
 1670 1147 1468 1354 1171 1354 c 0
1102 1036 m 0
 953 1036 779 871 779 673 c 0
 779 540 865 450 976 450 c 0
 1119 450 1207 571 1243 615 c 1
 1361 540 l 1
 1301 463 1162 295 942 295 c 0
 743 295 620 448 620 640 c 0
 620 927 871 1191 1132 1191 c 0
 1352 1191 1421 1025 1446 947 c 1
 1296 871 l 1
 1276 922 1238 1036 1102 1036 c 0
EndSplineSet
EndChar

StartChar: Aacute
Encoding: 128 193 161
Width: 1380
VWidth: 2880
Flags: W
HStem: 2 21G<25 207.624 1183.75 1359> 444 154<577 1063> 1488 20G<998.892 1016.61>
VStem: 25 170<2 172> 1188 171<2 173>
DStem2: 25 2 195 2 0.548147 0.836382<93.185 615.799 801.061 1422.24> 1012 1508 929 1110 0.224529 -0.974467<369.202 369.202 1055.24 1507.07>
LayerCount: 2
Fore
SplineSet
1191 1914 m 1
 1471 1914 l 1
 1016 1576 l 1
 835 1576 l 1
 1191 1914 l 1
577 598 m 1
 1063 598 l 1
 929 1110 l 1
 577 598 l 1
474 444 m 1
 195 2 l 1
 25 2 l 1
 1012 1508 l 1
 1359 2 l 1
 1188 2 l 1
 1094 444 l 1
 474 444 l 1
EndSplineSet
EndChar

StartChar: Acircumflex
Encoding: 129 194 162
Width: 1380
VWidth: 2880
Flags: W
HStem: 2 21G<25 207.624 1183.75 1359> 444 154<577 1063> 1488 20G<998.892 1016.61>
VStem: 25 170<2 172> 669 220<1576 1796> 1188 171<2 173>
DStem2: 25 2 195 2 0.548147 0.836382<93.185 615.799 801.061 1422.24> 669 1576 889 1576 0.748059 0.663632<164.573 388.464> 1012 1508 929 1110 0.224529 -0.974467<369.202 369.202 1055.24 1507.07>
LayerCount: 2
Fore
SplineSet
577 598 m 1
 1063 598 l 1
 929 1110 l 1
 577 598 l 1
474 444 m 1
 195 2 l 1
 25 2 l 1
 1012 1508 l 1
 1359 2 l 1
 1188 2 l 1
 1094 444 l 1
 474 444 l 1
1050 1914 m 1
 1147 1914 l 1
 1382 1576 l 1
 1162 1576 l 1
 1057 1724 l 1
 889 1576 l 1
 669 1576 l 1
 1050 1914 l 1
EndSplineSet
EndChar

StartChar: Adieresis
Encoding: 131 196 163
Width: 1380
VWidth: 2880
Flags: W
HStem: 2 21G<25 207.624 1183.75 1359> 444 154<577 1063> 1488 20G<998.892 1016.61> 1576 239<797.196 950.357 1154.95 1307.1>
VStem: 25 170<2 172> 750 244<1620.46 1768.11> 1108 244<1620.78 1768.11> 1188 171<2 173>
DStem2: 25 2 195 2 0.548147 0.836382<93.185 615.799 801.061 1422.24> 1012 1508 929 1110 0.224529 -0.974467<369.202 369.202 1055.24 1507.07>
LayerCount: 2
Fore
SplineSet
577 598 m 1xfc
 1063 598 l 1
 929 1110 l 1
 577 598 l 1xfc
474 444 m 1
 195 2 l 1
 25 2 l 1
 1012 1508 l 1
 1359 2 l 1
 1188 2 l 1xfd
 1094 444 l 1
 474 444 l 1
750 1670 m 0
 750 1741 820 1815 897 1815 c 0
 953 1815 994 1775 994 1719 c 0
 994 1634 914 1576 846 1576 c 0
 790 1576 750 1617 750 1670 c 0
1108 1670 m 0xfe
 1108 1741 1177 1815 1256 1815 c 0
 1312 1815 1352 1775 1352 1719 c 0
 1352 1634 1271 1576 1204 1576 c 0
 1149 1576 1108 1617 1108 1670 c 0xfe
EndSplineSet
EndChar

StartChar: Agrave
Encoding: 127 192 164
Width: 1380
VWidth: 2880
Flags: W
HStem: 2 21G<25 207.624 1183.75 1359> 444 154<577 1063> 1488 20G<998.892 1016.61>
VStem: 25 170<2 172> 1188 171<2 173>
DStem2: 25 2 195 2 0.548147 0.836382<93.185 615.799 801.061 1422.24> 1012 1508 929 1110 0.224529 -0.974467<369.202 369.202 1055.24 1507.07>
LayerCount: 2
Fore
SplineSet
675 1914 m 1
 959 1914 l 1
 1171 1576 l 1
 987 1576 l 1
 675 1914 l 1
577 598 m 1
 1063 598 l 1
 929 1110 l 1
 577 598 l 1
474 444 m 1
 195 2 l 1
 25 2 l 1
 1012 1508 l 1
 1359 2 l 1
 1188 2 l 1
 1094 444 l 1
 474 444 l 1
EndSplineSet
EndChar

StartChar: Aring
Encoding: 132 197 165
Width: 1380
VWidth: 2880
Flags: W
HStem: 2 21G<25 207.624 1183.75 1359> 444 154<577 1063> 1488 20G<998.892 1016.61> 1560 161<989.619 1139.36> 1901 160<1008.79 1161.2>
VStem: 25 170<2 172> 820 163<1727.72 1875.36> 1166 166<1747.53 1896.13> 1188 171<2 173>
DStem2: 25 2 195 2 0.548147 0.836382<93.185 615.799 801.061 1422.24> 1012 1508 929 1110 0.224529 -0.974467<369.202 369.202 1055.24 1507.07>
LayerCount: 2
Fore
SplineSet
577 598 m 1xfe
 1063 598 l 1
 929 1110 l 1
 577 598 l 1xfe
474 444 m 1
 195 2 l 1
 25 2 l 1
 1012 1508 l 1
 1359 2 l 1
 1188 2 l 1xfe80
 1094 444 l 1
 474 444 l 1
1332 1865 m 0xff
 1332 1719 1196 1560 1023 1560 c 0
 902 1560 820 1645 820 1760 c 0
 820 1903 961 2061 1128 2061 c 0
 1249 2061 1332 1978 1332 1865 c 0xff
1094 1901 m 0
 1027 1901 983 1837 983 1795 c 0
 983 1755 1014 1721 1057 1721 c 0
 1113 1721 1166 1775 1166 1831 c 0
 1166 1871 1137 1901 1094 1901 c 0
EndSplineSet
EndChar

StartChar: Atilde
Encoding: 130 195 166
Width: 1380
VWidth: 2880
Flags: W
HStem: 2 21G<25 207.624 1183.75 1359> 444 154<577 1063> 1488 20G<998.892 1016.61> 1560 164<1110.54 1224.9> 1670 159<877.872 998.599>
VStem: 25 170<2 172> 737 128<1576 1667.19> 1188 171<2 173> 1235 124<1730.59 1815>
DStem2: 25 2 195 2 0.548147 0.836382<93.185 615.799 801.061 1422.24> 1012 1508 929 1110 0.224529 -0.974467<369.202 369.202 1055.24 1507.07>
LayerCount: 2
Fore
SplineSet
577 598 m 1xe6
 1063 598 l 1
 929 1110 l 1
 577 598 l 1xe6
474 444 m 1
 195 2 l 1
 25 2 l 1
 1012 1508 l 1
 1359 2 l 1
 1188 2 l 1xe7
 1094 444 l 1
 474 444 l 1
865 1576 m 1
 737 1576 l 1
 745 1614 l 2
 765 1692 810 1829 955 1829 c 0xee80
 1072 1829 1141 1724 1186 1724 c 0
 1204 1724 1220 1743 1229 1779 c 2
 1235 1815 l 1
 1367 1815 l 1
 1359 1779 l 2
 1325 1621 1247 1560 1153 1560 c 0xf680
 1047 1560 969 1670 918 1670 c 0xee80
 900 1670 884 1654 873 1610 c 2
 865 1576 l 1
EndSplineSet
EndChar

StartChar: Ccedilla
Encoding: 134 199 167
Width: 1617
VWidth: 2877
Flags: W
HStem: -459 160<595.043 801.925> 1350 156<927.327 1379.77>
VStem: 242 161<418.545 846.738> 803 169<-295.647 -197.5>
LayerCount: 2
Fore
SplineSet
1164 1350 m 0
 775 1350 403 1006 403 618 c 0
 403 344 607 137 906 137 c 0
 1215 137 1421 344 1482 408 c 1
 1591 325 l 1
 1399 124 1179 9 949 -11 c 1
 884 -96 l 1
 953 -124 972 -175 972 -220 c 0
 972 -344 865 -457 703 -459 c 0
 647 -459 589 -444 542 -406 c 2
 515 -387 l 1
 632 -250 l 1
 656 -271 l 2
 683 -291 714 -299 741 -299 c 0
 773 -299 803 -289 803 -267 c 0
 803 -255 784 -242 737 -233 c 2
 620 -218 l 1
 786 -9 l 1
 459 27 242 273 242 591 c 0
 242 1053 694 1506 1198 1506 c 0
 1585 1506 1730 1249 1771 1168 c 1
 1625 1077 l 1
 1589 1139 1476 1350 1164 1350 c 0
EndSplineSet
EndChar

StartChar: Eacute
Encoding: 136 201 168
Width: 1158
VWidth: 2877
Flags: W
HStem: 0 154<333 1061> 784 154<502 1171> 1339 154<587 1350>
DStem2: 143 0 300.266 0 0.207912 0.978148<190.138 834.439 992.143 1402.05>
LayerCount: 2
Fore
SplineSet
1298 1914 m 5
 844 1576 l 5
 660 1576 l 5
 1016 1914 l 5
 1298 1914 l 5
1202 938 m 1
 1171 784 l 1
 468 784 l 1
 333 154 l 1
 1094 154 l 1
 1061 0 l 1
 143 0 l 1
 461 1493 l 1
 1382 1493 l 1
 1350 1339 l 1
 587 1339 l 1
 502 938 l 1
 1202 938 l 1
EndSplineSet
EndChar

StartChar: Ecircumflex
Encoding: 137 202 169
Width: 1158
VWidth: 2877
Flags: W
HStem: 0 154<333 1061> 784 154<502 1171> 1339 154<587 1350>
VStem: 581 220<1576 1796>
DStem2: 143 0 300.266 0 0.207912 0.978148<190.138 834.439 992.143 1402.05> 581 1576 801 1576 0.747192 0.664608<164.382 388.273>
LayerCount: 2
Fore
SplineSet
969 1724 m 1
 801 1576 l 1
 581 1576 l 1
 961 1914 l 1
 1061 1914 l 1
 1296 1576 l 1
 1077 1576 l 1
 969 1724 l 1
1202 938 m 1
 1171 784 l 1
 468 784 l 1
 333 154 l 1
 1094 154 l 1
 1061 0 l 1
 143 0 l 1
 461 1493 l 1
 1382 1493 l 1
 1350 1339 l 1
 587 1339 l 1
 502 938 l 1
 1202 938 l 1
EndSplineSet
EndChar

StartChar: Edieresis
Encoding: 138 203 170
Width: 1158
VWidth: 2877
Flags: W
HStem: 0 154<333 1061> 784 154<502 1171> 1339 154<587 1350> 1576 239<707.623 859.534 1065.9 1218.06>
VStem: 662 244<1622.73 1770.1> 1021 244<1622.73 1770.1>
DStem2: 143 0 300.266 0 0.207912 0.978148<190.138 834.439 992.143 1402.05>
LayerCount: 2
Fore
SplineSet
662 1670 m 0
 662 1737 726 1815 810 1815 c 0
 867 1815 906 1775 906 1719 c 0
 906 1638 824 1576 759 1576 c 0
 703 1576 662 1617 662 1670 c 0
1021 1670 m 0
 1021 1737 1083 1815 1168 1815 c 0
 1224 1815 1265 1775 1265 1719 c 0
 1265 1638 1182 1576 1117 1576 c 0
 1061 1576 1021 1617 1021 1670 c 0
1202 938 m 1
 1171 784 l 1
 468 784 l 1
 333 154 l 1
 1094 154 l 1
 1061 0 l 1
 143 0 l 1
 461 1493 l 1
 1382 1493 l 1
 1350 1339 l 1
 587 1339 l 1
 502 938 l 1
 1202 938 l 1
EndSplineSet
EndChar

StartChar: Egrave
Encoding: 135 200 171
Width: 1158
VWidth: 2877
Flags: W
HStem: 0 154<333 1061> 784 154<502 1171> 1339 154<587 1350>
DStem2: 143 0 300.266 0 0.207912 0.978148<190.138 834.439 992.143 1402.05>
LayerCount: 2
Fore
SplineSet
589 1914 m 5
 871 1914 l 5
 1083 1576 l 5
 900 1576 l 5
 589 1914 l 5
1202 938 m 1
 1171 784 l 1
 468 784 l 1
 333 154 l 1
 1094 154 l 1
 1061 0 l 1
 143 0 l 1
 461 1493 l 1
 1382 1493 l 1
 1350 1339 l 1
 587 1339 l 1
 502 938 l 1
 1202 938 l 1
EndSplineSet
EndChar

StartChar: Iacute
Encoding: 140 205 172
Width: 440
VWidth: 2877
Flags: W
HStem: 0 21G<143 306.233> 1473 20G<456.74 618>
VStem: 143 159<0 159> 461 157<1336 1493>
DStem2: 143 0 302 0 0.207912 0.978148<33.058 1526.49>
LayerCount: 2
Fore
SplineSet
991 1914 m 1
 538 1576 l 1
 354 1576 l 1
 709 1914 l 1
 991 1914 l 1
302 0 m 1
 143 0 l 1
 461 1493 l 1
 618 1493 l 1
 302 0 l 1
EndSplineSet
EndChar

StartChar: Icircumflex
Encoding: 141 206 173
Width: 440
VWidth: 2877
Flags: W
HStem: 0 21G<143 306.233> 1473 20G<456.74 618>
VStem: 143 159<0 159> 199 220<1576 1796> 461 157<1336 1493>
DStem2: 143 0 302 0 0.207912 0.978148<33.058 1526.49> 199 1576 419 1576 0.745448 0.666564<163.998 387.885>
LayerCount: 2
Fore
SplineSet
302 0 m 1xe8
 143 0 l 1
 461 1493 l 1
 618 1493 l 1
 302 0 l 1xe8
587 1724 m 1
 419 1576 l 1
 199 1576 l 1xd8
 577 1914 l 1
 679 1914 l 1
 914 1576 l 1
 694 1576 l 1
 587 1724 l 1
EndSplineSet
EndChar

StartChar: Idieresis
Encoding: 142 207 174
Width: 440
VWidth: 2877
Flags: W
HStem: 0 21G<143 306.233> 1473 20G<456.74 618> 1576 239<326.891 480.356 684.947 837.103>
VStem: 143 159<0 159> 280 244<1620.46 1768.11> 461 157<1336 1493> 638 244<1620.78 1768.11>
DStem2: 143 0 302 0 0.207912 0.978148<33.058 1526.49>
LayerCount: 2
Fore
SplineSet
302 0 m 1xf6
 143 0 l 1
 461 1493 l 1
 618 1493 l 1
 302 0 l 1xf6
280 1670 m 0xea
 280 1741 349 1815 427 1815 c 0
 483 1815 524 1775 524 1719 c 0
 524 1634 444 1576 376 1576 c 0
 320 1576 280 1617 280 1670 c 0xea
638 1670 m 0
 638 1741 707 1815 786 1815 c 0
 842 1815 882 1775 882 1719 c 0
 882 1634 801 1576 734 1576 c 0
 679 1576 638 1617 638 1670 c 0
EndSplineSet
EndChar

StartChar: Igrave
Encoding: 139 204 175
Width: 440
VWidth: 2877
Flags: W
HStem: 0 21G<143 306.233> 1473 20G<456.74 618>
VStem: 143 159<0 159> 461 157<1336 1493>
DStem2: 143 0 302 0 0.207912 0.978148<33.058 1526.49>
LayerCount: 2
Fore
SplineSet
199 1914 m 1
 479 1914 l 1
 692 1576 l 1
 510 1576 l 1
 199 1914 l 1
302 0 m 1
 143 0 l 1
 461 1493 l 1
 618 1493 l 1
 302 0 l 1
EndSplineSet
EndChar

StartChar: Ntilde
Encoding: 144 209 176
Width: 1671
VWidth: 2877
Flags: W
HStem: 0 21G<143 306.255 1511.76 1533.28> 1488 5G<458.756 480.24 1687.72 1852> 1621 163<1268.87 1384.53> 1728 162<1035.82 1159.12>
VStem: 143 159<0 159> 893 130<1636 1672> 1395 125<1789.21 1873> 1692 160<1333 1493>
DStem2: 139.387 -17 298.387 -17 0.207912 0.978148<50.4377 1203.69> 463 1508 542 1128 0.652913 -0.757433<339.405 1511.69> 1369.23 -17 1529 -17 0.207912 0.978148<388.489 1544.11>
LayerCount: 2
Fore
SplineSet
143 0 m 1xcf
 463 1508 l 1
 1450 363 l 1
 1692 1493 l 1
 1852 1493 l 1
 1529 -17 l 1
 542 1128 l 1
 302 0 l 1
 143 0 l 1xcf
1345 1784 m 0xef
 1367 1784 1382 1809 1388 1837 c 2
 1395 1873 l 1
 1527 1873 l 1
 1520 1837 l 2
 1486 1681 1406 1621 1312 1621 c 0xef
 1207 1621 1126 1728 1077 1728 c 0
 1057 1728 1043 1713 1032 1670 c 2
 1023 1636 l 1
 893 1636 l 1
 904 1672 l 2
 922 1753 967 1890 1113 1890 c 0xdf
 1229 1890 1298 1784 1345 1784 c 0xef
EndSplineSet
EndChar

StartChar: Oacute
Encoding: 146 211 177
Width: 1749
VWidth: 2877
Flags: W
HStem: -13 152<689.801 1141.96> 1352 154<928.242 1379.67>
VStem: 239 162<420.078 829.807> 1668 163<661.808 1071.83>
LayerCount: 2
Fore
SplineSet
1692 1914 m 1
 1238 1576 l 1
 1055 1576 l 1
 1410 1914 l 1
 1692 1914 l 1
1831 900 m 0
 1831 438 1377 -13 873 -13 c 0
 500 -13 239 244 239 591 c 0
 239 1053 694 1506 1198 1506 c 0
 1572 1506 1831 1247 1831 900 c 0
1164 1352 m 0
 781 1352 401 1010 401 622 c 0
 401 346 604 139 906 139 c 0
 1288 139 1668 481 1668 871 c 0
 1668 1147 1461 1352 1164 1352 c 0
EndSplineSet
EndChar

StartChar: Ocircumflex
Encoding: 147 212 178
Width: 1749
VWidth: 2877
Flags: W
HStem: -13 152<689.801 1141.96> 1352 154<928.242 1379.67>
VStem: 239 162<420.078 829.807> 853 219<1576 1795> 1668 163<661.808 1071.83>
DStem2: 853 1576 1072 1576 0.747192 0.664608<163.635 388.273>
LayerCount: 2
Fore
SplineSet
1831 900 m 0
 1831 438 1377 -13 873 -13 c 4
 500 -13 239 244 239 591 c 0
 239 1053 694 1506 1198 1506 c 4
 1572 1506 1831 1247 1831 900 c 0
1164 1352 m 4
 781 1352 401 1010 401 622 c 0
 401 346 604 139 906 139 c 4
 1288 139 1668 481 1668 871 c 0
 1668 1147 1461 1352 1164 1352 c 4
1241 1724 m 1
 1072 1576 l 1
 853 1576 l 1
 1233 1914 l 1
 1332 1914 l 1
 1567 1576 l 1
 1350 1576 l 1
 1241 1724 l 1
EndSplineSet
EndChar

StartChar: Odieresis
Encoding: 149 214 179
Width: 1749
VWidth: 2877
Flags: W
HStem: -13 152<689.801 1141.96> 1352 154<928.242 1379.67> 1576 239<980.897 1132.53 1339.34 1490.66>
VStem: 239 162<420.078 829.807> 936 243<1622.73 1770.1> 1294 244<1622.73 1770.1> 1668 163<661.808 1071.83>
LayerCount: 2
Fore
SplineSet
1831 900 m 0
 1831 438 1377 -13 873 -13 c 0
 500 -13 239 244 239 591 c 0
 239 1053 694 1506 1198 1506 c 0
 1572 1506 1831 1247 1831 900 c 0
1164 1352 m 0
 781 1352 401 1010 401 622 c 0
 401 346 604 139 906 139 c 0
 1288 139 1668 481 1668 871 c 0
 1668 1147 1461 1352 1164 1352 c 0
936 1670 m 0
 936 1737 998 1815 1083 1815 c 0
 1139 1815 1179 1775 1179 1719 c 0
 1179 1638 1097 1576 1032 1576 c 0
 976 1576 936 1617 936 1670 c 0
1294 1670 m 0
 1294 1737 1356 1815 1442 1815 c 0
 1497 1815 1538 1775 1538 1719 c 0
 1538 1638 1455 1576 1390 1576 c 0
 1335 1576 1294 1617 1294 1670 c 0
EndSplineSet
EndChar

StartChar: Ograve
Encoding: 145 210 180
Width: 1749
VWidth: 2877
Flags: W
HStem: -13 152<689.801 1141.96> 1352 154<928.242 1379.67>
VStem: 239 162<420.078 829.807> 1668 163<661.808 1071.83>
LayerCount: 2
Fore
SplineSet
808 1914 m 5
 1088 1914 l 5
 1301 1576 l 5
 1119 1576 l 5
 808 1914 l 5
1831 900 m 0
 1831 438 1377 -13 873 -13 c 0
 500 -13 239 244 239 591 c 0
 239 1053 694 1506 1198 1506 c 0
 1572 1506 1831 1247 1831 900 c 0
1164 1352 m 0
 781 1352 401 1010 401 622 c 0
 401 346 604 139 906 139 c 0
 1288 139 1668 481 1668 871 c 0
 1668 1147 1461 1352 1164 1352 c 0
EndSplineSet
EndChar

StartChar: Otilde
Encoding: 148 213 181
Width: 1749
VWidth: 2877
Flags: W
HStem: -13 152<691.188 1142.99> 1352 154<926.801 1380.49> 1621 163<1308.03 1422.59> 1728 162<1076.05 1198.57>
VStem: 239 164<419.682 827.971> 1433 125<1789.21 1873> 1670 161<661.826 1071.83>
LayerCount: 2
Fore
SplineSet
1831 900 m 0xce
 1831 436 1377 -13 875 -13 c 0
 500 -13 239 244 239 591 c 0
 239 1053 694 1506 1198 1506 c 0
 1572 1506 1831 1247 1831 900 c 0xce
1164 1352 m 0
 773 1352 403 1003 403 620 c 0
 403 346 607 139 906 139 c 0
 1290 139 1670 483 1670 871 c 0
 1670 1147 1464 1352 1164 1352 c 0
1384 1784 m 0xee
 1395 1784 1414 1790 1426 1837 c 2
 1433 1873 l 1
 1565 1873 l 1
 1558 1837 l 2
 1525 1681 1444 1621 1350 1621 c 0xee
 1247 1621 1166 1728 1115 1728 c 0
 1097 1728 1083 1713 1072 1670 c 2
 1061 1636 l 1
 933 1636 l 1
 942 1672 l 2
 963 1753 1008 1890 1153 1890 c 0xde
 1267 1890 1339 1784 1384 1784 c 0xee
EndSplineSet
EndChar

StartChar: Scaron
Encoding: 195 352 182
Width: 1183
VWidth: 2877
Flags: W
HStem: -17 156<464.057 804.479> 1352 156<737.285 1020.66>
VStem: 192 164<251.892 468> 453 160<1013.37 1229.29> 1032 162<351.909 612.843> 1130 218<1664 1882>
DStem2: 963 1737 969 1547 0.749261 0.662275<0 221.156>
LayerCount: 2
Fore
SplineSet
453 1070 m 0xf8
 453 1278 649 1508 916 1508 c 0
 1079 1508 1229 1410 1256 1218 c 2
 1260 1186 l 1
 1102 1135 l 1
 1097 1168 l 2
 1079 1294 985 1352 882 1352 c 0
 712 1352 613 1204 613 1108 c 0
 613 873 1194 906 1194 534 c 0
 1194 248 904 -17 589 -17 c 0
 378 -17 192 105 192 385 c 0
 192 408 197 468 197 468 c 1
 361 487 l 1
 361 487 356 440 356 419 c 0
 356 222 477 139 620 139 c 0
 844 139 1032 320 1032 500 c 0
 1032 784 453 737 453 1070 c 0xf8
969 1547 m 1
 873 1547 l 1
 638 1882 l 1
 855 1882 l 1
 963 1737 l 1
 1130 1882 l 1
 1348 1882 l 1xf4
 969 1547 l 1
EndSplineSet
EndChar

StartChar: Uacute
Encoding: 153 218 183
Width: 1393
VWidth: 2877
Flags: W
HStem: -15 154<567.985 909.56> 1473 20G<456.773 618 1409.77 1572>
VStem: 252 160<301.403 704.094> 461 157<1336 1493> 1414 158<1335 1493>
DStem2: 141.592 -15 297.592 -15 0.207912 0.978148<540.76 1541.46> 1094.59 -15 1251.59 -15 0.207912 0.978148<393.397 1541.46>
LayerCount: 2
Fore
SplineSet
1241 1914 m 5
 1523 1914 l 5
 1068 1576 l 5
 884 1576 l 5
 1241 1914 l 5
461 1493 m 1
 618 1493 l 1
 423 575 l 2
 416 542 412 508 412 479 c 0
 412 280 549 139 732 139 c 0
 942 139 1166 327 1220 575 c 2
 1414 1493 l 1
 1572 1493 l 1
 1377 575 l 2
 1309 252 1008 -15 696 -15 c 0
 427 -15 252 184 252 444 c 0
 252 485 258 530 267 575 c 2
 461 1493 l 1
EndSplineSet
EndChar

StartChar: Ucircumflex
Encoding: 154 219 184
Width: 1393
VWidth: 2877
Flags: W
HStem: -15 154<567.985 909.56> 1473 20G<456.773 618 1409.77 1572>
VStem: 252 160<301.403 704.094> 461 157<1336 1493> 675 220<1576 1796> 1414 158<1335 1493>
DStem2: 141.592 -15 297.592 -15 0.207912 0.978148<540.76 1541.46> 675 1576 895 1576 0.747192 0.664608<164.382 388.273> 1094.59 -15 1251.59 -15 0.207912 0.978148<393.397 1541.46>
LayerCount: 2
Fore
SplineSet
461 1493 m 1
 618 1493 l 1
 423 575 l 2
 416 542 412 508 412 479 c 0
 412 280 549 139 732 139 c 0
 942 139 1166 327 1220 575 c 2
 1414 1493 l 1
 1572 1493 l 1
 1377 575 l 2
 1309 252 1008 -15 696 -15 c 0
 427 -15 252 184 252 444 c 0
 252 485 258 530 267 575 c 2
 461 1493 l 1
1390 1576 m 1
 1168 1576 l 1
 1063 1724 l 1
 895 1576 l 1
 675 1576 l 1
 1055 1914 l 1
 1155 1914 l 1
 1390 1576 l 1
EndSplineSet
EndChar

StartChar: Udieresis
Encoding: 155 220 185
Width: 1393
VWidth: 2877
Flags: W
HStem: -15 154<567.985 909.56> 1473 20G<456.773 618 1409.77 1572> 1576 239<805.002 954.442 1163 1314.12>
VStem: 252 160<301.403 704.094> 461 157<1336 1493> 759 241<1620.21 1768.19> 1117 242<1620.21 1768.19> 1414 158<1335 1493>
DStem2: 141.592 -15 297.592 -15 0.207912 0.978148<540.76 1541.46> 1094.59 -15 1251.59 -15 0.207912 0.978148<393.397 1541.46>
LayerCount: 2
Fore
SplineSet
461 1493 m 1
 618 1493 l 1
 423 575 l 2
 416 542 412 508 412 479 c 0
 412 280 549 139 732 139 c 0
 942 139 1166 327 1220 575 c 2
 1414 1493 l 1
 1572 1493 l 1
 1377 575 l 2
 1309 252 1008 -15 696 -15 c 0
 427 -15 252 184 252 444 c 0
 252 485 258 530 267 575 c 2
 461 1493 l 1
759 1668 m 0
 759 1746 833 1815 904 1815 c 0
 963 1815 1000 1775 1000 1721 c 0
 1000 1645 929 1576 855 1576 c 0
 797 1576 759 1617 759 1668 c 0
1117 1668 m 0
 1117 1746 1191 1815 1262 1815 c 0
 1320 1815 1359 1775 1359 1721 c 0
 1359 1645 1288 1576 1213 1576 c 0
 1155 1576 1117 1617 1117 1668 c 0
EndSplineSet
EndChar

StartChar: Ugrave
Encoding: 152 217 186
Width: 1393
VWidth: 2877
Flags: W
HStem: -15 154<567.985 909.56> 1473 20G<456.773 618 1409.77 1572>
VStem: 252 160<301.403 704.094> 461 157<1336 1493> 1414 158<1335 1493>
DStem2: 141.592 -15 297.592 -15 0.207912 0.978148<540.76 1541.46> 1094.59 -15 1251.59 -15 0.207912 0.978148<393.397 1541.46>
LayerCount: 2
Fore
SplineSet
640 1914 m 5
 922 1914 l 5
 1135 1576 l 5
 951 1576 l 5
 640 1914 l 5
461 1493 m 1
 618 1493 l 1
 423 575 l 2
 416 542 412 508 412 479 c 0
 412 280 549 139 732 139 c 0
 942 139 1166 327 1220 575 c 2
 1414 1493 l 1
 1572 1493 l 1
 1377 575 l 2
 1309 252 1008 -15 696 -15 c 0
 427 -15 252 184 252 444 c 0
 252 485 258 530 267 575 c 2
 461 1493 l 1
EndSplineSet
EndChar

StartChar: Yacute
Encoding: 156 221 187
Width: 1303
VWidth: 2877
Flags: W
HStem: 0 21G<575 738.281> 1473 20G<340 534.696 1399.87 1602>
VStem: 340 186<1307 1493> 575 159<0 159> 1417 185<1308 1493>
DStem2: 526 1493 340 1493 0.399747 -0.916625<0 752.396> 575 0 734 0 0.207912 0.978148<33.058 654.498> 826 803 871 640 0.650718 0.759319<0 908.505>
LayerCount: 2
Fore
SplineSet
1184 1914 m 1
 1466 1914 l 1
 1012 1576 l 1
 828 1576 l 1
 1184 1914 l 1
340 1493 m 1
 526 1493 l 1
 826 803 l 1
 1417 1493 l 1
 1602 1493 l 1
 871 640 l 1
 734 0 l 1
 575 0 l 1
 712 640 l 1
 340 1493 l 1
EndSplineSet
EndChar

StartChar: Ydieresis
Encoding: 197 376 188
Width: 1303
VWidth: 2877
Flags: W
HStem: 0 21G<575 738.281> 1473 20G<340 534.696 1399.87 1602> 1576 239<760.002 909.442 1118.38 1269.12>
VStem: 340 186<1307 1493> 575 159<0 159> 714 241<1620.21 1768.19> 1072 242<1620.21 1768.19> 1417 185<1308 1493>
DStem2: 526 1493 340 1493 0.399747 -0.916625<0 752.396> 575 0 734 0 0.207912 0.978148<33.058 654.498> 826 803 871 640 0.650718 0.759319<0 908.505>
LayerCount: 2
Fore
SplineSet
340 1493 m 1xfb
 526 1493 l 1
 826 803 l 1
 1417 1493 l 1
 1602 1493 l 1
 871 640 l 1
 734 0 l 1
 575 0 l 1
 712 640 l 1
 340 1493 l 1xfb
714 1668 m 0xf7
 714 1746 788 1815 859 1815 c 0
 918 1815 955 1775 955 1721 c 0
 955 1645 884 1576 810 1576 c 0
 752 1576 714 1617 714 1668 c 0xf7
1072 1668 m 0
 1072 1746 1147 1815 1218 1815 c 0
 1276 1815 1314 1775 1314 1721 c 0
 1314 1645 1243 1576 1168 1576 c 0
 1110 1576 1072 1617 1072 1668 c 0
EndSplineSet
EndChar

StartChar: Zcaron
Encoding: 198 381 189
Width: 1250
VWidth: 2877
Flags: W
HStem: 0 154<352 1179> 1339 154<477 1218>
VStem: 1164 220<1662 1882>
DStem2: 25 0 352 154 0.665229 0.74664<332.512 1793.37> 996 1737 1006 1547 0.748392 0.663257<0 221.902>
LayerCount: 2
Fore
SplineSet
477 1493 m 1
 1544 1493 l 1
 352 154 l 1
 1265 154 l 1
 1179 0 l 1
 25 0 l 1
 1218 1339 l 1
 391 1339 l 1
 477 1493 l 1
1006 1547 m 1
 906 1547 l 1
 671 1882 l 1
 891 1882 l 1
 996 1737 l 1
 1164 1882 l 1
 1384 1882 l 1
 1006 1547 l 1
EndSplineSet
EndChar

StartChar: aacute
Encoding: 160 225 190
Width: 1094
VWidth: 2822
Flags: W
HStem: -17 151<351.354 644.761> 0 21G<822 998> 481 130<527.503 897> 882 150<563.294 839.901> 1473 20G<878.935 1182>
VStem: 158 162<167.675 353.06> 814 173<0 138.27> 925 160<611.825 798.328>
LayerCount: 2
Fore
SplineSet
900 1493 m 5x3c
 1182 1493 l 5
 728 1155 l 5
 544 1155 l 5
 900 1493 l 5x3c
998 0 m 1x7e
 824 0 l 1
 820 20 814 45 814 69 c 0x7e
 814 94 820 121 824 139 c 1
 718 51 585 -17 450 -17 c 0
 237 -17 158 105 158 224 c 0
 158 242 158 260 164 278 c 0
 233 609 696 611 922 611 c 1
 925 624 925 638 925 649 c 0
 925 799 826 882 714 882 c 0
 568 882 468 763 438 732 c 1
 329 812 l 1
 372 861 521 1032 745 1032 c 0
 931 1032 1085 906 1085 685 c 0xbd
 1085 651 1081 615 1074 577 c 2
 1006 242 l 2
 994 192 987 137 987 90 c 0
 987 54 991 22 998 0 c 1x7e
897 481 m 1
 714 479 320 459 320 252 c 0
 320 199 361 134 481 134 c 0xbc
 620 134 781 239 869 346 c 1
 897 481 l 1
EndSplineSet
EndChar

StartChar: acircumflex
Encoding: 161 226 191
Width: 1094
VWidth: 2822
Flags: W
HStem: -17 151<351.354 644.761> 0 21G<822 998> 481 130<527.503 897> 882 150<563.294 839.901> 1473 20G<772.456 904.905>
VStem: 158 162<167.675 353.06> 414 220<1155 1375> 814 173<0 138.27> 925 160<611.825 798.328>
DStem2: 414 1155 634 1155 0.748059 0.663632<164.573 387.716>
LayerCount: 2
Fore
SplineSet
795 1493 m 1x3e
 891 1493 l 1
 1126 1155 l 1
 906 1155 l 1
 801 1303 l 1
 634 1155 l 1
 414 1155 l 1
 795 1493 l 1x3e
998 0 m 1x7f
 824 0 l 1
 820 20 814 45 814 69 c 0x7f
 814 94 820 121 824 139 c 1
 718 51 585 -17 450 -17 c 0
 237 -17 158 105 158 224 c 0
 158 242 158 260 164 278 c 0
 233 609 696 611 922 611 c 1
 925 624 925 638 925 649 c 0
 925 799 826 882 714 882 c 0
 568 882 468 763 438 732 c 1
 329 812 l 1
 372 861 521 1032 745 1032 c 0
 931 1032 1085 906 1085 685 c 0xbe80
 1085 651 1081 615 1074 577 c 2
 1006 242 l 2
 994 192 987 137 987 90 c 0
 987 54 991 22 998 0 c 1x7f
897 481 m 1
 714 479 320 459 320 252 c 0
 320 199 361 134 481 134 c 0xbe
 620 134 781 239 869 346 c 1
 897 481 l 1
EndSplineSet
EndChar

StartChar: adieresis
Encoding: 163 228 192
Width: 1094
VWidth: 2822
Flags: W
HStem: -17 151<351.354 644.761> 0 21G<822 998> 481 130<527.503 897> 882 150<563.294 839.901> 1157 240<539.466 691.377 896.942 1049.55>
VStem: 158 162<167.675 353.06> 493 244<1202.62 1350.27> 814 173<0 138.27> 850 244<1202.62 1350.27> 925 160<611.825 798.328>
LayerCount: 2
Fore
SplineSet
493 1254 m 0x3e
 493 1335 575 1397 640 1397 c 0
 696 1397 737 1356 737 1303 c 0
 737 1235 673 1157 589 1157 c 0
 532 1157 493 1198 493 1254 c 0x3e
850 1254 m 0x3e80
 850 1335 933 1397 998 1397 c 0
 1055 1397 1094 1356 1094 1303 c 0
 1094 1235 1032 1157 947 1157 c 0
 891 1157 850 1198 850 1254 c 0x3e80
998 0 m 1x7f
 824 0 l 1
 820 20 814 45 814 69 c 0x7f
 814 94 820 121 824 139 c 1
 718 51 585 -17 450 -17 c 0
 237 -17 158 105 158 224 c 0
 158 242 158 260 164 278 c 0
 233 609 696 611 922 611 c 1
 925 624 925 638 925 649 c 0
 925 799 826 882 714 882 c 0
 568 882 468 763 438 732 c 1
 329 812 l 1
 372 861 521 1032 745 1032 c 0
 931 1032 1085 906 1085 685 c 0xbe40
 1085 651 1081 615 1074 577 c 2
 1006 242 l 2
 994 192 987 137 987 90 c 0
 987 54 991 22 998 0 c 1x7f
897 481 m 1
 714 479 320 459 320 252 c 0
 320 199 361 134 481 134 c 0xbe
 620 134 781 239 869 346 c 1
 897 481 l 1
EndSplineSet
EndChar

StartChar: agrave
Encoding: 159 224 193
Width: 1094
VWidth: 2822
Flags: W
HStem: -17 151<351.354 644.761> 0 21G<822 998> 481 130<527.503 897> 882 150<563.294 839.901> 1473 20G<391 685.604>
VStem: 158 162<167.675 353.06> 814 173<0 138.27> 925 160<611.825 798.328>
LayerCount: 2
Fore
SplineSet
391 1493 m 1x3c
 673 1493 l 1
 886 1155 l 1
 703 1155 l 1
 391 1493 l 1x3c
998 0 m 1x7e
 824 0 l 1
 820 20 814 45 814 69 c 0x7e
 814 94 820 121 824 139 c 1
 718 51 585 -17 450 -17 c 0
 237 -17 158 105 158 224 c 0
 158 242 158 260 164 278 c 0
 233 609 696 611 922 611 c 1
 925 624 925 638 925 649 c 0
 925 799 826 882 714 882 c 0
 568 882 468 763 438 732 c 1
 329 812 l 1
 372 861 521 1032 745 1032 c 0
 931 1032 1085 906 1085 685 c 0xbd
 1085 651 1081 615 1074 577 c 2
 1006 242 l 2
 994 192 987 137 987 90 c 0
 987 54 991 22 998 0 c 1x7e
897 481 m 1
 714 479 320 459 320 252 c 0
 320 199 361 134 481 134 c 0xbc
 620 134 781 239 869 346 c 1
 897 481 l 1
EndSplineSet
EndChar

StartChar: aring
Encoding: 164 229 194
Width: 1094
VWidth: 2822
Flags: W
HStem: -17 151<351.354 644.761> 0 21G<822 998> 481 130<527.503 897> 882 150<563.294 839.901> 1144 161<737.555 888.442> 1484 161<754.904 908.159>
VStem: 158 162<167.675 353.06> 566 164<1311.19 1458.28> 814 173<0 138.27> 925 160<611.825 798.328 1341.81 1472.56>
LayerCount: 2
Fore
SplineSet
1077 1446 m 0x3f
 1077 1301 938 1144 767 1144 c 0
 647 1144 566 1229 566 1343 c 0
 566 1489 705 1645 875 1645 c 0
 996 1645 1077 1560 1077 1446 c 0x3f
842 1484 m 0
 795 1484 730 1437 730 1377 c 0
 730 1337 761 1305 803 1305 c 0
 861 1305 914 1361 914 1412 c 0
 914 1453 882 1484 842 1484 c 0
998 0 m 1x7f80
 824 0 l 1
 820 20 814 45 814 69 c 0x7f80
 814 94 820 121 824 139 c 1
 718 51 585 -17 450 -17 c 0
 237 -17 158 105 158 224 c 0
 158 242 158 260 164 278 c 0
 233 609 696 611 922 611 c 1
 925 624 925 638 925 649 c 0
 925 799 826 882 714 882 c 0
 568 882 468 763 438 732 c 1
 329 812 l 1
 372 861 521 1032 745 1032 c 0
 931 1032 1085 906 1085 685 c 0xbf40
 1085 651 1081 615 1074 577 c 2
 1006 242 l 2
 994 192 987 137 987 90 c 0
 987 54 991 22 998 0 c 1x7f80
897 481 m 1
 714 479 320 459 320 252 c 0
 320 199 361 134 481 134 c 0xbf
 620 134 781 239 869 346 c 1
 897 481 l 1
EndSplineSet
EndChar

StartChar: atilde
Encoding: 162 227 195
Width: 1094
VWidth: 2822
Flags: W
HStem: -17 151<349.889 644.636> 0 21G<822 998> 481 130<513.653 897> 882 150<563.335 840.255> 1139 166<856.14 973.927> 1249 159<625.638 748.483>
VStem: 158 160<168.476 349.71> 485 130<1157 1241.56> 818 169<0 138.27> 925 160<611.953 797.255> 985 119<1311.16 1388>
DStem2: 791.842 -17 950.948 -17 0.207912 0.978148<301.346 508.981>
LayerCount: 2
Fore
SplineSet
493 1194 m 2x3720
 532 1377 638 1408 703 1408 c 0x3720
 812 1408 886 1307 940 1305 c 0
 951 1305 969 1312 976 1352 c 2
 985 1388 l 1
 1113 1388 l 1
 1104 1352 l 2
 1072 1198 994 1139 904 1139 c 0x3b20
 797 1139 718 1249 667 1249 c 0
 649 1249 634 1235 622 1194 c 2
 615 1157 l 1
 485 1157 l 1
 493 1194 l 2x3720
998 0 m 1x7380
 824 0 l 1
 820 20 818 45 818 69 c 0x7380
 818 94 820 121 824 139 c 1
 718 51 585 -17 448 -17 c 0
 237 -17 158 105 158 224 c 0
 158 242 158 260 164 278 c 0
 235 609 696 611 922 611 c 1
 925 624 925 638 925 649 c 0
 925 799 826 882 714 882 c 0
 568 882 468 763 440 732 c 1
 327 812 l 1
 372 861 521 1032 745 1032 c 0
 933 1032 1085 906 1085 681 c 0xb340
 1085 649 1083 613 1077 577 c 2
 1006 242 l 2
 994 192 987 137 987 90 c 0
 987 54 991 22 998 0 c 1x7380
481 134 m 0xb3
 620 134 781 239 869 346 c 1
 897 481 l 1
 651 477 359 450 320 278 c 0
 318 271 318 265 318 255 c 0
 318 201 359 134 481 134 c 0xb3
EndSplineSet
EndChar

StartChar: ccedilla
Encoding: 166 231 196
Width: 1113
VWidth: 2822
Flags: W
HStem: -403 138<348.332 554.769> 875 155<608.14 921.225>
VStem: 192 162<263.478 603.185> 566 164<-249.736 -150.617>
LayerCount: 2
Fore
SplineSet
773 875 m 0
 562 875 354 662 354 425 c 0
 354 258 466 139 615 139 c 0
 803 139 922 295 955 338 c 1
 1077 265 l 1
 1021 192 880 27 665 -9 c 1
 643 -40 l 1
 714 -67 730 -119 730 -164 c 0
 730 -316 591 -403 463 -403 c 0
 406 -403 349 -385 299 -349 c 2
 275 -329 l 1
 383 -224 l 1
 410 -244 l 2
 427 -258 448 -265 468 -265 c 0
 524 -265 566 -222 566 -195 c 0
 566 -175 549 -154 502 -145 c 2
 410 -130 l 1
 502 -7 l 1
 312 30 192 190 192 391 c 0
 192 720 497 1030 806 1030 c 0
 1081 1030 1160 808 1179 752 c 1
 1027 675 l 1
 1006 737 951 875 773 875 c 0
EndSplineSet
EndChar

StartChar: eacute
Encoding: 168 233 197
Width: 1183
VWidth: 2822
Flags: W
HStem: -13 152<470.382 795.929> 474 148<408 1041> 878 152<617.426 924.065> 1475 20G<981.935 1285>
VStem: 195 157<259.881 471.594>
LayerCount: 2
Fore
SplineSet
408 622 m 1
 1041 622 l 1
 1027 775 920 878 777 878 c 0
 636 878 483 775 408 622 c 1
195 393 m 0
 195 724 500 1030 808 1030 c 0
 1047 1030 1202 848 1202 620 c 0
 1202 568 1194 521 1186 474 c 1
 356 474 l 1
 354 457 352 438 352 421 c 0
 352 255 466 139 615 139 c 0
 745 139 878 205 985 338 c 1
 1106 265 l 1
 916 22 687 -13 585 -13 c 0
 344 -13 195 164 195 393 c 0
1003 1495 m 1
 1285 1495 l 1
 831 1157 l 1
 647 1157 l 1
 1003 1495 l 1
EndSplineSet
EndChar

StartChar: ecircumflex
Encoding: 169 234 198
Width: 1183
VWidth: 2822
Flags: W
HStem: -13 152<470.382 795.929> 474 148<408 1041> 878 152<617.426 924.065> 1475 20G<838.633 972.905>
VStem: 195 157<259.881 471.594> 483 220<1157 1377>
DStem2: 483 1157 703 1157 0.745448 0.666564<163.998 387.885>
LayerCount: 2
Fore
SplineSet
408 622 m 1
 1041 622 l 1
 1027 775 920 878 777 878 c 0
 636 878 483 775 408 622 c 1
195 393 m 0
 195 724 500 1030 808 1030 c 0
 1047 1030 1202 848 1202 620 c 0
 1202 568 1194 521 1186 474 c 1
 356 474 l 1
 354 457 352 438 352 421 c 0
 352 255 466 139 615 139 c 0
 745 139 878 205 985 338 c 1
 1106 265 l 1
 916 22 687 -13 585 -13 c 0
 344 -13 195 164 195 393 c 0
861 1495 m 1
 959 1495 l 1
 1194 1157 l 1
 976 1157 l 1
 871 1305 l 1
 703 1157 l 1
 483 1157 l 1
 861 1495 l 1
EndSplineSet
EndChar

StartChar: edieresis
Encoding: 170 235 199
Width: 1183
VWidth: 2822
Flags: W
HStem: -13 152<470.382 795.929> 474 148<408 1041> 878 152<617.426 924.065> 1157 240<610.002 759.25 967.25 1118>
VStem: 195 157<259.881 471.594> 564 242<1203.95 1349.94> 922 242<1203.95 1349.94>
LayerCount: 2
Fore
SplineSet
408 622 m 1
 1041 622 l 1
 1027 775 920 878 777 878 c 0
 636 878 483 775 408 622 c 1
195 393 m 0
 195 724 500 1030 808 1030 c 0
 1047 1030 1202 848 1202 620 c 0
 1202 568 1194 521 1186 474 c 1
 356 474 l 1
 354 457 352 438 352 421 c 0
 352 255 466 139 615 139 c 0
 745 139 878 205 985 338 c 1
 1106 265 l 1
 916 22 687 -13 585 -13 c 0
 344 -13 195 164 195 393 c 0
564 1251 m 0
 564 1327 636 1397 709 1397 c 0
 767 1397 806 1356 806 1305 c 0
 806 1226 732 1157 660 1157 c 0
 602 1157 564 1198 564 1251 c 0
922 1251 m 0
 922 1327 994 1397 1068 1397 c 0
 1126 1397 1164 1356 1164 1305 c 0
 1164 1226 1090 1157 1019 1157 c 0
 961 1157 922 1198 922 1251 c 0
EndSplineSet
EndChar

StartChar: egrave
Encoding: 167 232 200
Width: 1183
VWidth: 2822
Flags: W
HStem: -13 152<470.382 795.929> 474 148<408 1041> 878 152<617.426 924.065> 1475 20G<396 691.544>
VStem: 195 157<259.881 471.594>
LayerCount: 2
Fore
SplineSet
396 1495 m 1
 679 1495 l 1
 891 1157 l 1
 707 1157 l 1
 396 1495 l 1
408 622 m 1
 1041 622 l 1
 1027 775 920 878 777 878 c 0
 636 878 483 775 408 622 c 1
195 393 m 0
 195 724 500 1030 808 1030 c 0
 1047 1030 1202 848 1202 620 c 0
 1202 568 1194 521 1186 474 c 1
 356 474 l 1
 354 457 352 438 352 421 c 0
 352 255 466 139 615 139 c 0
 745 139 878 205 985 338 c 1
 1106 265 l 1
 916 22 687 -13 585 -13 c 0
 344 -13 195 164 195 393 c 0
EndSplineSet
EndChar

StartChar: iacute
Encoding: 172 237 201
Width: 436
VWidth: 2830
Flags: W
HStem: 0 21G<141 303.26> 1475 20G<585.639 884>
VStem: 141 158<0 158> 359 156<858 1014>
DStem2: 141 0 299 0 0.207912 0.978148<32.85 1037.17>
LayerCount: 2
Fore
SplineSet
607 1495 m 5
 884 1495 l 5
 430 1157 l 5
 246 1157 l 5
 607 1495 l 5
299 0 m 1
 141 0 l 1
 359 1014 l 1
 515 1014 l 1
 299 0 l 1
EndSplineSet
EndChar

StartChar: icircumflex
Encoding: 173 238 202
Width: 436
VWidth: 2830
Flags: W
HStem: 0 21G<141 303.26> 1475 20G<464.633 600.905>
VStem: 109 220<1157 1377> 141 158<0 158> 359 156<858 1014>
DStem2: 109 1157 329 1157 0.745448 0.666564<163.998 387.885> 141 0 299 0 0.207912 0.978148<32.85 1037.17>
LayerCount: 2
Fore
SplineSet
299 0 m 5xd8
 141 0 l 5
 359 1014 l 5
 515 1014 l 5
 299 0 l 5xd8
487 1495 m 1
 587 1495 l 1
 822 1157 l 1
 602 1157 l 1
 497 1305 l 1
 329 1157 l 1
 109 1157 l 1xe8
 487 1495 l 1
EndSplineSet
EndChar

StartChar: idieresis
Encoding: 174 239 203
Width: 436
VWidth: 2830
Flags: W
HStem: 0 21G<141 303.26> 1157 240<233.609 387.053 591.938 745.577>
VStem: 141 158<0 158> 190 244<1203 1352.22> 359 156<858 1014> 549 243<1203 1352.54>
DStem2: 141 0 299 0 0.207912 0.978148<32.85 1037.17>
LayerCount: 2
Fore
SplineSet
299 0 m 1xec
 141 0 l 1
 359 1014 l 1
 515 1014 l 1
 299 0 l 1xec
190 1254 m 0xd4
 190 1339 271 1397 338 1397 c 0
 393 1397 434 1356 434 1303 c 0
 434 1231 365 1157 286 1157 c 0
 231 1157 190 1198 190 1254 c 0xd4
549 1254 m 0
 549 1339 628 1397 696 1397 c 0
 752 1397 792 1356 792 1303 c 0
 792 1231 724 1157 645 1157 c 0
 589 1157 549 1198 549 1254 c 0
EndSplineSet
EndChar

StartChar: igrave
Encoding: 171 236 204
Width: 436
VWidth: 2830
Flags: W
HStem: 0 21G<141 303.26> 1475 20G<101 395.604>
VStem: 141 158<0 158> 359 156<858 1014>
DStem2: 141 0 299 0 0.207912 0.978148<32.85 1037.17>
LayerCount: 2
Fore
SplineSet
101 1495 m 5
 383 1495 l 5
 596 1157 l 5
 412 1157 l 5
 101 1495 l 5
299 0 m 1
 141 0 l 1
 359 1014 l 1
 515 1014 l 1
 299 0 l 1
EndSplineSet
EndChar

StartChar: ntilde
Encoding: 176 241 205
Width: 1078
VWidth: 2822
Flags: W
HStem: 0 21G<141 303.291 779 942.258> 880 150<676.936 887.292> 1139 166<867.916 986.859> 1251 157<640.247 758.672>
VStem: 141 158<0 158> 320 173<724.693 1016> 497 131<1157 1248.75> 779 159<0 159> 922 161<558.701 842.679> 998 119<1311.16 1395>
DStem2: 141 0 299 0 0.207912 0.978148<32.85 705.353> 779 0 938 0 0.207912 0.978148<33.058 728.572>
LayerCount: 2
Fore
SplineSet
487 1016 m 1xce80
 493 989 493 969 493 947 c 0
 493 916 487 882 474 820 c 1
 566 925 709 1030 820 1030 c 0
 1008 1030 1083 904 1083 743 c 0xce80
 1083 705 1079 662 1070 620 c 2
 938 0 l 1
 779 0 l 1xcf
 912 620 l 2
 918 651 922 683 922 716 c 0
 922 801 891 880 786 880 c 0
 647 880 434 632 408 508 c 2
 299 0 l 1
 141 0 l 1
 295 716 l 2
 309 781 320 882 320 951 c 0
 320 978 318 1003 314 1016 c 1
 487 1016 l 1xce80
504 1194 m 2
 544 1377 649 1408 714 1408 c 0xde40
 824 1408 904 1305 951 1305 c 0
 959 1305 980 1316 991 1361 c 2
 998 1395 l 1
 1126 1395 l 1
 1117 1352 l 2
 1083 1198 1008 1139 918 1139 c 0xee40
 808 1139 730 1251 681 1251 c 0xde40
 660 1251 647 1235 636 1194 c 2
 628 1157 l 1
 497 1157 l 1
 504 1194 l 2
EndSplineSet
EndChar

StartChar: oacute
Encoding: 178 243 206
Width: 1282
VWidth: 2822
Flags: W
HStem: -13 150<498.66 866.337> 878 152<645.912 1004.76> 1475 20G<981.935 1285>
VStem: 195 161<277.05 605.043> 1151 154<411.553 740.454>
LayerCount: 2
Fore
SplineSet
1003 1495 m 5
 1285 1495 l 5
 831 1157 l 5
 647 1157 l 5
 1003 1495 l 5
1305 615 m 0
 1305 297 994 -13 640 -13 c 0
 376 -13 195 166 195 406 c 0
 195 714 506 1030 861 1030 c 0
 1124 1030 1305 853 1305 615 c 0
833 878 m 0
 600 878 356 675 356 432 c 0
 356 262 485 137 673 137 c 0
 912 137 1151 342 1151 585 c 0
 1151 752 1021 878 833 878 c 0
EndSplineSet
EndChar

StartChar: ocircumflex
Encoding: 179 244 207
Width: 1282
VWidth: 2822
Flags: W
HStem: -13 150<498.66 866.337> 878 152<645.912 1004.76> 1475 20G<889.515 1021.91>
VStem: 195 161<277.05 605.043> 532 220<1157 1377> 1151 154<411.553 740.454>
DStem2: 532 1157 752 1157 0.747192 0.664608<164.382 388.273>
LayerCount: 2
Fore
SplineSet
1305 615 m 0
 1305 297 994 -13 640 -13 c 0
 376 -13 195 166 195 406 c 0
 195 714 506 1030 861 1030 c 0
 1124 1030 1305 853 1305 615 c 0
833 878 m 0
 600 878 356 675 356 432 c 0
 356 262 485 137 673 137 c 0
 912 137 1151 342 1151 585 c 0
 1151 752 1021 878 833 878 c 0
912 1495 m 1
 1008 1495 l 1
 1243 1157 l 1
 1025 1157 l 1
 920 1305 l 1
 752 1157 l 1
 532 1157 l 1
 912 1495 l 1
EndSplineSet
EndChar

StartChar: odieresis
Encoding: 181 246 208
Width: 1282
VWidth: 2822
Flags: W
HStem: -13 150<498.66 866.337> 878 152<645.912 1004.76> 1157 240<659.002 809 1018 1167>
VStem: 195 161<277.05 605.043> 613 242<1203.95 1349.94> 972 241<1203.95 1352.5> 1151 154<411.553 740.454>
LayerCount: 2
Fore
SplineSet
1305 615 m 0xfa
 1305 297 994 -13 640 -13 c 0
 376 -13 195 166 195 406 c 0
 195 714 506 1030 861 1030 c 0
 1124 1030 1305 853 1305 615 c 0xfa
833 878 m 0
 600 878 356 675 356 432 c 0
 356 262 485 137 673 137 c 0
 912 137 1151 342 1151 585 c 0
 1151 752 1021 878 833 878 c 0
613 1251 m 0
 613 1327 685 1397 759 1397 c 0
 818 1397 855 1356 855 1305 c 0
 855 1226 781 1157 709 1157 c 0
 651 1157 613 1198 613 1251 c 0
972 1251 m 0xfc
 972 1327 1043 1397 1117 1397 c 0
 1175 1397 1213 1356 1213 1305 c 0
 1213 1226 1139 1157 1068 1157 c 0
 1010 1157 972 1198 972 1251 c 0xfc
EndSplineSet
EndChar

StartChar: ograve
Encoding: 177 242 209
Width: 1282
VWidth: 2822
Flags: W
HStem: -13 150<498.66 866.337> 878 152<645.912 1004.76> 1475 20G<528 820.604>
VStem: 195 161<277.05 605.043> 1151 154<411.553 740.454>
LayerCount: 2
Fore
SplineSet
528 1495 m 1
 808 1495 l 1
 1021 1157 l 1
 839 1157 l 1
 528 1495 l 1
1305 615 m 0
 1305 297 994 -13 640 -13 c 0
 376 -13 195 166 195 406 c 0
 195 714 506 1030 861 1030 c 0
 1124 1030 1305 853 1305 615 c 0
833 878 m 0
 600 878 356 675 356 432 c 0
 356 262 485 137 673 137 c 0
 912 137 1151 342 1151 585 c 0
 1151 752 1021 878 833 878 c 0
EndSplineSet
EndChar

StartChar: otilde
Encoding: 180 245 210
Width: 1282
VWidth: 2822
Flags: W
HStem: -13 150<498.66 866.337> 878 152<645.912 1004.76> 1139 166<969.653 1088.02> 1251 157<741.162 859.748>
VStem: 195 161<277.05 605.043> 607 123<1157 1248.75> 1100 118<1311.16 1395> 1151 154<411.553 740.454>
LayerCount: 2
Fore
SplineSet
1305 615 m 0xcd
 1305 297 994 -13 640 -13 c 0
 376 -13 195 166 195 406 c 0
 195 714 506 1030 861 1030 c 0
 1124 1030 1305 853 1305 615 c 0xcd
833 878 m 0
 600 878 356 675 356 432 c 0
 356 262 485 137 673 137 c 0
 912 137 1151 342 1151 585 c 0
 1151 752 1021 878 833 878 c 0
607 1194 m 2
 645 1377 750 1408 814 1408 c 0xde
 925 1408 1006 1305 1053 1305 c 0
 1059 1305 1083 1316 1092 1361 c 2
 1100 1395 l 1
 1226 1395 l 1
 1218 1352 l 2
 1186 1198 1108 1139 1019 1139 c 0xee
 912 1139 831 1251 781 1251 c 0xde
 763 1251 748 1235 737 1194 c 2
 730 1157 l 1
 598 1157 l 1
 607 1194 l 2
EndSplineSet
EndChar

StartChar: scaron
Encoding: 196 353 211
Width: 906
VWidth: 2822
Flags: W
HStem: -17 151<366.928 624.377> 882 150<538.484 737.149>
VStem: 164 165<175.761 333> 333 167<685.718 842.577> 720 162<227.124 419.834> 889 219<1187 1406>
DStem2: 720 1258 730 1068 0.745448 0.666564<0 224.632>
LayerCount: 2
Fore
SplineSet
333 716 m 0
 333 878 483 1032 673 1032 c 0
 771 1032 900 985 922 826 c 2
 927 795 l 1
 767 743 l 1
 763 777 l 2
 752 850 701 882 645 882 c 0
 551 882 500 806 500 754 c 0
 500 620 882 628 882 374 c 0
 882 171 679 -17 448 -17 c 0
 299 -17 164 72 164 267 c 0
 164 289 171 333 171 333 c 1
 331 352 l 1
 331 352 329 318 329 295 c 0
 329 175 401 134 481 134 c 0
 628 134 720 252 720 336 c 0
 720 510 333 483 333 716 c 0
730 1068 m 1
 632 1068 l 1
 396 1406 l 1
 615 1406 l 1
 720 1258 l 1
 889 1406 l 1
 1108 1406 l 1
 730 1068 l 1
EndSplineSet
EndChar

StartChar: uacute
Encoding: 185 250 212
Width: 1071
VWidth: 2817
Flags: W
HStem: -15 152<442.196 706.382> 1475 20G<927.935 1231>
VStem: 218 160<201.351 560.156> 359 158<856 1014> 991 158<856 1014>
DStem2: 140.639 -15 297.639 -15 0.207912 0.978148<390.708 1051.91> 771.639 -15 928.639 -15 0.207912 0.978148<254.664 1052.12>
LayerCount: 2
Fore
SplineSet
949 1495 m 5xc8
 1231 1495 l 5
 777 1157 l 5
 593 1157 l 5
 949 1495 l 5xc8
359 1014 m 1xd8
 517 1014 l 1xd8
 385 396 l 2
 380 374 378 354 378 333 c 0
 378 218 455 137 564 137 c 0
 692 137 828 246 859 396 c 2
 991 1014 l 1
 1149 1014 l 1
 1016 396 l 2
 969 173 759 -15 534 -15 c 0
 342 -15 218 124 218 305 c 0xe8
 218 333 222 365 228 396 c 2
 359 1014 l 1xd8
EndSplineSet
EndChar

StartChar: ucircumflex
Encoding: 186 251 213
Width: 1071
VWidth: 2817
Flags: W
HStem: -15 152<442.196 706.382> 1475 20G<783.574 917.905>
VStem: 218 160<201.351 560.156> 359 158<856 1014> 427 220<1157 1377> 991 158<856 1014>
DStem2: 140.639 -15 297.639 -15 0.207912 0.978148<390.708 1051.91> 427 1157 647 1157 0.746322 0.665585<164.191 387.333> 771.639 -15 928.639 -15 0.207912 0.978148<254.664 1052.12>
LayerCount: 2
Fore
SplineSet
359 1014 m 1xd4
 517 1014 l 1xd4
 385 396 l 2
 380 374 378 354 378 333 c 0
 378 218 455 137 564 137 c 0
 692 137 828 246 859 396 c 2
 991 1014 l 1
 1149 1014 l 1
 1016 396 l 2
 969 173 759 -15 534 -15 c 0
 342 -15 218 124 218 305 c 0xe4
 218 333 222 365 228 396 c 2
 359 1014 l 1xd4
806 1495 m 1
 904 1495 l 1
 1139 1157 l 1
 920 1157 l 1
 814 1305 l 1
 647 1157 l 1
 427 1157 l 1xcc
 806 1495 l 1
EndSplineSet
EndChar

StartChar: udieresis
Encoding: 187 252 214
Width: 1071
VWidth: 2817
Flags: W
HStem: -15 152<442.196 706.382> 1157 240<551.609 705.053 911.453 1063.11>
VStem: 218 160<201.351 560.156> 359 158<856 1014> 508 244<1203 1352.22> 867 243<1203 1352.54> 991 158<856 1014>
DStem2: 140.639 -15 297.639 -15 0.207912 0.978148<390.708 1051.91> 771.639 -15 928.639 -15 0.207912 0.978148<254.664 1052.12>
LayerCount: 2
Fore
SplineSet
359 1014 m 1xd0
 517 1014 l 1xd0
 385 396 l 2
 380 374 378 354 378 333 c 0
 378 218 455 137 564 137 c 0
 692 137 828 246 859 396 c 2
 991 1014 l 1
 1149 1014 l 1
 1016 396 l 2
 969 173 759 -15 534 -15 c 0
 342 -15 218 124 218 305 c 0xe2
 218 333 222 365 228 396 c 2
 359 1014 l 1xd0
508 1254 m 0xc8
 508 1339 589 1397 656 1397 c 0
 712 1397 752 1356 752 1303 c 0
 752 1231 683 1157 604 1157 c 0
 549 1157 508 1198 508 1254 c 0xc8
867 1254 m 0xc4
 867 1339 947 1397 1014 1397 c 0
 1070 1397 1110 1356 1110 1303 c 0
 1110 1231 1041 1157 963 1157 c 0
 906 1157 867 1198 867 1254 c 0xc4
EndSplineSet
EndChar

StartChar: ugrave
Encoding: 184 249 215
Width: 1071
VWidth: 2817
Flags: W
HStem: -15 152<442.196 706.382> 1475 20G<434 728.604>
VStem: 218 160<201.351 560.156> 359 158<856 1014> 991 158<856 1014>
DStem2: 140.639 -15 297.639 -15 0.207912 0.978148<390.708 1051.91> 771.639 -15 928.639 -15 0.207912 0.978148<254.664 1052.12>
LayerCount: 2
Fore
SplineSet
434 1495 m 5xc8
 716 1495 l 5
 929 1157 l 5
 745 1157 l 5
 434 1495 l 5xc8
359 1014 m 1xd8
 517 1014 l 1xd8
 385 396 l 2
 380 374 378 354 378 333 c 0
 378 218 455 137 564 137 c 0
 692 137 828 246 859 396 c 2
 991 1014 l 1
 1149 1014 l 1
 1016 396 l 2
 969 173 759 -15 534 -15 c 0
 342 -15 218 124 218 305 c 0xe8
 218 333 222 365 228 396 c 2
 359 1014 l 1xd8
EndSplineSet
EndChar

StartChar: yacute
Encoding: 188 253 216
Width: 1006
VWidth: 2804
Flags: W
HStem: -487 21G<116 296.216> 996 20G<239 409.887 1021.72 1202> 1475 20G<892.876 1196>
VStem: 116 168<-487 -319> 239 167<849 1016> 1034 168<848 1016>
DStem2: 116 -487 284 -487 0.521243 0.853408<87.5689 608.674 849.443 1761.17> 406 1016 239 1016 0.19439 -0.980924<0 791.531>
LayerCount: 2
Fore
SplineSet
914 1495 m 5xe4
 1196 1495 l 5
 741 1157 l 5
 557 1157 l 5
 914 1495 l 5xe4
239 1016 m 1xec
 406 1016 l 1xec
 557 239 l 1
 1034 1016 l 1
 1202 1016 l 1
 284 -487 l 1
 116 -487 l 1xf4
 434 32 l 1
 239 1016 l 1xec
EndSplineSet
EndChar

StartChar: ydieresis
Encoding: 190 255 217
Width: 1006
VWidth: 2804
Flags: W
HStem: -487 21G<116 296.216> 996 20G<239 409.887 1021.72 1202> 1173 239<525.002 674.442 883.375 1033>
VStem: 116 168<-487 -319> 239 167<849 1016> 479 241<1218.68 1365.19> 837 242<1218.68 1365.19> 1034 168<848 1016>
DStem2: 116 -487 284 -487 0.521243 0.853408<87.5689 608.674 849.443 1761.17> 406 1016 239 1016 0.19439 -0.980924<0 791.531>
LayerCount: 2
Fore
SplineSet
239 1016 m 1xec
 406 1016 l 1xec
 557 239 l 1
 1034 1016 l 1
 1202 1016 l 1
 284 -487 l 1
 116 -487 l 1xf5
 434 32 l 1
 239 1016 l 1xec
479 1265 m 0
 479 1343 553 1412 624 1412 c 0
 683 1412 720 1372 720 1318 c 0
 720 1243 649 1173 575 1173 c 0
 517 1173 479 1213 479 1265 c 0
837 1265 m 0xe6
 837 1343 912 1412 983 1412 c 0
 1041 1412 1079 1372 1079 1318 c 0
 1079 1243 1008 1173 933 1173 c 0
 875 1173 837 1213 837 1265 c 0xe6
EndSplineSet
EndChar

StartChar: zcaron
Encoding: 199 382 218
Width: 980
VWidth: 2822
Flags: W
HStem: 0 150<359 886> 865 151<403 846>
VStem: 927 220<1186 1406>
DStem2: 25 0 359 150 0.688419 0.725313<338.729 1192.59> 759 1258 767 1068 0.747192 0.664608<0 223.89>
LayerCount: 2
Fore
SplineSet
403 1016 m 1
 1175 1016 l 1
 359 150 l 1
 972 150 l 1
 886 0 l 1
 25 0 l 1
 846 865 l 1
 318 865 l 1
 403 1016 l 1
767 1068 m 1
 669 1068 l 1
 434 1406 l 1
 654 1406 l 1
 759 1258 l 1
 927 1406 l 1
 1147 1406 l 1
 767 1068 l 1
EndSplineSet
EndChar

StartChar: uni00AD
Encoding: 108 173 220
Width: 1089
VWidth: 2982
Flags: W
HStem: 427 162<237 1070>
LayerCount: 2
Fore
SplineSet
1104 589 m 1
 1070 427 l 1
 203 427 l 1
 237 589 l 1
 1104 589 l 1
EndSplineSet
EndChar

StartChar: uni00B2
Encoding: 113 178 221
Width: 782
VWidth: 2982
Flags: W
HStem: 886 164<448 936> 1809 161<684.492 892.153>
VStem: 929 173<1536.78 1773.16>
LayerCount: 2
Fore
SplineSet
1102 1690 m 0
 1102 1323 600 1254 448 1050 c 1
 969 1050 l 1
 936 886 l 1
 224 886 l 1
 242 967 l 2
 318 1327 878 1395 925 1610 c 0
 929 1627 929 1643 929 1659 c 0
 929 1748 871 1809 797 1809 c 0
 709 1809 609 1726 585 1610 c 2
 575 1574 l 1
 414 1574 l 1
 423 1610 l 2
 463 1802 645 1970 833 1970 c 0
 996 1970 1102 1847 1102 1690 c 0
EndSplineSet
EndChar

StartChar: uni00B3
Encoding: 114 179 222
Width: 782
VWidth: 2982
Flags: W
HStem: 875 157<497.885 740.635> 1414 162<690 803.5> 1807 160<670.552 860.584>
VStem: 291 166<1073.91 1258.61> 455 160<1647 1747.18> 846 160<1139.19 1371.39> 875 161<1614.99 1790.62>
LayerCount: 2
Fore
SplineSet
726 1576 m 2xf4
 797 1576 875 1625 875 1711 c 0
 875 1764 835 1807 775 1807 c 0
 705 1807 638 1751 624 1683 c 2
 615 1647 l 1
 455 1647 l 1
 463 1683 l 2
 495 1840 649 1967 806 1967 c 0
 942 1967 1036 1871 1036 1743 c 0xea
 1036 1645 983 1558 918 1500 c 1
 974 1450 1006 1377 1006 1292 c 0
 1006 1092 808 875 573 875 c 0
 406 875 291 994 291 1151 c 0
 291 1184 299 1226 307 1260 c 1
 468 1260 l 1
 463 1235 457 1207 457 1182 c 0
 457 1094 519 1032 611 1032 c 0
 728 1032 846 1139 846 1265 c 0
 846 1350 784 1414 692 1414 c 2
 656 1414 l 1
 690 1576 l 1
 726 1576 l 2xf4
EndSplineSet
EndChar

StartChar: uni00B5
Encoding: 116 181 223
Width: 1062
VWidth: 2982
Flags: W
HStem: -13 154<443.03 701.343>
VStem: 77 160<-446.847 -103.398> 359 156<858 1014> 985 156<858 1014>
DStem2: 36.199 -504 192.561 -504 0.207912 0.978148<215.8 618.237 899.54 1551.94> 661.574 -504 818.574 -504 0.207912 0.978148<761.131 1552.07>
LayerCount: 2
Fore
SplineSet
359 1014 m 1
 515 1014 l 1
 385 406 l 2
 380 383 378 363 378 342 c 0
 378 224 455 141 562 141 c 0
 687 141 822 252 855 406 c 2
 985 1014 l 1
 1141 1014 l 1
 1012 406 l 2
 963 179 752 -13 530 -13 c 0
 440 -13 367 17 314 69 c 1
 244 -262 l 2
 239 -284 237 -307 237 -327 c 0
 237 -354 242 -380 248 -403 c 2
 258 -432 l 1
 105 -504 l 1
 96 -474 l 2
 83 -438 77 -401 77 -359 c 0
 77 -329 81 -295 87 -265 c 2
 359 1014 l 1
EndSplineSet
EndChar

StartChar: uni00B9
Encoding: 120 185 224
Width: 782
VWidth: 2982
Flags: W
VStem: 571 159<889 1048>
DStem2: 571 889 730 889 0.207912 0.978148<33.058 818.841>
LayerCount: 2
Fore
SplineSet
741 1690 m 1
 636 1627 l 1
 573 1762 l 1
 965 1997 l 1
 730 889 l 1
 571 889 l 1
 741 1690 l 1
EndSplineSet
EndChar

StartChar: uni0E01
Encoding: 209 3585 225
Width: 1183
VWidth: 2849
Flags: W
HStem: 0 21G<143 306.216 886 1047.27> 1057 152<617.389 952.493>
VStem: 143 159<0 159> 886 157<0 157> 1055 158<690.416 956.366>
DStem2: 143 0 302 0 0.207912 0.978148<33.058 713.678> 886 0 1043 0 0.207912 0.978148<32.6421 838.211>
LayerCount: 2
Fore
SplineSet
455 861 m 1
 602 765 l 1
 546 743 448 685 419 555 c 2
 302 0 l 1
 143 0 l 1
 262 555 l 2
 275 624 329 694 389 743 c 1
 273 810 l 1
 425 1147 696 1209 831 1209 c 0
 1057 1209 1213 1053 1213 846 c 0
 1213 818 1211 786 1204 754 c 2
 1043 0 l 1
 886 0 l 1
 1047 754 l 2
 1053 779 1055 801 1055 822 c 0
 1055 972 936 1057 797 1057 c 0
 679 1057 538 998 455 861 c 1
EndSplineSet
EndChar

StartChar: uni0E02
Encoding: 210 3586 226
Width: 1228
VWidth: 2849
Flags: W
HStem: -15 152<492.495 815.892> 634 152<436 667.938> 1041 153<626 714>
VStem: 228 161<236.819 602.25> 1182 159<1035 1194>
DStem2: 140.712 -15 299.712 -15 0.207912 0.978148<434.995 696.212> 489.09 -15 648.09 -15 0.207912 0.978148<810.519 1079.69> 924.712 -15 1082.71 -15 0.207912 0.978148<296.801 1236.07>
LayerCount: 2
Fore
SplineSet
542 1041 m 1
 626 1194 l 1
 904 1194 l 1
 826 822 l 2
 803 718 696 634 589 634 c 2
 436 634 l 1
 396 438 l 2
 391 416 389 396 389 376 c 0
 389 239 493 137 645 137 c 0
 820 137 987 271 1021 438 c 2
 1182 1194 l 1
 1341 1194 l 1
 1179 438 l 2
 1126 188 871 -15 613 -15 c 0
 385 -15 228 141 228 349 c 0
 228 378 231 408 237 438 c 2
 312 786 l 1
 622 786 l 2
 643 786 662 801 667 822 c 2
 714 1041 l 1
 542 1041 l 1
EndSplineSet
EndChar

StartChar: uni0E03
Encoding: 211 3587 227
Width: 1228
VWidth: 2849
Flags: W
HStem: -13 152<491.394 814.518> 634 152<436 667.625> 1176 20G<745.435 902 1177.75 1339>
VStem: 228 159<241.622 602.25> 1182 157<1039 1196>
DStem2: 141.137 -13 297.137 -13 0.207912 0.978148<434.536 694.167> 925.137 -13 1081.14 -13 0.207912 0.978148<294.924 1235.99>
LayerCount: 2
Fore
SplineSet
643 1081 m 1
 767 1196 l 1
 902 1196 l 1
 824 824 l 2
 801 718 696 634 589 634 c 2
 436 634 l 1
 393 438 l 2
 389 419 387 399 387 378 c 0
 387 242 493 139 643 139 c 0
 818 139 985 273 1021 438 c 2
 1182 1196 l 1
 1339 1196 l 1
 1177 438 l 2
 1126 188 871 -13 611 -13 c 0
 385 -13 228 141 228 346 c 0
 228 376 231 408 237 438 c 2
 312 786 l 1
 620 786 l 2
 643 786 662 803 667 824 c 2
 690 933 l 1
 555 810 l 1
 544 949 495 1025 389 1088 c 1
 495 1222 l 1
 566 1179 602 1149 643 1081 c 1
EndSplineSet
EndChar

StartChar: uni0E04
Encoding: 212 3588 228
Width: 1224
VWidth: 2849
Flags: W
HStem: 0 21G<143 306.223 927 1089.24> 521 152<444 720> 1057 152<667.704 990.437>
VStem: 143 159<0 159> 927 158<0 158> 1094 160<690.039 956.366>
DStem2: 143 0 302 0 0.207912 0.978148<33.058 565.543 720.875 971.313> 927 0 1085 0 0.207912 0.978148<32.85 833.882>
LayerCount: 2
Fore
SplineSet
806 673 m 1
 720 521 l 1
 412 521 l 1
 302 0 l 1
 143 0 l 1
 305 754 l 2
 356 1006 611 1209 871 1209 c 0
 1097 1209 1254 1053 1254 846 c 0
 1254 818 1251 786 1245 754 c 2
 1085 0 l 1
 927 0 l 1
 1088 754 l 2
 1092 775 1094 797 1094 818 c 0
 1094 953 989 1057 839 1057 c 0
 665 1057 497 922 461 754 c 2
 444 673 l 1
 806 673 l 1
EndSplineSet
EndChar

StartChar: uni0E05
Encoding: 213 3589 229
Width: 1228
VWidth: 2849
Flags: W
HStem: 0 21G<145 306.299 929 1089.3> 521 152<446 718> 865 154<756.86 930.496> 1189 20G<1054.33 1103.11>
VStem: 145 157<0 157> 929 156<0 156> 1104 161<723.399 994.674>
DStem2: 145 0 302 0 0.207912 0.978148<32.6421 565.543 720.875 1015.53> 929 0 1085 0 0.207912 0.978148<32.4342 881.289>
LayerCount: 2
Fore
SplineSet
803 673 m 1
 718 521 l 1
 414 521 l 1
 302 0 l 1
 145 0 l 1
 312 786 l 2
 346 951 450 1090 600 1173 c 2
 671 1213 l 1
 703 1151 l 2
 745 1066 784 1019 833 1019 c 0
 880 1019 938 1059 1019 1149 c 2
 1072 1209 l 1
 1128 1173 l 2
 1224 1110 1265 1006 1265 891 c 0
 1265 857 1260 822 1254 786 c 2
 1085 0 l 1
 929 0 l 1
 1094 786 l 2
 1102 812 1104 839 1104 865 c 0
 1104 918 1090 963 1063 998 c 1
 987 929 895 865 799 865 c 0
 703 865 638 929 593 998 c 1
 530 947 487 873 470 786 c 2
 446 673 l 1
 803 673 l 1
EndSplineSet
EndChar

StartChar: uni0E06
Encoding: 214 3590 230
Width: 1224
VWidth: 2849
Flags: W
HStem: -13 152<605.651 873.916> 634 152<436 667.625> 1176 20G<745.435 902 1177.75 1339>
VStem: 143 159<0 159> 1182 157<1039 1196>
DStem2: 140.237 -13 299.237 -13 0.207912 0.978148<46.3484 288.565 567.773 694.354> 925.137 -13 1081.14 -13 0.207912 0.978148<249.456 1235.99>
LayerCount: 2
Fore
SplineSet
389 1088 m 1
 495 1222 l 1
 566 1179 602 1149 643 1081 c 1
 767 1196 l 1
 902 1196 l 1
 824 824 l 2
 801 718 696 634 589 634 c 2
 436 634 l 1
 421 557 l 2
 416 542 416 526 416 508 c 0
 416 340 585 139 732 139 c 0
 912 139 989 295 1021 438 c 2
 1182 1196 l 1
 1339 1196 l 1
 1177 438 l 2
 1126 197 969 -13 698 -13 c 0
 549 -13 427 103 352 237 c 1
 302 0 l 1
 143 0 l 1
 312 786 l 1
 620 786 l 2
 643 786 662 803 667 824 c 2
 690 933 l 1
 555 810 l 1
 540 967 495 1025 389 1088 c 1
EndSplineSet
EndChar

StartChar: uni0E07
Encoding: 215 3591 231
Width: 1224
VWidth: 2849
Flags: W
HStem: -15 152<491.394 814.518> 1041 153<833 987.476>
VStem: 228 159<236.015 610.125> 1090 161<575.297 942.01>
DStem2: 140.712 -15 296.712 -15 0.207912 0.978148<434.581 879.877> 924.712 -15 1080.71 -15 0.207912 0.978148<296.628 833.616>
LayerCount: 2
Fore
SplineSet
322 846 m 1
 493 897 l 1
 393 438 l 2
 389 419 387 396 387 376 c 0
 387 239 493 137 643 137 c 0
 818 137 985 271 1021 438 c 2
 1083 741 l 2
 1088 761 1090 784 1090 803 c 0
 1090 938 987 1041 835 1041 c 2
 801 1041 l 1
 833 1194 l 1
 869 1194 l 2
 1094 1194 1251 1036 1251 833 c 0
 1251 803 1249 773 1243 741 c 2
 1177 438 l 2
 1126 188 871 -15 611 -15 c 0
 385 -15 228 141 228 346 c 0
 228 376 231 408 237 438 c 2
 322 846 l 1
EndSplineSet
EndChar

StartChar: uni0E08
Encoding: 216 3592 232
Width: 1177
VWidth: 2849
Flags: W
HStem: 0 21G<880 1040.3> 521 152<714 989> 1057 152<620.393 943.646>
VStem: 248 160<720 845.902> 880 156<0 156> 1047 160<678.789 956.561>
DStem2: 880 0 1036 0 0.207912 0.978148<32.4342 532.277 688.025 830.061>
LayerCount: 2
Fore
SplineSet
628 521 m 1
 714 673 l 1
 1023 673 l 1
 1041 754 l 2
 1045 775 1047 795 1047 814 c 0
 1047 953 944 1057 790 1057 c 0
 618 1057 450 922 414 754 c 2
 408 720 l 1
 248 720 l 1
 255 754 l 2
 309 1006 564 1209 824 1209 c 0
 1050 1209 1207 1053 1207 846 c 0
 1207 818 1204 786 1198 754 c 2
 1036 0 l 1
 880 0 l 1
 989 521 l 1
 628 521 l 1
EndSplineSet
EndChar

StartChar: uni0E09
Encoding: 217 3593 233
Width: 1174
VWidth: 2849
Flags: W
HStem: -9 152<423.004 677.944> 1057 152<618.162 941.414>
VStem: 231 158<174.379 501.188> 252 160<754 914> 878 156<0 156> 1045 159<585.344 956.561>
DStem2: 876.087 -9 1032.09 -9 0.207912 0.978148<41.6353 234.165 414.17 839.262>
LayerCount: 2
Fore
SplineSet
143 502 m 1xec
 228 654 l 1
 453 654 l 1
 408 446 l 2
 396 389 389 342 389 305 c 0xec
 389 179 448 143 538 143 c 0
 707 143 961 391 996 557 c 2
 1038 754 l 2
 1043 775 1045 795 1045 814 c 0
 1045 953 942 1057 788 1057 c 0
 615 1057 448 922 412 754 c 9
 252 754 l 17xdc
 307 1006 562 1209 822 1209 c 0
 1047 1209 1204 1053 1204 846 c 0
 1204 818 1202 786 1196 754 c 2
 1034 0 l 1
 878 0 l 1
 925 220 l 1
 799 92 645 -9 506 -9 c 0
 295 -9 231 121 231 280 c 0
 231 333 237 389 248 446 c 2
 262 502 l 1
 143 502 l 1xec
EndSplineSet
EndChar

StartChar: uni0E0A
Encoding: 218 3594 234
Width: 1224
VWidth: 2849
Flags: W
HStem: -15 152<491.394 814.518> 634 152<436 666.755> 822 152<857 1058.31> 1041 153<626 712>
VStem: 228 159<236.015 602.25> 712 145<974 1041> 1074 159<491.672 808.864>
DStem2: 140.712 -15 296.712 -15 0.207912 0.978148<434.581 696.212> 924.712 -15 1080.71 -15 0.207912 0.978148<296.628 741.419 1032.42 1236.07>
LayerCount: 2
Fore
SplineSet
542 1041 m 1
 626 1194 l 1
 902 1194 l 1
 857 974 l 1
 1008 974 l 2
 1090 974 1149 1038 1166 1124 c 2
 1182 1194 l 1
 1339 1194 l 1
 1323 1124 l 2
 1305 1032 1247 951 1171 895 c 1
 1211 853 1233 795 1233 732 c 0
 1233 709 1231 690 1226 667 c 2
 1177 438 l 2
 1126 188 871 -15 611 -15 c 0
 385 -15 228 141 228 346 c 0
 228 376 231 408 237 438 c 2
 312 786 l 1
 620 786 l 2
 643 786 662 801 667 822 c 2
 712 1041 l 1
 542 1041 l 1
976 822 m 2
 824 822 l 1
 801 718 696 634 589 634 c 2
 436 634 l 1
 393 438 l 2
 389 419 387 396 387 376 c 0
 387 239 493 137 643 137 c 0
 818 137 985 271 1021 438 c 2
 1070 667 l 2
 1072 681 1074 696 1074 712 c 0
 1074 763 1055 822 976 822 c 2
EndSplineSet
EndChar

StartChar: uni0E0B
Encoding: 219 3595 235
Width: 1224
VWidth: 2849
Flags: W
HStem: -15 152<491.394 814.518> 634 152<436 666.755> 822 152<857 1058.31> 1176 18G<745.435 902 1177.43 1339>
VStem: 228 159<236.015 602.25> 1074 159<491.672 808.864>
DStem2: 140.712 -15 296.712 -15 0.207912 0.978148<434.581 696.212> 924.712 -15 1080.71 -15 0.207912 0.978148<296.628 741.419 1032.42 1236.07>
LayerCount: 2
Fore
SplineSet
976 822 m 2
 824 822 l 1
 801 718 696 634 589 634 c 2
 436 634 l 1
 393 438 l 2
 389 419 387 396 387 376 c 0
 387 239 493 137 643 137 c 0
 818 137 985 271 1021 438 c 2
 1070 667 l 2
 1072 681 1074 696 1074 712 c 0
 1074 763 1055 822 976 822 c 2
389 1088 m 1
 495 1222 l 1
 566 1179 602 1149 643 1081 c 1
 767 1196 l 1
 902 1194 l 1
 857 974 l 1
 1008 974 l 2
 1090 974 1149 1038 1166 1124 c 2
 1182 1194 l 1
 1339 1194 l 1
 1323 1124 l 2
 1305 1032 1247 951 1171 895 c 1
 1211 853 1233 795 1233 732 c 0
 1233 709 1231 690 1226 667 c 2
 1177 438 l 2
 1126 188 871 -15 611 -15 c 0
 385 -15 228 141 228 346 c 0
 228 376 231 408 237 438 c 2
 312 786 l 1
 620 786 l 2
 643 786 662 801 667 822 c 2
 690 933 l 1
 555 810 l 1
 542 955 495 1025 389 1088 c 1
EndSplineSet
EndChar

StartChar: uni0E0C
Encoding: 220 3596 236
Width: 1875
VWidth: 2849
Flags: W
HStem: -17 151<1297.6 1547.09> 0 152<333 380> 1057 152<617.526 952.686> 1174 20G<1830.75 1993>
VStem: 886 159<0 159> 1055 158<586.023 959.32> 1835 158<1036 1194>
DStem2: 139.387 -17 297.078 -17 0.207912 0.978148<205.561 730.75> 882.387 -17 1041.39 -17 0.207912 0.978148<50.4377 246.559 549.181 855.59> 1577.71 -17 1734.71 -17 0.207912 0.978148<222.488 1238.03>
LayerCount: 2
Fore
SplineSet
1164 555 m 2x6e
 1160 532 1157 508 1157 485 c 0
 1157 314 1278 134 1412 134 c 0
 1531 134 1623 199 1674 436 c 2
 1835 1194 l 1
 1993 1194 l 1
 1831 436 l 2
 1762 111 1589 -17 1382 -17 c 0x9e
 1254 -17 1151 69 1085 192 c 1
 1045 0 l 1
 886 0 l 1
 1047 754 l 2
 1053 779 1055 801 1055 822 c 0
 1055 972 936 1057 799 1057 c 0
 679 1057 538 998 455 861 c 1
 604 765 l 1
 549 743 448 685 419 555 c 2
 333 152 l 1
 466 152 l 1
 380 0 l 1
 143 0 l 1
 262 555 l 2
 278 624 329 694 389 743 c 1
 273 810 l 1
 425 1147 696 1209 831 1209 c 0
 1057 1209 1213 1053 1213 846 c 0
 1213 818 1211 786 1204 754 c 2
 1164 555 l 2x6e
EndSplineSet
EndChar

StartChar: uni0E0D
Encoding: 221 3597 237
Width: 1884
VWidth: 2839
Flags: W
HStem: -325 150<1148.35 1424.21> -15 152<1216.48 1492.36> 0 152<333 380> 1057 152<617.526 952.686> 1174 20G<1832.82 1997>
VStem: 967 163<222.828 590.547> 1055 158<585.594 959.32> 1837 160<1034 1194>
DStem2: 73.9191 -325 231.611 -325 0.207912 0.978148<520.442 1045.63> 816.244 -325 974.819 -325 0.207912 0.978148<745.078 1170.61> 1512.51 -325 1674.29 -325 0.207912 0.978148<283.449 430.405 596.73 1553.27>
LayerCount: 2
Fore
SplineSet
1047 754 m 2xcd
 1053 779 1055 801 1055 822 c 0
 1055 972 936 1057 799 1057 c 0
 679 1057 538 998 455 861 c 1
 604 765 l 1
 549 743 448 685 419 555 c 2
 333 152 l 1
 466 152 l 1
 380 0 l 1
 143 0 l 1
 262 555 l 2
 278 624 329 694 389 743 c 1
 273 810 l 1
 425 1147 696 1209 831 1209 c 0
 1057 1209 1213 1053 1213 846 c 0xb3
 1213 818 1211 786 1204 754 c 2
 1137 438 l 2
 1132 414 1130 391 1130 369 c 0
 1130 233 1220 137 1345 137 c 0
 1489 137 1641 267 1679 438 c 2
 1837 1194 l 1
 1997 1194 l 1
 1771 130 l 2
 1719 -114 1491 -325 1247 -325 c 0
 1032 -325 961 -177 933 -128 c 1
 1085 -51 l 1
 1102 -81 1149 -175 1278 -175 c 0
 1410 -175 1570 -56 1602 96 c 1
 1523 25 1414 -15 1312 -15 c 0
 1102 -15 967 139 967 338 c 0
 967 369 972 403 978 436 c 2
 1047 754 l 2xcd
EndSplineSet
Substitution2: "Thai Descender Removal Single Substitution" uni0E0D.descless
EndChar

StartChar: uni0E0E
Encoding: 222 3598 238
Width: 1185
VWidth: 2835
Flags: W
HStem: -396 152<-20 320> 0 152<111 175> 1057 152<617.683 952.956>
VStem: 1055 160<689.422 955.294>
DStem2: 58.519 -396 217.828 -396 0.207912 0.978148<560.243 1118.83> 320 -244 338 -396 0.855969 0.517028<0 224.764> 801.291 -396 961 -396 0.207912 0.978148<171.753 1243.17>
AnchorPoint: "BelowBase" 955 -425 basechar 0
LayerCount: 2
Fore
SplineSet
27 0 m 1
 111 152 l 1
 175 152 l 1
 262 555 l 2
 278 626 329 694 391 743 c 1
 273 810 l 1
 427 1147 696 1209 831 1209 c 0
 1059 1209 1215 1053 1215 844 c 0
 1215 814 1213 786 1207 754 c 2
 961 -396 l 1
 786 -396 l 1
 585 -248 l 1
 338 -396 l 1
 -107 -396 l 1
 -20 -244 l 1
 320 -244 l 1
 618 -64 l 1
 837 -228 l 1
 1047 754 l 2
 1053 779 1055 801 1055 822 c 0
 1055 972 936 1057 797 1057 c 0
 679 1057 538 998 455 861 c 1
 604 765 l 1
 549 743 448 685 421 555 c 2
 302 0 l 1
 27 0 l 1
EndSplineSet
EndChar

StartChar: uni0E0F
Encoding: 223 3599 239
Width: 1185
VWidth: 2835
Flags: W
HStem: -425 21G<440.35 484.521> -399 153<-20 114> 0 152<111 175> 1057 152<625.271 952.956>
VStem: 1055 160<689.252 955.294>
DStem2: 52.3549 -425 211.663 -425 0.207912 0.978148<589.891 1147.92> 795.875 -425 955.474 -425 0.207912 0.978148<221.848 1272.66>
AnchorPoint: "BelowBase" 955 -425 basechar 0
LayerCount: 2
Fore
SplineSet
27 0 m 1
 111 152 l 1
 175 152 l 1
 262 555 l 2
 275 624 329 694 391 743 c 1
 273 810 l 1
 427 1144 696 1209 831 1209 c 0
 1059 1209 1215 1053 1215 844 c 0
 1215 814 1213 786 1207 754 c 2
 961 -399 l 1
 775 -399 l 1
 667 -262 l 1
 459 -425 l 1
 307 -262 l 1
 154 -399 l 1
 -107 -399 l 1
 -20 -246 l 1
 114 -246 l 1
 333 -49 l 1
 495 -220 l 1
 712 -49 l 1
 842 -208 l 1
 1047 754 l 2
 1053 779 1055 801 1055 822 c 0
 1055 972 936 1057 797 1057 c 0
 679 1057 538 996 455 859 c 1
 604 765 l 1
 549 743 448 685 421 555 c 2
 302 0 l 1
 27 0 l 1
EndSplineSet
EndChar

StartChar: uni0E10
Encoding: 224 3600 240
Width: 1194
VWidth: 2835
Flags: W
HStem: -481 21G<438.118 482.839> -455 153<-25 111> 0 21G<897 1059.24> 521 152<732 1008> 1057 152<638.178 961.586>
VStem: 267 158<720 845.902> 897 158<0 158> 1063 163<678.789 958.058>
DStem2: 798.513 -481 953.474 -481 0.207912 0.978148<218.781 343.313 523.816 1023.66 1179.2 1324.64>
LayerCount: 2
Fore
SplineSet
712 -105 m 1
 844 -267 l 1
 869 -145 l 1
 826 -56 l 1
 1043 -56 l 1
 959 -455 l 1
 775 -455 l 1
 665 -320 l 1
 457 -481 l 1
 305 -320 l 1
 152 -455 l 1
 -109 -455 l 1
 -25 -302 l 1
 111 -302 l 1
 333 -105 l 1
 493 -275 l 1
 712 -105 l 1
647 521 m 1
 732 673 l 1
 1041 673 l 1
 1057 754 l 2
 1061 777 1063 797 1063 818 c 0
 1063 953 961 1057 808 1057 c 0
 636 1057 468 922 432 754 c 2
 425 720 l 1
 267 720 l 1
 273 754 l 2
 327 1006 581 1209 842 1209 c 0
 936 1209 1019 1179 1083 1132 c 1
 1220 1209 l 1
 1283 1083 l 1
 1179 1025 l 1
 1209 974 1226 914 1226 846 c 0
 1226 818 1222 786 1215 754 c 2
 1055 0 l 1
 897 0 l 1
 1008 521 l 1
 647 521 l 1
EndSplineSet
Substitution2: "Thai Descender Removal Single Substitution" uni0E10.descless
EndChar

StartChar: uni0E11
Encoding: 225 3601 241
Width: 1224
VWidth: 2849
Flags: W
HStem: 0 21G<143 303.338 927 1087.29> 1057 139<972.75 1133.11>
VStem: 143 156<0 156> 927 156<0 156> 1135 159<773.03 1055.36>
DStem2: 143 0 299 0 0.207912 0.978148<32.4342 631.165> 927 0 1083 0 0.207912 0.978148<32.4342 1017.26>
LayerCount: 2
Fore
SplineSet
252 1088 m 1
 356 1222 l 1
 427 1179 463 1149 504 1081 c 1
 628 1196 l 1
 765 1196 l 1
 726 1012 l 1
 848 1110 996 1209 1106 1209 c 0
 1251 1209 1294 1141 1294 1041 c 0
 1294 963 1269 869 1249 773 c 2
 1083 0 l 1
 927 0 l 1
 1090 773 l 2
 1113 878 1135 951 1135 998 c 0
 1135 1038 1119 1057 1072 1057 c 0
 996 1057 690 824 412 521 c 1
 299 0 l 1
 143 0 l 1
 262 557 l 2
 267 581 430 745 532 842 c 1
 551 936 l 1
 416 810 l 1
 406 947 359 1025 252 1088 c 1
EndSplineSet
EndChar

StartChar: uni0E12
Encoding: 226 3602 242
Width: 1948
VWidth: 2849
Flags: W
HStem: -13 152<429.804 653.891 1372.17 1618.64> 600 152<575 737.226> 865 151<792.655 958.103> 1176 20G<1900.8 2064>
VStem: 211 161<202.282 642.992> 775 161<278.34 570.003> 959 158<0 158> 1135 161<740.596 990.677> 1905 159<1037 1196>
DStem2: 956.237 -13 1114.24 -13 0.207912 0.978148<46.1405 245.196 546.973 896.883> 1650.14 -13 1807.14 -13 0.207912 0.978148<231.531 1235.57>
LayerCount: 2
Fore
SplineSet
524 139 m 0
 690 139 775 314 775 448 c 0
 775 534 732 600 651 600 c 2
 491 600 l 1
 575 752 l 1
 683 752 l 2
 859 752 936 624 936 477 c 0
 936 307 814 -13 491 -13 c 0
 293 -13 211 158 211 367 c 0
 211 698 399 1027 665 1194 c 2
 698 1215 l 1
 714 1184 l 2
 773 1057 831 1016 869 1016 c 0
 904 1016 974 1057 1088 1182 c 2
 1113 1211 l 1
 1137 1191 l 2
 1235 1115 1296 1003 1296 878 c 0
 1296 850 1292 824 1288 797 c 2
 1235 557 l 2
 1231 534 1229 513 1229 487 c 0
 1229 318 1350 139 1486 139 c 0
 1602 139 1694 203 1746 438 c 2
 1905 1196 l 1
 2064 1196 l 1
 1903 438 l 2
 1833 114 1661 -13 1453 -13 c 0
 1325 -13 1222 72 1157 195 c 1
 1117 0 l 1
 959 0 l 1
 1128 797 l 2
 1132 822 1135 844 1135 867 c 0
 1135 916 1124 959 1097 994 c 1
 1012 920 918 865 835 865 c 0
 743 865 673 922 626 994 c 1
 450 837 372 579 372 393 c 0
 372 244 425 139 524 139 c 0
EndSplineSet
EndChar

StartChar: uni0E13
Encoding: 227 3603 243
Width: 1877
VWidth: 2849
Flags: W
HStem: -17 151<1152.12 1399.94> 0 21G<143 389.184 1578 1741.24> 1057 152<621.971 952.493> 1174 20G<1828.71 1990>
VStem: 959 160<165.918 555.25> 1055 158<694.794 956.366> 1578 159<0 159> 1833 157<1037 1194>
DStem2: 139.387 -17 297.078 -17 0.207912 0.978148<205.561 730.873> 881.712 -17 1040.71 -17 0.207912 0.978148<356.267 857.685> 1574.39 -17 1733.39 -17 0.207912 0.978148<50.4377 214.124 398.923 1238.31>
LayerCount: 2
Fore
SplineSet
463 152 m 1xa7
 378 0 l 1
 143 0 l 1
 262 555 l 2
 275 624 329 694 389 743 c 1
 271 810 l 1
 425 1144 696 1209 831 1209 c 0
 1057 1209 1213 1053 1213 846 c 0x67
 1213 818 1211 786 1204 754 c 2
 1137 436 l 2
 1126 380 1119 333 1119 295 c 0
 1119 173 1177 134 1265 134 c 0xab
 1417 134 1657 365 1696 555 c 2
 1833 1194 l 1
 1990 1194 l 1
 1737 0 l 1
 1578 0 l 1x5b
 1621 192 l 1
 1502 69 1363 -17 1235 -17 c 0
 1068 -17 959 67 959 269 c 0x8b
 959 318 965 374 978 436 c 2
 1045 754 l 2
 1050 779 1055 803 1055 824 c 0
 1055 974 936 1057 797 1057 c 0
 679 1057 538 996 453 859 c 1
 602 765 l 1
 546 743 446 685 419 555 c 2
 333 152 l 1
 463 152 l 1xa7
EndSplineSet
EndChar

StartChar: uni0E14
Encoding: 228 3604 244
Width: 1256
VWidth: 2849
Flags: W
HStem: -13 150<432.277 649.087> 600 152<575 737.226> 1057 152<693.939 1018.22>
VStem: 211 161<198.883 635.984> 775 161<272.698 568.526> 959 158<0 158> 1126 162<690.787 951.971>
DStem2: 956.237 -13 1114.24 -13 0.207912 0.978148<46.1405 843.352>
LayerCount: 2
Fore
SplineSet
524 137 m 0
 692 137 775 316 775 446 c 0
 775 532 732 600 651 600 c 2
 491 600 l 1
 575 752 l 1
 683 752 l 2
 859 752 936 622 936 474 c 0
 936 252 771 -13 491 -13 c 0
 312 -13 211 134 211 363 c 0
 211 743 472 1209 897 1209 c 0
 1124 1209 1288 1050 1288 842 c 0
 1288 812 1285 784 1278 754 c 2
 1117 0 l 1
 959 0 l 1
 1119 754 l 2
 1124 775 1126 795 1126 814 c 0
 1126 953 1016 1057 865 1057 c 0
 562 1057 372 690 372 389 c 0
 372 239 425 137 524 137 c 0
EndSplineSet
EndChar

StartChar: uni0E15
Encoding: 229 3605 245
Width: 1256
VWidth: 2849
Flags: W
HStem: -13 152<429.804 653.891> 598 154<575 737.226> 859 151<789.901 956.807> 1189 20G<666.696 706.75 1093.69 1137>
VStem: 211 161<202.282 644.886> 775 161<278.561 565.86> 959 158<0 158> 1135 159<726.014 985.213>
DStem2: 956.237 -13 1114.24 -13 0.207912 0.978148<46.1405 889.101>
LayerCount: 2
Fore
SplineSet
524 139 m 0
 690 139 775 316 775 446 c 0
 775 532 732 598 649 598 c 2
 491 598 l 1
 575 752 l 1
 683 752 l 2
 859 752 936 624 936 477 c 0
 936 307 814 -13 491 -13 c 0
 293 -13 211 158 211 367 c 0
 211 696 393 1019 662 1186 c 2
 698 1209 l 1
 712 1177 l 2
 773 1050 828 1010 867 1010 c 0
 904 1010 972 1053 1085 1175 c 2
 1113 1204 l 1
 1137 1184 l 2
 1233 1108 1294 998 1294 873 c 0
 1294 846 1292 820 1285 790 c 2
 1117 0 l 1
 959 0 l 1
 1126 790 l 2
 1130 814 1135 837 1135 859 c 0
 1135 908 1121 951 1094 989 c 1
 1012 914 916 859 835 859 c 0
 743 859 673 916 624 987 c 1
 481 857 372 628 372 393 c 0
 372 244 425 139 524 139 c 0
EndSplineSet
EndChar

StartChar: uni0E16
Encoding: 230 3606 246
Width: 1185
VWidth: 2849
Flags: W
HStem: 0 152<333 380> 1057 152<617.526 952.686>
VStem: 886 159<0 159> 1055 158<690.039 956.366>
DStem2: 143 0 300.691 0 0.207912 0.978148<188.182 713.371> 886 0 1045 0 0.207912 0.978148<33.058 838.211>
LayerCount: 2
Fore
SplineSet
466 152 m 1
 380 0 l 1
 143 0 l 1
 262 555 l 2
 278 624 329 694 389 743 c 1
 273 810 l 1
 425 1147 696 1209 831 1209 c 0
 1057 1209 1213 1053 1213 846 c 0
 1213 818 1211 786 1204 754 c 2
 1045 0 l 1
 886 0 l 1
 1047 754 l 2
 1053 779 1055 801 1055 822 c 0
 1055 972 936 1057 799 1057 c 0
 679 1057 538 998 455 861 c 1
 604 765 l 1
 549 743 448 685 419 555 c 2
 333 152 l 1
 466 152 l 1
EndSplineSet
EndChar

StartChar: uni0E17
Encoding: 231 3607 247
Width: 1228
VWidth: 2849
Flags: W
HStem: 0 21G<145 306.277 929 1089.3> 1057 139<786.819 1053>
VStem: 145 157<0 157> 399 158<1038 1196> 929 156<0 156> 1102 160<624.406 1006.54>
DStem2: 145 0 302 0 0.207912 0.978148<32.6421 845.331 1013.1 1222.67> 929 0 1085 0 0.207912 0.978148<32.4342 884.235>
LayerCount: 2
Fore
SplineSet
145 0 m 1
 399 1196 l 1
 557 1196 l 1
 506 959 l 1
 638 1092 810 1209 961 1209 c 0
 1175 1209 1262 1074 1262 895 c 0
 1262 850 1258 803 1247 754 c 2
 1085 0 l 1
 929 0 l 1
 1088 754 l 2
 1097 792 1102 831 1102 869 c 0
 1102 972 1061 1057 927 1057 c 0
 767 1057 474 814 438 636 c 2
 302 0 l 1
 145 0 l 1
EndSplineSet
EndChar

StartChar: uni0E18
Encoding: 232 3608 248
Width: 1228
VWidth: 2849
Flags: W
HStem: 0 152<336 817.418> 521 152<446 1038> 1057 152<669.597 992.057>
VStem: 242 157<298 455> 1094 162<754 957.014>
DStem2: 145 0 303.691 0 0.207912 0.978148<188.39 465.225 720.875 971.238> 928.287 0 1085.29 0 0.207912 0.978148<297.574 532.426>
LayerCount: 2
Fore
SplineSet
145 0 m 1
 242 455 l 1
 399 455 l 1
 336 152 l 1
 647 152 l 2
 822 152 989 286 1025 455 c 2
 1038 521 l 1
 255 521 l 1
 305 754 l 2
 359 1006 613 1209 873 1209 c 0
 1100 1209 1256 1053 1256 846 c 0
 1256 818 1254 786 1247 754 c 9
 1088 754 l 17
 1092 777 1094 797 1094 818 c 0
 1094 953 991 1057 839 1057 c 0
 667 1057 500 922 463 754 c 2
 446 673 l 1
 1229 673 l 1
 1182 455 l 2
 1130 203 875 0 615 0 c 2
 145 0 l 1
EndSplineSet
EndChar

StartChar: uni0E19
Encoding: 233 3609 249
Width: 1228
VWidth: 2849
Flags: W
HStem: -9 152<432.997 700.218> 1174 20G<394.722 557 1177.76 1341>
VStem: 224 161<191.985 586.25> 399 158<1036 1194> 929 156<0 156> 1182 159<1035 1194>
DStem2: 142.287 -9 299.287 -9 0.207912 0.978148<389.576 1230.09> 927.087 -9 1083.09 -9 0.207912 0.978148<41.6353 251.21 422.962 1229.71>
LayerCount: 2
Fore
SplineSet
399 1194 m 1
 557 1194 l 1
 396 446 l 2
 389 410 385 372 385 336 c 0
 385 231 425 143 557 143 c 0
 730 143 1012 391 1047 557 c 2
 1182 1194 l 1
 1341 1194 l 1
 1085 0 l 1
 929 0 l 1
 978 237 l 1
 846 105 673 -9 526 -9 c 0
 309 -9 224 126 224 302 c 0
 224 349 228 396 239 446 c 2
 399 1194 l 1
EndSplineSet
EndChar

StartChar: uni0E1A
Encoding: 234 3610 250
Width: 1228
VWidth: 2849
Flags: W
HStem: -15 152<492.834 815.386> 1174 20G<394.714 560 1174.77 1341>
VStem: 228 163<236.384 603.375> 399 161<1033 1194> 1179 162<1032 1194>
DStem2: 140.712 -15 302.712 -15 0.207912 0.978148<435.411 1236.28> 922.712 -15 1082.71 -15 0.207912 0.978148<297.216 1235.87>
LayerCount: 2
Fore
SplineSet
399 1194 m 1
 560 1194 l 1
 399 438 l 2
 393 416 391 396 391 376 c 0
 391 237 493 137 645 137 c 0
 820 137 983 271 1019 438 c 2
 1179 1194 l 1
 1341 1194 l 1
 1179 438 l 2
 1126 188 871 -15 613 -15 c 0
 385 -15 228 141 228 349 c 0
 228 378 231 408 237 438 c 2
 399 1194 l 1
EndSplineSet
EndChar

StartChar: uni0E1B
Encoding: 235 3611 251
Width: 1228
VWidth: 2853
Flags: W
HStem: -15 152<493.344 815.816> 1174 20G<394.767 557>
VStem: 231 160<235.579 603.375> 399 158<1036 1194> 1238 161<1315 1476>
DStem2: 142.712 -15 302.712 -15 0.207912 0.978148<434.995 1235.87> 922.712 -15 1082.71 -15 0.207912 0.978148<297.281 1523.97>
AnchorPoint: "AboveBase" 1114 1271 basechar 0
LayerCount: 2
Fore
SplineSet
399 1194 m 1
 557 1194 l 1
 399 438 l 2
 393 416 391 396 391 376 c 0
 391 237 493 137 645 137 c 0
 820 137 983 271 1019 438 c 2
 1238 1476 l 1
 1399 1476 l 1
 1179 438 l 2
 1126 188 873 -15 613 -15 c 0
 387 -15 231 141 231 346 c 0
 231 376 233 408 239 438 c 2
 399 1194 l 1
EndSplineSet
EndChar

StartChar: uni0E1C
Encoding: 236 3612 252
Width: 1326
VWidth: 2849
Flags: W
HStem: -15 152<409.812 575.312 825.177 1020.49> 1045 153<591.898 698>
VStem: 211 158<172.926 655.771> 842 154<1040 1194> 1283 159<1035 1194>
DStem2: 583.567 -15 739.567 -15 0.207912 0.978148<321.324 1236.31> 1025.57 -15 1183.57 -15 0.207912 0.978148<192.528 1236.1>
LayerCount: 2
Fore
SplineSet
662 1045 m 2
 546 1045 369 696 369 369 c 0
 369 218 416 137 470 137 c 0
 593 137 645 275 662 354 c 2
 842 1194 l 1
 996 1194 l 1
 818 354 l 2
 810 322 806 291 806 265 c 0
 806 192 833 137 916 137 c 0
 1030 137 1081 246 1104 354 c 2
 1283 1194 l 1
 1442 1194 l 1
 1262 354 l 2
 1209 103 1047 -15 882 -15 c 0
 797 -15 728 36 687 114 c 1
 613 36 521 -15 438 -15 c 0
 291 -15 211 116 211 336 c 0
 211 687 406 1198 696 1198 c 2
 730 1198 l 1
 698 1045 l 1
 662 1045 l 2
EndSplineSet
EndChar

StartChar: uni0E1D
Encoding: 237 3613 253
Width: 1326
VWidth: 2853
Flags: W
HStem: -15 152<409.812 575.838 825.933 1021.58> 1043 153<591.898 698>
VStem: 211 158<172.867 654.587> 839 157<1037 1194> 1343 157<1319 1476>
DStem2: 583.567 -15 741.567 -15 0.207912 0.978148<316.986 1235.69> 1027.57 -15 1183.57 -15 0.207912 0.978148<193.974 1524>
AnchorPoint: "AboveBase" 1212 1271 basechar 0
LayerCount: 2
Fore
SplineSet
662 1043 m 2
 546 1043 369 698 369 367 c 0
 369 218 416 137 470 137 c 0
 593 137 645 273 662 354 c 2
 839 1194 l 1
 996 1194 l 1
 820 354 l 2
 812 322 808 289 808 260 c 0
 808 190 833 137 916 137 c 0
 1030 137 1081 246 1106 354 c 2
 1343 1476 l 1
 1500 1476 l 1
 1262 354 l 2
 1209 101 1050 -15 884 -15 c 0
 799 -15 728 34 687 111 c 1
 613 34 524 -15 438 -15 c 0
 291 -15 211 116 211 336 c 0
 211 683 406 1196 696 1196 c 2
 732 1196 l 1
 698 1043 l 1
 662 1043 l 2
EndSplineSet
EndChar

StartChar: uni0E1E
Encoding: 238 3614 254
Width: 1365
VWidth: 2849
Flags: W
HStem: -15 152<385.955 591.997 850.075 1055.45> 1174 20G<391.81 555 854.762 1016 1315.81 1480>
VStem: 205 160<155.563 485.25> 396 159<1035 1194> 859 157<1037 1194> 1320 160<1034 1194>
DStem2: 141.567 -15 297.567 -15 0.207912 0.978148<323.487 1235.48> 602.567 -15 760.567 -15 0.207912 0.978148<325.86 1235.9> 1065.57 -15 1222.57 -15 0.207912 0.978148<199.955 1235.48>
LayerCount: 2
Fore
SplineSet
396 1194 m 1
 555 1194 l 1
 376 354 l 2
 369 322 365 293 365 267 c 0
 365 192 393 137 479 137 c 0
 609 137 662 269 681 354 c 2
 859 1194 l 1
 1016 1194 l 1
 839 354 l 2
 833 325 828 295 828 269 c 0
 828 195 857 137 944 137 c 0
 1066 137 1119 248 1144 354 c 2
 1320 1194 l 1
 1480 1194 l 1
 1301 354 l 2
 1247 101 1083 -15 914 -15 c 0
 824 -15 752 36 709 116 c 1
 634 36 538 -15 450 -15 c 0
 309 -15 205 64 205 237 c 0
 205 271 211 312 220 354 c 2
 396 1194 l 1
EndSplineSet
EndChar

StartChar: uni0E1F
Encoding: 239 3615 255
Width: 1365
VWidth: 2853
Flags: W
HStem: -15 152<386.725 592.105 850.356 1055.73> 1174 20G<391.81 555 852.81 1016>
VStem: 205 162<155.229 485.25> 396 159<1035 1194> 857 159<1035 1194> 1382 156<1320 1476>
DStem2: 141.567 -15 299.567 -15 0.207912 0.978148<319.149 1235.48> 602.567 -15 760.567 -15 0.207912 0.978148<325.86 1235.48> 1065.57 -15 1222.57 -15 0.207912 0.978148<199.955 1524.21>
AnchorPoint: "AboveBase" 1250 1271 basechar 0
LayerCount: 2
Fore
SplineSet
396 1194 m 1
 555 1194 l 1
 378 354 l 2
 372 322 367 291 367 262 c 0
 367 190 393 137 479 137 c 0
 609 137 662 269 681 354 c 2
 857 1194 l 1
 1016 1194 l 1
 839 354 l 2
 833 325 828 295 828 269 c 0
 828 195 857 137 944 137 c 0
 1066 137 1121 248 1144 354 c 2
 1382 1476 l 1
 1538 1476 l 1
 1301 354 l 2
 1247 101 1083 -15 914 -15 c 0
 826 -15 750 36 709 116 c 1
 632 36 540 -15 453 -15 c 0
 309 -15 205 64 205 237 c 0
 205 271 211 312 220 354 c 2
 396 1194 l 1
EndSplineSet
EndChar

StartChar: uni0E20
Encoding: 240 3616 256
Width: 1183
VWidth: 2849
Flags: W
HStem: 0 152<103 175> 1057 152<614.966 951.304>
VStem: 884 159<0 159> 1053 160<690.416 955.294>
DStem2: 142.691 0 299 0 0.207912 0.978148<155.396 713.557> 884 0 1043 0 0.207912 0.978148<33.058 838.21>
LayerCount: 2
Fore
SplineSet
17 0 m 1
 103 152 l 1
 175 152 l 1
 260 555 l 2
 275 624 329 694 387 743 c 1
 271 810 l 1
 425 1147 694 1209 828 1209 c 0
 1057 1209 1213 1053 1213 844 c 0
 1213 814 1211 786 1204 754 c 2
 1043 0 l 1
 884 0 l 1
 1045 754 l 2
 1050 779 1053 801 1053 822 c 0
 1053 972 936 1057 797 1057 c 0
 675 1057 534 998 453 861 c 1
 602 765 l 1
 546 743 446 685 419 555 c 2
 299 0 l 1
 17 0 l 1
EndSplineSet
EndChar

StartChar: uni0E21
Encoding: 241 3617 257
Width: 1224
VWidth: 2849
Flags: W
HStem: -15 152<605.458 873.916> 0 21G<143 303.511> 1174 20G<391.762 555 1177.74 1339>
VStem: 143 156<0 156> 396 159<1035 1194> 1182 157<1037 1194>
DStem2: 139.812 -15 295.812 -15 0.207912 0.978148<47.7693 288.653 574.156 1235.85> 924.712 -15 1080.71 -15 0.207912 0.978148<250.966 1236.07>
LayerCount: 2
Fore
SplineSet
396 1194 m 1x7c
 555 1194 l 1
 419 557 l 2
 416 542 414 528 414 513 c 0
 414 340 585 137 732 137 c 0
 912 137 989 295 1021 438 c 2
 1182 1194 l 1
 1339 1194 l 1
 1177 438 l 2
 1126 197 969 -15 698 -15 c 0xbc
 549 -15 427 103 352 235 c 1
 299 0 l 1
 143 0 l 1
 396 1194 l 1x7c
EndSplineSet
EndChar

StartChar: uni0E22
Encoding: 242 3618 258
Width: 1224
VWidth: 2849
Flags: W
HStem: -15 152<472.823 832.051> 667 141<558.796 781> 1041 153<666.893 871>
VStem: 208 164<228.648 499.266> 1184 155<1039 1194>
DStem2: 928.663 -15 1082.66 -15 0.207912 0.978148<281.234 1235.67>
LayerCount: 2
Fore
SplineSet
208 322 m 0
 208 410 235 577 421 667 c 1
 286 667 l 1
 302 743 l 2
 356 994 609 1194 869 1194 c 2
 904 1194 l 1
 871 1041 l 1
 837 1041 l 2
 685 1041 540 944 481 808 c 1
 867 808 l 1
 781 667 l 1
 756 667 l 2
 566 667 372 546 372 356 c 0
 372 222 487 137 647 137 c 0
 820 137 983 246 1019 410 c 2
 1184 1194 l 1
 1339 1194 l 1
 1173 410 l 2
 1119 156 867 -15 611 -15 c 0
 387 -15 208 111 208 322 c 0
EndSplineSet
EndChar

StartChar: uni0E23
Encoding: 243 3619 259
Width: 1224
VWidth: 2849
Flags: W
HStem: 0 152<611 815.456> 521 152<444 1038> 1057 152<667.704 990.437>
VStem: 1094 160<754 957.014>
DStem2: 144.732 0 300.949 0 0.207912 0.978148<720.515 970.953> 926.287 0 1085.29 0 0.207912 0.978148<297.738 532.841>
LayerCount: 2
Fore
SplineSet
611 152 m 1
 647 152 l 2
 822 152 987 286 1023 455 c 2
 1038 521 l 1
 252 521 l 1
 305 754 l 2
 356 1006 611 1209 871 1209 c 0
 1097 1209 1254 1053 1254 846 c 0
 1254 818 1251 786 1245 754 c 9
 1088 754 l 17
 1092 775 1094 797 1094 818 c 0
 1094 953 989 1057 839 1057 c 0
 665 1057 497 922 461 754 c 2
 444 673 l 1
 1229 673 l 1
 1182 455 l 2
 1128 203 873 0 613 0 c 2
 579 0 l 1
 611 152 l 1
EndSplineSet
EndChar

StartChar: uni0E24
Encoding: 244 3620 260
Width: 1183
VWidth: 2835
Flags: W
HStem: -430 21G<795 957.24> 0 21G<143 389.184> 1057 152<622.03 952.493>
VStem: 795 158<-430 -272> 1055 158<688.716 956.366>
DStem2: 51.6007 -430 209.292 -430 0.207912 0.978148<627.788 1153.1> 795 -430 953 -430 0.207912 0.978148<32.85 1279.69>
LayerCount: 2
Fore
SplineSet
463 152 m 1
 378 0 l 1
 143 0 l 1
 262 555 l 2
 275 624 329 694 389 743 c 1
 273 810 l 1
 425 1144 696 1209 831 1209 c 0
 1057 1209 1213 1053 1213 846 c 0
 1213 818 1211 786 1204 754 c 2
 953 -430 l 1
 795 -430 l 1
 1045 754 l 2
 1050 779 1055 803 1055 824 c 0
 1055 974 936 1057 797 1057 c 0
 679 1057 538 996 453 859 c 1
 602 765 l 1
 546 743 446 685 419 555 c 2
 333 152 l 1
 463 152 l 1
EndSplineSet
EndChar

StartChar: uni0E25
Encoding: 245 3621 261
Width: 1224
VWidth: 2849
Flags: W
HStem: 0 152<494.186 649> 521 152<412 1038> 1057 152<667.704 990.437>
VStem: 231 160<252.634 500.056> 305 156<754 910> 927 158<0 158> 1094 160<678.789 957.014>
DStem2: 142.287 0 302.287 0 0.207912 0.978148<435.129 565.691 803.787 971.461> 927 0 1085 0 0.207912 0.978148<32.85 532.693 688.025 833.882>
LayerCount: 2
Fore
SplineSet
683 152 m 1xf6
 649 0 l 1
 613 0 l 2
 387 0 231 156 231 363 c 0xf6
 231 391 233 423 239 455 c 2
 286 673 l 1
 1070 673 l 1
 1088 754 l 2
 1092 775 1094 797 1094 818 c 0
 1094 953 989 1057 839 1057 c 0
 665 1057 497 922 461 754 c 9
 305 754 l 17xee
 356 1006 611 1209 871 1209 c 0
 1097 1209 1254 1053 1254 846 c 0
 1254 818 1251 786 1245 754 c 2
 1085 0 l 1
 927 0 l 1
 1038 521 l 1
 412 521 l 1
 399 455 l 2
 393 432 391 412 391 391 c 0
 391 255 495 152 647 152 c 2
 683 152 l 1xf6
EndSplineSet
EndChar

StartChar: uni0E26
Encoding: 246 3622 262
Width: 1183
VWidth: 2835
Flags: W
HStem: -430 21G<795 955.274> 0 152<103 175> 1057 152<622.561 951.304>
VStem: 795 156<-430 -274> 1053 160<689.214 955.294>
DStem2: 51.2921 -430 207.601 -430 0.207912 0.978148<595.002 1155.85> 795 -430 951 -430 0.207912 0.978148<32.4342 1277.32>
LayerCount: 2
Fore
SplineSet
17 0 m 1
 103 152 l 1
 175 152 l 1
 260 555 l 2
 275 624 327 694 387 743 c 1
 271 810 l 1
 425 1144 694 1209 828 1209 c 0
 1057 1209 1213 1053 1213 844 c 0
 1213 814 1211 786 1204 754 c 2
 951 -430 l 1
 795 -430 l 1
 1045 754 l 2
 1050 779 1053 801 1053 822 c 0
 1053 972 936 1057 797 1057 c 0
 675 1057 534 996 453 859 c 1
 602 765 l 1
 546 743 446 685 419 555 c 2
 299 0 l 1
 17 0 l 1
EndSplineSet
EndChar

StartChar: uni0E27
Encoding: 247 3623 263
Width: 1250
VWidth: 2849
Flags: W
HStem: -13 150<482.07 805.28> 1057 152<671.75 982.809>
VStem: 192 162<282.261 372.31> 1126 159<505.912 905.506>
LayerCount: 2
Fore
SplineSet
1285 743 m 0
 1285 378 972 -13 611 -13 c 0
 410 -13 231 90 192 367 c 1
 354 427 l 1
 374 293 432 137 643 137 c 0
 869 137 1126 406 1126 716 c 0
 1126 920 1000 1057 837 1057 c 0
 701 1057 557 969 434 771 c 1
 299 826 l 1
 463 1094 673 1209 871 1209 c 0
 1126 1209 1285 1003 1285 743 c 0
EndSplineSet
EndChar

StartChar: uni0E28
Encoding: 248 3624 264
Width: 1224
VWidth: 2849
Flags: W
HStem: 0 21G<143 306.223 927 1089.24> 521 152<446 720> 1059 152<668.811 990.679>
VStem: 143 159<0 159> 927 158<0 158> 1094 162<690.787 958.304>
DStem2: 143 0 302 0 0.207912 0.978148<33.058 565.543 721.291 974.623> 927 0 1085 0 0.207912 0.978148<32.85 833.882>
LayerCount: 2
Fore
SplineSet
806 673 m 1
 720 521 l 1
 412 521 l 1
 302 0 l 1
 143 0 l 1
 305 759 l 2
 359 1008 613 1211 871 1211 c 0
 972 1211 1059 1182 1124 1130 c 1
 1260 1220 l 1
 1348 1113 l 1
 1213 1023 l 1
 1241 974 1256 914 1256 850 c 0
 1256 820 1251 788 1245 754 c 2
 1085 0 l 1
 927 0 l 1
 1088 754 l 2
 1092 775 1094 797 1094 818 c 0
 1094 953 989 1059 839 1059 c 0
 667 1059 497 922 461 754 c 2
 446 673 l 1
 806 673 l 1
EndSplineSet
EndChar

StartChar: uni0E29
Encoding: 249 3625 265
Width: 1221
VWidth: 2849
Flags: W
HStem: -15 152<488.749 811.097> 632 152<850 1057 1247 1278> 1174 20G<391.741 553 1172.76 1335>
VStem: 226 161<236.561 501.753> 396 157<1037 1194> 1177 158<1036 1194>
DStem2: 138.712 -15 296.712 -15 0.207912 0.978148<434.995 1236.07> 919.712 -15 1080.71 -15 0.207912 0.978148<297.416 661.405 849.587 1236.07>
LayerCount: 2
Fore
SplineSet
701 822 m 1
 869 871 l 1
 850 784 l 1
 1090 784 l 1
 1177 1194 l 1
 1335 1194 l 1
 1247 784 l 1
 1363 784 l 1
 1278 632 l 1
 1218 632 l 1
 1177 438 l 2
 1124 188 869 -15 609 -15 c 0
 383 -15 226 141 226 346 c 0
 226 376 228 408 235 438 c 2
 396 1194 l 1
 553 1194 l 1
 393 438 l 2
 389 416 387 396 387 376 c 0
 387 237 487 137 640 137 c 0
 812 137 980 271 1016 438 c 2
 1057 632 l 1
 658 632 l 1
 701 822 l 1
EndSplineSet
EndChar

StartChar: uni0E2A
Encoding: 250 3626 266
Width: 1224
VWidth: 2849
Flags: W
HStem: 0 152<494.186 649> 521 152<412 1038> 1057 154<668.407 990.679>
VStem: 231 160<251.769 519.844> 305 158<759 917> 927 158<0 158> 1094 162<678.789 957.553>
DStem2: 142.287 0 302.287 0 0.207912 0.978148<435.129 565.691 809.094 974.912> 927 0 1085 0 0.207912 0.978148<32.85 532.693 688.025 833.882>
LayerCount: 2
Fore
SplineSet
1260 1220 m 1xee
 1348 1113 l 1
 1213 1023 l 1
 1241 972 1256 914 1256 850 c 0
 1256 820 1251 788 1245 754 c 2
 1085 0 l 1
 927 0 l 1
 1038 521 l 1
 412 521 l 1
 399 455 l 2
 393 432 391 412 391 391 c 0
 391 255 495 152 647 152 c 2
 683 152 l 1
 649 0 l 1
 613 0 l 2
 387 0 231 156 231 363 c 0xf6
 231 391 233 423 239 455 c 2
 286 673 l 1
 1070 673 l 1
 1088 754 l 2
 1092 775 1094 797 1094 818 c 0
 1094 953 989 1057 839 1057 c 0
 665 1057 497 925 463 759 c 9
 305 759 l 17
 359 1008 613 1211 871 1211 c 0
 972 1211 1059 1182 1124 1130 c 1
 1260 1220 l 1xee
EndSplineSet
EndChar

StartChar: uni0E2B
Encoding: 251 3627 267
Width: 1224
VWidth: 2849
Flags: W
HStem: 0 21G<143 306.187 927 1089.24> 1176 20G<391.769 555>
VStem: 143 159<0 159> 396 159<1037 1196> 927 158<0 158> 1061 159<513.939 838.957>
DStem2: 143 0 302 0 0.207912 0.978148<33.058 607.407 814.815 1222.47> 927 0 1085 0 0.207912 0.978148<32.85 696.148>
LayerCount: 2
Fore
SplineSet
463 765 m 1xf4
 669 985 994 1173 1173 1211 c 1
 1325 1085 l 1
 1316 1085 l 2
 1243 1085 1079 1036 1032 998 c 1
 1157 955 1220 833 1220 690 c 0xf4
 1220 654 1215 613 1207 575 c 2
 1085 0 l 1
 927 0 l 1xf8
 1050 575 l 2
 1057 609 1061 647 1061 685 c 0
 1061 790 1023 895 889 895 c 0
 761 895 425 573 387 406 c 2
 302 0 l 1
 143 0 l 1
 396 1196 l 1
 555 1196 l 1
 463 765 l 1xf4
EndSplineSet
EndChar

StartChar: uni0E2C
Encoding: 252 3628 268
Width: 1365
VWidth: 2853
Flags: W
HStem: -15 152<387.612 593.473 851.085 1055.73> 1041 153<1016 1248.66>
VStem: 205 162<155.912 485.25> 396 159<1035 1194> 803 160<780 940> 1262 157<709.578 1028.5>
DStem2: 141.567 -15 299.567 -15 0.207912 0.978148<323.905 1235.48> 602.567 -15 760.567 -15 0.207912 0.978148<325.86 975.803> 1065.57 -15 1222.57 -15 0.207912 0.978148<199.955 972.417 1257.79 1436.14>
AnchorPoint: "AboveBase" 1250 1271 basechar 0
LayerCount: 2
Fore
SplineSet
396 1194 m 1
 555 1194 l 1
 378 354 l 2
 372 325 367 293 367 267 c 0
 367 195 393 137 483 137 c 0
 611 137 662 269 681 354 c 2
 803 940 l 1
 963 940 l 1
 839 354 l 2
 833 325 828 295 828 269 c 0
 828 195 857 137 944 137 c 0
 1066 137 1121 248 1144 354 c 2
 1258 893 l 2
 1262 908 1262 925 1262 938 c 0
 1262 1000 1231 1041 1164 1041 c 2
 985 1041 l 1
 1016 1194 l 1
 1196 1194 l 2
 1278 1194 1335 1258 1354 1343 c 2
 1363 1390 l 1
 1520 1390 l 1
 1511 1343 l 2
 1491 1254 1435 1171 1359 1115 c 1
 1399 1072 1419 1016 1419 953 c 0
 1419 931 1417 908 1412 886 c 2
 1301 354 l 2
 1247 101 1083 -15 914 -15 c 0
 822 -15 745 20 705 92 c 1
 632 20 544 -15 453 -15 c 0
 309 -15 205 64 205 237 c 0
 205 271 211 312 220 354 c 2
 396 1194 l 1
EndSplineSet
EndChar

StartChar: uni0E2D
Encoding: 253 3629 269
Width: 1358
VWidth: 2849
Flags: W
HStem: -11 152<544.728 884.139> 521 152<387 784> 1055 152<703.461 1063.16>
VStem: 226 161<309.343 520.586> 1222 168<499.896 888.786>
LayerCount: 2
Fore
SplineSet
1390 734 m 0
 1390 369 1057 -11 679 -11 c 0
 403 -11 226 197 226 463 c 0
 226 506 231 551 239 598 c 2
 258 673 l 1
 875 673 l 1
 784 521 l 1
 387 521 l 1
 387 493 l 2
 387 286 521 141 707 141 c 0
 961 141 1222 406 1222 705 c 0
 1222 908 1090 1055 904 1055 c 0
 745 1055 560 978 436 730 c 1
 293 771 l 1
 466 1117 741 1207 938 1207 c 0
 1213 1207 1390 998 1390 734 c 0
EndSplineSet
EndChar

StartChar: uni0E2E
Encoding: 254 3630 270
Width: 1358
VWidth: 2849
Flags: W
HStem: -11 152<544.728 883.274> 521 148<387 784> 1055 152<703.461 1065.9>
VStem: 226 161<309.343 520.586> 1222 168<499.278 891.523>
LayerCount: 2
Fore
SplineSet
1390 734 m 0
 1390 369 1059 -11 679 -11 c 0
 403 -11 226 197 226 463 c 0
 226 506 231 551 239 598 c 2
 255 669 l 1
 873 669 l 1
 784 521 l 1
 387 521 l 1
 387 493 l 2
 387 286 521 141 707 141 c 0
 955 141 1222 403 1222 705 c 0
 1222 908 1090 1055 904 1055 c 0
 745 1055 560 978 436 730 c 1
 293 771 l 1
 466 1117 741 1207 938 1207 c 0
 1041 1207 1130 1175 1202 1126 c 1
 1323 1209 l 1
 1417 1106 l 1
 1301 1025 l 1
 1359 947 1390 846 1390 734 c 0
EndSplineSet
EndChar

StartChar: uni0E2F
Encoding: 255 3631 271
Width: 1143
VWidth: 2849
Flags: W
HStem: 0 21G<848 1010.25> 720 153<478.962 783.809> 1057 152<522.806 681>
VStem: 312 158<893.802 1009.79> 848 158<0 158>
DStem2: 848 0 1006 0 0.207912 0.978148<32.85 934.154 1112.92 1224.34>
LayerCount: 2
Fore
SplineSet
312 912 m 0
 312 1050 483 1209 679 1209 c 2
 712 1209 l 1
 681 1057 l 1
 645 1057 l 2
 551 1057 470 987 470 940 c 0
 470 895 557 873 607 873 c 0
 799 873 1045 1066 1110 1196 c 1
 1260 1196 l 1
 1006 0 l 1
 848 0 l 1
 1041 914 l 1
 927 822 759 720 577 720 c 0
 430 720 312 795 312 912 c 0
EndSplineSet
EndChar

StartChar: uni0E30
Encoding: 256 3632 272
Width: 650
VWidth: 2982
Flags: W
HStem: 83 161<356 549> 833 161<515 707>
LayerCount: 2
Fore
SplineSet
795 994 m 1
 707 833 l 1
 320 833 l 1
 372 1070 l 1
 544 1124 l 1
 515 994 l 1
 795 994 l 1
636 244 m 1
 549 83 l 1
 161 83 l 1
 213 322 l 1
 385 376 l 1
 356 244 l 1
 636 244 l 1
EndSplineSet
EndChar

StartChar: uni0E31
Encoding: 257 3633 273
Width: 0
VWidth: 2982
Flags: W
HStem: 1314 162<-114 519>
AnchorPoint: "AboveMark" 133 1679 basemark 0
AnchorPoint: "AboveBase" 127 1271 mark 0
LayerCount: 2
Fore
SplineSet
660 1476 m 1
 519 1314 l 1
 -309 1314 l 1
 -260 1551 l 1
 -87 1605 l 1
 -114 1476 l 1
 660 1476 l 1
EndSplineSet
EndChar

StartChar: uni0E32
Encoding: 258 3634 274
Width: 906
VWidth: 2982
Flags: W
HStem: 0 21G<607 769.297> 1057 152<461.783 732.492>
VStem: 607 158<0 158> 781 161<624.406 1008.04>
DStem2: 607 0 765 0 0.207912 0.978148<32.85 884.443>
LayerCount: 2
Fore
SplineSet
346 1100 m 1
 423 1149 528 1209 640 1209 c 0
 855 1209 942 1074 942 895 c 0
 942 850 938 803 927 754 c 2
 765 0 l 1
 607 0 l 1
 767 754 l 2
 777 792 781 831 781 869 c 0
 781 972 741 1057 607 1057 c 0
 500 1057 374 961 307 914 c 1
 346 1100 l 1
EndSplineSet
EndChar

StartChar: uni0E33
Encoding: 259 3635 275
Width: 906
VWidth: 2982
Flags: W
HStem: 0 21G<607 769.297> 1057 152<461.783 732.492> 1254 109<62.4325 171.585> 1471 109<68.6116 176.799>
VStem: -54 116<1363.26 1466.61> 177 116<1368.14 1470.76> 607 158<0 158> 781 161<624.406 1008.04>
DStem2: 607 0 765 0 0.207912 0.978148<32.85 884.443>
LayerCount: 2
Fore
SplineSet
346 1100 m 1
 423 1149 528 1209 640 1209 c 0
 855 1209 942 1074 942 895 c 0
 942 850 938 803 927 754 c 2
 765 0 l 1
 607 0 l 1
 767 754 l 2
 777 792 781 831 781 869 c 0
 781 972 741 1057 607 1057 c 0
 500 1057 374 961 307 914 c 1
 346 1100 l 1
293 1450 m 0
 293 1359 201 1254 85 1254 c 0
 4 1254 -54 1309 -54 1384 c 0
 -54 1478 43 1580 154 1580 c 0
 237 1580 293 1525 293 1450 c 0
132 1471 m 0
 77 1471 62 1421 62 1403 c 0
 62 1384 77 1363 109 1363 c 0
 145 1363 177 1395 177 1431 c 0
 177 1450 164 1471 132 1471 c 0
EndSplineSet
MultipleSubs2: "Thai Sara Am Decomposition" uni0E4D uni0E32
Substitution2: "Thai Sara Am Lakkhang" uni0E32
LCarets2: 1 0 
EndChar

StartChar: uni0E34
Encoding: 260 3636 276
Width: 0
VWidth: 2982
Flags: W
HStem: 1314 162<-667 137>
AnchorPoint: "AboveMark" 133 1679 basemark 0
AnchorPoint: "AboveBase" 127 1271 mark 0
LayerCount: 2
Fore
SplineSet
-808 1314 m 1
 -667 1476 l 1
 171 1476 l 1
 137 1314 l 1
 -808 1314 l 1
EndSplineSet
LCarets2: 1 0 
EndChar

StartChar: uni0E35
Encoding: 261 3637 277
Width: 0
VWidth: 2982
Flags: W
HStem: 1314 162<-667 9>
AnchorPoint: "AboveMark" 133 1679 basemark 0
AnchorPoint: "AboveBase" 127 1271 mark 0
LayerCount: 2
Fore
SplineSet
9 1476 m 1
 34 1591 l 1
 195 1591 l 1
 137 1314 l 1
 -808 1314 l 1
 -667 1476 l 1
 9 1476 l 1
EndSplineSet
LCarets2: 1 0 
EndChar

StartChar: uni0E36
Encoding: 262 3638 278
Width: 0
VWidth: 2982
Flags: W
HStem: 1314 162<-665 -83> 1314 103<23.6464 152.408> 1558 101<33.9724 164.262>
VStem: -83 105<1476 1544.86> 166 103<1429.91 1555.65>
AnchorPoint: "AboveMark" 133 1679 basemark 0
AnchorPoint: "AboveBase" 127 1271 mark 0
LayerCount: 2
Fore
SplineSet
109 1558 m 0x78
 72 1558 22 1525 22 1476 c 0xb8
 22 1442 45 1417 81 1417 c 0
 128 1417 166 1459 166 1504 c 0
 166 1536 143 1558 109 1558 c 0x78
269 1523 m 0
 269 1406 152 1314 56 1314 c 2
 -806 1314 l 1x78
 -665 1476 l 1
 -83 1476 l 1
 -83 1478 -81 1482 -81 1486 c 1
 -60 1580 36 1659 130 1659 c 0
 213 1659 269 1600 269 1523 c 0
EndSplineSet
EndChar

StartChar: uni0E37
Encoding: 263 3639 279
Width: 0
VWidth: 2982
Flags: W
HStem: 1314 162<-667 -215 -54 9>
AnchorPoint: "AboveMark" 21 1679 basemark 0
AnchorPoint: "AboveBase" 127 1271 mark 0
LayerCount: 2
Fore
SplineSet
9 1476 m 1
 34 1591 l 1
 195 1591 l 1
 137 1314 l 1
 -808 1314 l 1
 -667 1476 l 1
 -215 1476 l 1
 -190 1591 l 1
 -30 1591 l 1
 -54 1476 l 1
 9 1476 l 1
EndSplineSet
EndChar

StartChar: uni0E38
Encoding: 264 3640 280
Width: 0
VWidth: 2982
Flags: W
VStem: -412 162<-510 -348>
DStem2: -412 -510 -250 -510 0.207912 0.978148<33.6817 265.338>
AnchorPoint: "BelowBase" -157 -67 mark 0
LayerCount: 2
Fore
SplineSet
-479 -250 m 1
 -391 -90 l 1
 -164 -90 l 1
 -250 -510 l 1
 -412 -510 l 1
 -359 -250 l 1
 -479 -250 l 1
EndSplineSet
Substitution2: "Thai Sara U Mai Ek Reordering" uni0E48.low
Substitution2: "Thai Sara U Mai Tho Reordering" uni0E49.low
Substitution2: "Thai Sara U Mai Tri Reordering" uni0E4A.low
Substitution2: "Thai Sara U Mai Chattawa Reordering" uni0E4B.low
Substitution2: "Thai Sara U Thanthakhat Reordering" uni0E4C.low
Substitution2: "Thai Sara U Nikhahit Reordering" uni0E4D
EndChar

StartChar: uni0E39
Encoding: 265 3641 281
Width: 0
VWidth: 2982
Flags: W
HStem: -526 161<-568.802 -396.519>
VStem: -741 160<-350.873 -252.003> -325 161<-251 -90>
DStem2: -417.24 -526 -255.24 -526 0.207912 0.978148<179.092 445.65>
AnchorPoint: "BelowBase" -157 -67 mark 0
LayerCount: 2
Fore
SplineSet
-835 -250 m 1
 -748 -90 l 1
 -546 -90 l 1
 -579 -252 l 2
 -581 -262 -581 -269 -581 -275 c 0
 -581 -327 -544 -365 -493 -365 c 0
 -432 -365 -372 -314 -359 -252 c 2
 -325 -90 l 1
 -164 -90 l 1
 -197 -252 l 2
 -228 -406 -376 -526 -526 -526 c 0
 -658 -526 -748 -434 -748 -312 c 0
 -748 -291 -745 -273 -741 -252 c 1
 -741 -250 l 1
 -835 -250 l 1
EndSplineSet
Substitution2: "Thai Sara UU Mai Ek Reordering" uni0E48.low
Substitution2: "Thai Sara UU Mai Tho Reordering" uni0E49.low
Substitution2: "Thai Sara UU Mai Tri Reordering" uni0E4A.low
Substitution2: "Thai Sara UU Mai Chattawa Reordering" uni0E4B.low
Substitution2: "Thai Sara UU Thanthakhat Reordering" uni0E4C.low
Substitution2: "Thai Sara UU Nikhahit Reordering" uni0E4D
EndChar

StartChar: uni0E3A
Encoding: 266 3642 282
Width: 0
VWidth: 2982
Flags: W
HStem: -293 221<-336.125 -190.625>
VStem: -374 224<-252.616 -109.256>
AnchorPoint: "BelowBase" -157 -67 mark 0
LayerCount: 2
Fore
SplineSet
-374 -205 m 0
 -374 -145 -318 -72 -239 -72 c 0
 -188 -72 -150 -109 -150 -158 c 0
 -150 -224 -213 -293 -286 -293 c 0
 -338 -293 -374 -258 -374 -205 c 0
EndSplineSet
Substitution2: "Thai Phinthu Maitaikhu Reordering" uni0E47
Substitution2: "Thai Phinthu Mai Ek Reordering" uni0E48.low
Substitution2: "Thai Phinthu Mai Tho Reordering" uni0E49.low
Substitution2: "Thai Phinthu Mai Tri Reordering" uni0E4A.low
Substitution2: "Thai Phinthu Mai Chattawa Reordering" uni0E4B.low
Substitution2: "Thai Phinthu Thanthakhat Reordering" uni0E4C.low
Substitution2: "Thai Phinthu Nikhahit Reordering" uni0E4D
EndChar

StartChar: uni0E3F
Encoding: 267 3647 283
Width: 1295
VWidth: 2877
Flags: W
HStem: 0 154<333 427 620 913.733> 750 152<493 587 779 1022.86> 1339 154<587 712 904 1100.8>
VStem: 1144 161<363.658 636.705> 1173 164<1033.82 1268.68>
DStem2: 114.943 -132 272.209 -132 0.207912 0.978148<325.087 934.676 1090.01 1537> 399 -132 560 -132 0.207912 0.978148<33.4738 134.937 325.699 901.814 1090.41 1503.93 1694.49 1794.41>
LayerCount: 2
Fore
SplineSet
1305 538 m 0xf0
 1305 269 1021 0 694 0 c 2
 589 0 l 1
 560 -132 l 1
 399 -132 l 1
 427 0 l 1
 143 0 l 1
 461 1493 l 1
 743 1493 l 1
 773 1623 l 1
 933 1623 l 1
 904 1493 l 1
 998 1493 l 2
 1196 1493 1337 1363 1337 1188 c 0xe8
 1337 1050 1251 922 1130 839 c 1
 1238 777 1305 667 1305 538 c 0xf0
1173 1155 m 0
 1173 1254 1090 1339 961 1339 c 2
 873 1339 l 1
 779 902 l 1
 869 902 l 2
 1030 908 1173 1025 1173 1155 c 0
726 154 m 2
 933 154 1144 316 1144 506 c 0xf0
 1144 640 1030 750 853 750 c 2
 748 750 l 1
 620 154 l 1
 726 154 l 2
618 902 m 1
 712 1339 l 1
 587 1339 l 1
 493 902 l 1
 618 902 l 1
587 750 m 1
 461 750 l 1
 333 154 l 1
 459 154 l 1
 587 750 l 1
EndSplineSet
EndChar

StartChar: uni0E40
Encoding: 268 3648 284
Width: 440
VWidth: 2849
Flags: W
HStem: 0 21G<143 306.231> 1176 20G<391.769 555>
VStem: 143 159<0 159> 396 159<1037 1196>
DStem2: 143 0 302 0 0.207912 0.978148<33.058 1222.47>
LayerCount: 2
Fore
SplineSet
302 0 m 1
 143 0 l 1
 396 1196 l 1
 555 1196 l 1
 302 0 l 1
EndSplineSet
EndChar

StartChar: uni0E41
Encoding: 269 3649 285
Width: 704
VWidth: 2849
Flags: W
HStem: 0 21G<143 306.231 408 568.281> 1176 20G<391.769 555 655.786 820>
VStem: 143 159<0 159> 408 156<0 156 1040 1196> 660 160<1036 1196>
DStem2: 143 0 302 0 0.207912 0.978148<33.058 1222.47> 408 0 564 0 0.207912 0.978148<32.4342 1222.26>
LayerCount: 2
Fore
SplineSet
302 0 m 1
 143 0 l 1
 396 1196 l 1
 555 1196 l 1
 302 0 l 1
564 0 m 1
 408 0 l 1
 660 1196 l 1
 820 1196 l 1
 564 0 l 1
EndSplineSet
EndChar

StartChar: uni0E42
Encoding: 270 3650 286
Width: 487
VWidth: 2862
Flags: W
HStem: 0 21G<190 425.316> 1580 152<338 426.776 589 991>
VStem: 474 160<1139.5 1532.73>
DStem2: 190 0 347.691 0 0.207912 0.978148<188.182 1417.02>
LayerCount: 2
Fore
SplineSet
500 152 m 1
 414 0 l 1
 190 0 l 1
 463 1280 l 2
 470 1316 474 1354 474 1390 c 0
 474 1493 434 1580 302 1580 c 2
 252 1580 l 1
 338 1732 l 1
 1077 1732 l 1
 991 1580 l 1
 589 1580 l 1
 618 1531 634 1466 634 1397 c 0
 634 1359 628 1318 620 1280 c 2
 380 152 l 1
 500 152 l 1
EndSplineSet
EndChar

StartChar: uni0E43
Encoding: 271 3651 287
Width: 523
VWidth: 2862
Flags: W
HStem: 0 21G<226 449.316> 1594 154<434.662 654.56>
VStem: 683 165<1434.87 1565.48>
DStem2: 226 0 383.691 0 0.207912 0.978148<188.182 1372.01>
LayerCount: 2
Fore
SplineSet
524 152 m 1
 438 0 l 1
 226 0 l 1
 474 1173 l 2
 524 1399 683 1431 683 1495 c 0
 683 1527 640 1594 555 1594 c 0
 470 1594 401 1533 391 1493 c 0
 387 1471 385 1455 385 1455 c 1
 226 1455 l 1
 235 1493 l 2
 265 1627 430 1748 587 1748 c 0
 732 1748 848 1645 848 1527 c 0
 848 1359 671 1343 636 1175 c 2
 416 152 l 1
 524 152 l 1
EndSplineSet
EndChar

StartChar: uni0E44
Encoding: 272 3652 288
Width: 489
VWidth: 2866
Flags: W
HStem: 0 21G<192 421.184> 1583 152<560 634>
DStem2: 192 0 350.691 0 0.207912 0.978148<188.39 1531.88>
LayerCount: 2
Fore
SplineSet
495 152 m 1
 410 0 l 1
 192 0 l 1
 470 1309 l 2
 495 1426 564 1515 634 1583 c 1
 560 1583 l 1
 410 1429 l 1
 255 1596 l 1
 299 1802 l 1
 444 1652 l 1
 519 1735 l 1
 886 1735 l 1
 861 1610 l 1
 765 1544 660 1464 626 1307 c 2
 383 152 l 1
 495 152 l 1
EndSplineSet
EndChar

StartChar: uni0E45
Encoding: 273 3653 289
Width: 906
VWidth: 2835
Flags: W
HStem: -440 21G<515 675.294> 1043 153<459.403 729.387>
VStem: 515 156<-440 -284> 779 161<613.609 993.21>
DStem2: 515 -440 671 -440 0.207912 0.978148<32.4342 1319.98>
LayerCount: 2
Fore
SplineSet
344 1085 m 1
 421 1137 526 1196 636 1196 c 0
 853 1196 940 1061 940 882 c 0
 940 839 936 792 925 743 c 2
 671 -440 l 1
 515 -440 l 1
 765 743 l 2
 775 781 779 820 779 855 c 0
 779 959 737 1043 604 1043 c 0
 497 1043 372 947 305 900 c 1
 344 1085 l 1
EndSplineSet
EndChar

StartChar: uni0E46
Encoding: 274 3654 290
Width: 1194
VWidth: 2835
Flags: W
HStem: -440 21G<803 967.213> 534 153<461.833 671.546> 861 158<726.781 897.258> 1182 20G<597.4 657.196>
VStem: 286 154<709.638 936.877> 803 160<-440 -280> 1072 163<733.697 987.212>
DStem2: 803 -440 963 -440 0.207912 0.978148<33.2659 1316.96>
LayerCount: 2
Fore
SplineSet
551 1000 m 1
 483 959 440 878 440 806 c 0
 440 741 477 687 564 687 c 0
 604 687 640 694 671 701 c 1
 679 555 l 1
 620 542 589 534 534 534 c 0
 365 534 286 645 286 775 c 0
 286 929 393 1108 585 1177 c 2
 647 1202 l 1
 673 1151 l 2
 694 1106 741 1019 803 1019 c 0
 867 1019 949 1106 989 1151 c 2
 1045 1218 l 1
 1106 1171 l 2
 1186 1106 1235 1006 1235 891 c 0
 1235 861 1231 831 1224 799 c 2
 963 -440 l 1
 803 -440 l 1
 1066 795 l 2
 1070 814 1072 833 1072 850 c 0
 1072 904 1057 951 1030 989 c 1
 951 918 861 861 767 861 c 0
 667 861 600 922 551 1000 c 1
EndSplineSet
EndChar

StartChar: uni0E47
Encoding: 275 3655 291
Width: 0
VWidth: 2982
Flags: W
HStem: 1292 132<-108.614 129.854> 1619 129<-497.993 250>
VStem: -667 143<1454.28 1589.69>
DStem2: -248 1555 -273 1399 0.849502 -0.527585<61.0658 284.859>
AnchorPoint: "AboveBase" 127 1271 mark 0
LayerCount: 2
Fore
SplineSet
-387 1619 m 2
 -479 1619 -524 1558 -524 1518 c 0
 -524 1482 -500 1450 -446 1446 c 1
 -248 1555 l 1
 -58 1437 l 1
 -36 1429 -15 1424 7 1424 c 0
 40 1424 79 1435 121 1446 c 1
 156 1327 l 1
 90 1307 32 1292 -25 1292 c 0
 -69 1292 -111 1301 -150 1323 c 2
 -273 1399 l 1
 -425 1314 l 1
 -448 1314 l 2
 -557 1314 -667 1377 -667 1491 c 0
 -667 1627 -515 1748 -356 1748 c 2
 331 1748 l 1
 250 1619 l 1
 -387 1619 l 2
EndSplineSet
Substitution2: "Thai Mark High Variant" uni0E47.high
Substitution2: "Thai Phinthu Maitaikhu Reordering" uni0E3A
EndChar

StartChar: uni0E48
Encoding: 276 3656 292
Width: 0
VWidth: 2982
Flags: W
VStem: 58 162<1708 1870> 126 160<1863 2023>
DStem2: 58 1708 220 1708 0.207912 0.978148<33.6817 322.255>
AnchorPoint: "AboveMark" 133 1679 mark 0
LayerCount: 2
Fore
SplineSet
220 1708 m 1x80
 58 1708 l 1x80
 126 2023 l 1
 286 2023 l 1x40
 220 1708 l 1x80
EndSplineSet
MultipleSubs2: "Thai Tone Nikhahit Attachment" uni0E4D uni0E48
Substitution2: "Thai Tone Low Variant" uni0E48.low
Substitution2: "Thai Sara U Mai Ek Reordering" uni0E38
Substitution2: "Thai Sara UU Mai Ek Reordering" uni0E39
Substitution2: "Thai Phinthu Mai Ek Reordering" uni0E3A
EndChar

StartChar: uni0E49
Encoding: 277 3657 293
Width: 0
VWidth: 2982
Flags: W
HStem: 1708 161<74 380>
AnchorPoint: "AboveMark" 133 1679 mark 0
LayerCount: 2
Fore
SplineSet
-224 1860 m 1
 -137 2021 l 1
 -62 2021 l 2
 43 2021 77 1954 77 1899 c 0
 77 1887 77 1878 74 1869 c 1
 468 1869 l 1
 380 1708 l 1
 -121 1708 l 1
 -90 1852 l 2
 -87 1860 -94 1858 -98 1860 c 1
 -224 1860 l 1
EndSplineSet
MultipleSubs2: "Thai Tone Nikhahit Attachment" uni0E4D uni0E49
Substitution2: "Thai Tone Low Variant" uni0E49.low
Substitution2: "Thai Sara U Mai Tho Reordering" uni0E38
Substitution2: "Thai Sara UU Mai Tho Reordering" uni0E39
Substitution2: "Thai Phinthu Mai Tho Reordering" uni0E3A
EndChar

StartChar: uni0E4A
Encoding: 278 3658 294
Width: 0
VWidth: 2982
Flags: W
HStem: 1708 161<-47.885 -22 502 720> 1927 162<-60.2731 88.0344>
AnchorPoint: "AboveMark" 133 1679 mark 0
LayerCount: 2
Fore
SplineSet
-231 1858 m 0
 -231 1952 -143 2089 43 2089 c 0
 158 2089 211 2025 235 1967 c 1
 385 2061 l 1
 544 2061 l 1
 502 1869 l 1
 808 1869 l 1
 720 1708 l 1
 307 1708 l 1
 340 1862 l 1
 111 1717 l 1
 109 1766 l 2
 103 1847 98 1927 13 1927 c 0
 -81 1927 -74 1871 -43 1871 c 2
 13 1871 l 1
 -22 1711 l 1
 -79 1711 l 2
 -177 1711 -231 1777 -231 1858 c 0
EndSplineSet
MultipleSubs2: "Thai Tone Nikhahit Attachment" uni0E4D uni0E4A
Substitution2: "Thai Tone Low Variant" uni0E4A.low
Substitution2: "Thai Sara U Mai Tri Reordering" uni0E38
Substitution2: "Thai Sara UU Mai Tri Reordering" uni0E39
Substitution2: "Thai Phinthu Mai Tri Reordering" uni0E3A
EndChar

StartChar: uni0E4B
Encoding: 279 3659 295
Width: 0
VWidth: 2982
Flags: W
HStem: 1800 154<25 79 273 327>
AnchorPoint: "AboveMark" 133 1679 mark 0
LayerCount: 2
Fore
SplineSet
-9 1800 m 1
 25 1954 l 1
 111 1954 l 1
 130 2048 l 1
 291 2048 l 1
 273 1959 l 1
 361 1959 l 1
 327 1798 l 1
 239 1798 l 1
 220 1708 l 1
 58 1708 l 1
 79 1800 l 1
 -9 1800 l 1
EndSplineSet
MultipleSubs2: "Thai Tone Nikhahit Attachment" uni0E4D uni0E4B
Substitution2: "Thai Tone Low Variant" uni0E4B.low
Substitution2: "Thai Sara U Mai Chattawa Reordering" uni0E38
Substitution2: "Thai Sara UU Mai Chattawa Reordering" uni0E39
Substitution2: "Thai Phinthu Mai Chattawa Reordering" uni0E3A
EndChar

StartChar: uni0E4C
Encoding: 280 3660 296
Width: 0
VWidth: 2982
Flags: W
HStem: 1818 160<238.596 432>
AnchorPoint: "AboveMark" 133 1679 mark 0
LayerCount: 2
Fore
SplineSet
519 1978 m 1
 432 1818 l 1
 252 1818 l 2
 242 1815 244 1818 242 1809 c 2
 220 1708 l 1
 58 1708 l 1
 81 1809 l 2
 92 1869 150 1978 286 1978 c 2
 519 1978 l 1
EndSplineSet
MultipleSubs2: "Thai Tone Nikhahit Attachment" uni0E4D uni0E4C
Substitution2: "Thai Tone Low Variant" uni0E4C.low
Substitution2: "Thai Sara U Thanthakhat Reordering" uni0E38
Substitution2: "Thai Sara UU Thanthakhat Reordering" uni0E39
Substitution2: "Thai Phinthu Thanthakhat Reordering" uni0E3A
EndChar

